<svg width="78" height="71" viewBox="0 0 78 71" fill="none" xmlns="http://www.w3.org/2000/svg">
<g clip-path="url(#clip0_2029_960)">
<rect width="77.6832" height="70.7968" fill="#1F143D"/>
<g filter="url(#filter0_f_2029_960)">
<path d="M56.6602 65.2966H48.5276L57.0903 50.8543L57.2415 50.5993L57.0903 50.3443L48.08 35.147L48.0799 35.1469L39.217 20.2046L47.9347 5.5H64.7965L56.2302 19.9422L56.0789 20.1973L56.2301 20.4523L69.7474 43.2517C69.7475 43.2518 69.7475 43.2519 69.7476 43.252C72.4414 47.8019 72.4414 53.3896 69.7474 57.9395L69.6777 58.0574V58.0599C68.3345 60.2826 66.441 62.074 64.2176 63.3274C61.9574 64.6014 59.3575 65.2966 56.6602 65.2966Z" fill="#2169B4" stroke="black"/>
<path d="M70.9557 15.6415C72.5527 18.3908 72.5914 21.7673 71.0718 24.547L70.9521 24.7528L65.3404 34.4L57.0833 20.1974L65.344 5.99445L70.9557 15.6415Z" fill="#2169B4" stroke="black"/>
<path d="M70.9557 15.6415C72.5527 18.3908 72.5914 21.7673 71.0718 24.547L70.9521 24.7528L65.3404 34.4L57.0833 20.1974L65.344 5.99445L70.9557 15.6415Z" fill="#2169B4" stroke="black"/>
<path d="M55.9305 50.5958L47.6771 64.8016L39.4201 50.5958L47.6771 36.3934L55.9305 50.5958Z" fill="#2169B4" stroke="black"/>
<path d="M55.9301 50.5958L47.389 65.2968H30.8785L39.2737 50.847L39.2737 50.8469L47.6767 36.3934L55.9301 50.5958Z" fill="#2169B4" stroke="black"/>
<path d="M13.2125 65.2929L21.611 50.8469L21.7571 50.5956L21.611 50.3443L12.7757 35.147L8.35821 27.5487L13.2125 65.2929ZM13.2125 65.2929H29.7227L38.2648 50.5938L29.5782 35.6459L29.5781 35.6458L20.7428 20.4486L20.5967 20.1973L20.7428 19.946L29.1414 5.5H21.1751C18.5312 5.5 15.9896 6.19417 13.7762 7.46713C11.5609 8.7412 9.67872 10.5724 8.35829 12.8495L8.35778 12.8504C5.71692 17.383 5.71636 22.9962 8.35801 27.5484L13.2125 65.2929Z" fill="#2169B4" stroke="black"/>
<path d="M38.2635 20.1973L30.0101 34.4032L21.7531 20.1973L30.0101 5.99497L38.2635 20.1973Z" fill="#2169B4" stroke="black"/>
<path d="M46.8081 5.5L38.4095 19.946L38.4095 19.9461L30.0101 34.4032L21.7531 20.1973L30.2978 5.5H46.8081Z" fill="#2169B4" stroke="black"/>
<path d="M20.5962 50.5957L12.3391 64.7985L6.72751 55.1515L20.5962 50.5957ZM20.5962 50.5957L12.3391 36.393M20.5962 50.5957L12.3391 36.393M12.3391 36.393L6.72751 46.04C5.09088 48.8575 5.09083 52.3337 6.72735 55.1513L12.3391 36.393Z" fill="#2169B4" stroke="black"/>
<path d="M20.5962 50.5957L12.3391 64.7985L6.72751 55.1515L20.5962 50.5957ZM20.5962 50.5957L12.3391 36.393M20.5962 50.5957L12.3391 36.393M12.3391 36.393L6.72751 46.04C5.09088 48.8575 5.09083 52.3337 6.72735 55.1513L12.3391 36.393Z" fill="#2169B4" stroke="black"/>
</g>
<path d="M62.3841 53.1258C61.3068 54.9467 59.7716 56.4103 57.9664 57.4279C56.1611 58.4456 54.0858 59.0001 51.9342 59.0001H44.9686L51.9342 47.2516L44.9686 35.503L38 23.7544L44.9686 12.0001H58.9027L51.9342 23.7487L62.3841 41.3744C64.5386 45.0133 64.5386 49.4841 62.3841 53.123V53.1258Z" fill="url(#paint0_linear_2029_960)"/>
<path d="M63.3163 27.4648L58.6438 35.4973L51.8135 23.7487L58.6467 12.0001L63.3192 20.0326C64.6542 22.3309 64.6542 25.1665 63.3192 27.4648H63.3163Z" fill="url(#paint1_linear_2029_960)"/>
<path d="M63.3163 27.4648L58.6438 35.4973L51.8135 23.7487L58.6467 12.0001L63.3192 20.0326C64.6542 22.3309 64.6542 25.1665 63.3192 27.4648H63.3163Z" fill="url(#paint2_linear_2029_960)"/>
<path d="M51.817 47.2487L44.9895 59.0001L38.1592 47.2487L44.9895 35.5001L51.817 47.2487Z" fill="url(#paint3_linear_2029_960)"/>
<path d="M51.8173 47.2487L44.9898 59.0001H31.332L38.1595 47.2487L44.9898 35.5001L51.8173 47.2487Z" fill="url(#paint4_linear_2029_960)"/>
<path d="M38.1591 47.2487L31.3316 58.9973H17.6738L24.5042 47.2487L17.6738 35.5001L14.2587 29.6258C12.1468 25.9869 12.1468 21.499 14.2587 17.8744C15.3146 16.0535 16.8193 14.59 18.5888 13.5723C20.3582 12.5547 22.3895 12.0001 24.5013 12.0001H31.3316L24.5013 23.7487L31.3316 35.4973L38.1591 47.2458V47.2487Z" fill="url(#paint5_linear_2029_960)"/>
<path d="M38.1588 23.7487L31.3313 35.5001L24.501 23.7487L31.3313 12.0001L38.1588 23.7487Z" fill="url(#paint6_linear_2029_960)"/>
<path d="M44.9891 12.0001L38.1588 23.7487L31.3313 35.5001L24.501 23.7487L31.3313 12.0001H44.9891Z" fill="url(#paint7_linear_2029_960)"/>
<path d="M24.5011 47.2487L17.6708 58.9973L12.9983 50.9648C11.6633 48.6665 11.6633 45.8309 12.9983 43.5326L17.6708 35.5001L24.5011 47.2487Z" fill="url(#paint8_linear_2029_960)"/>
<path d="M24.5011 47.2487L17.6708 58.9973L12.9983 50.9648C11.6633 48.6665 11.6633 45.8309 12.9983 43.5326L17.6708 35.5001L24.5011 47.2487Z" fill="url(#paint9_linear_2029_960)"/>
</g>
<defs>
<filter id="filter0_f_2029_960" x="-3.7" y="-3.7" width="85.0831" height="78.1968" filterUnits="userSpaceOnUse" color-interpolation-filters="sRGB">
<feFlood flood-opacity="0" result="BackgroundImageFix"/>
<feBlend mode="normal" in="SourceGraphic" in2="BackgroundImageFix" result="shape"/>
<feGaussianBlur stdDeviation="4.35" result="effect1_foregroundBlur_2029_960"/>
</filter>
<linearGradient id="paint0_linear_2029_960" x1="59.299" y1="41.4602" x2="35.1586" y2="20.8609" gradientUnits="userSpaceOnUse">
<stop stop-color="#A2C9F1"/>
<stop offset="1" stop-color="#3C8DE2"/>
</linearGradient>
<linearGradient id="paint1_linear_2029_960" x1="68.4117" y1="44.4816" x2="56.0052" y2="18.2721" gradientUnits="userSpaceOnUse">
<stop stop-color="#B39EFC"/>
<stop offset="1" stop-color="#7658FB"/>
</linearGradient>
<linearGradient id="paint2_linear_2029_960" x1="63.932" y1="23.7201" x2="52.8579" y2="23.7838" gradientUnits="userSpaceOnUse">
<stop stop-color="#A2C9F1"/>
<stop offset="1" stop-color="#327BC8"/>
</linearGradient>
<linearGradient id="paint3_linear_2029_960" x1="48.2062" y1="53.9605" x2="34.9314" y2="25.9115" gradientUnits="userSpaceOnUse">
<stop stop-color="#B39EFC"/>
<stop offset="1" stop-color="#7658FB"/>
</linearGradient>
<linearGradient id="paint4_linear_2029_960" x1="56.9357" y1="20.7501" x2="52.233" y2="30.7899" gradientUnits="userSpaceOnUse">
<stop stop-color="#4995E4"/>
<stop offset="1" stop-color="#2169B4"/>
</linearGradient>
<linearGradient id="paint5_linear_2029_960" x1="19.1872" y1="33.4077" x2="38.0623" y2="40.9381" gradientUnits="userSpaceOnUse">
<stop stop-color="#A2C9F1"/>
<stop offset="1" stop-color="#3C8DE2"/>
</linearGradient>
<linearGradient id="paint6_linear_2029_960" x1="29.1533" y1="13.2464" x2="32.8757" y2="31.442" gradientUnits="userSpaceOnUse">
<stop stop-color="#B39EFC"/>
<stop offset="1" stop-color="#7658FB"/>
</linearGradient>
<linearGradient id="paint7_linear_2029_960" x1="37.6639" y1="11.7228" x2="32.9611" y2="21.7627" gradientUnits="userSpaceOnUse">
<stop stop-color="#8EC5FF"/>
<stop offset="1" stop-color="#2169B4"/>
</linearGradient>
<linearGradient id="paint8_linear_2029_960" x1="11.9999" y1="17.4513" x2="15.5575" y2="34.8518" gradientUnits="userSpaceOnUse">
<stop stop-color="#B39EFC"/>
<stop offset="1" stop-color="#7658FB"/>
</linearGradient>
<linearGradient id="paint9_linear_2029_960" x1="13.1105" y1="47.1801" x2="21.6153" y2="47.3133" gradientUnits="userSpaceOnUse">
<stop stop-color="#A2C9F1"/>
<stop offset="1" stop-color="#327BC8"/>
</linearGradient>
<clipPath id="clip0_2029_960">
<rect width="77.6832" height="70.7968" fill="white"/>
</clipPath>
</defs>
</svg>
