<svg width="43" height="39" viewBox="0 0 43 39" fill="none" xmlns="http://www.w3.org/2000/svg">
<rect width="43" height="39" rx="10" fill="#3E228B"/>
<path fill-rule="evenodd" clip-rule="evenodd" d="M21.5 11.589C19.4007 8.83124 15.8927 7.97897 13.2624 10.5043C10.6321 13.0295 10.2618 17.2516 12.3274 20.2383C14.0448 22.7215 19.2423 27.9588 20.9457 29.654C21.1362 29.8436 21.2316 29.9384 21.3427 29.9756C21.4397 30.0081 21.5459 30.0081 21.6429 29.9756C21.7541 29.9384 21.8493 29.8436 22.0399 29.654C23.7434 27.9588 28.9408 22.7215 30.6582 20.2383C32.7238 17.2516 32.3987 13.003 29.7232 10.5043C27.0476 8.00554 23.5993 8.83124 21.5 11.589Z" stroke="white" stroke-opacity="0.75" stroke-width="1.5" stroke-linecap="round" stroke-linejoin="round"/>
</svg>
