<svg width="13" height="12" viewBox="0 0 13 12" fill="none" xmlns="http://www.w3.org/2000/svg">
<path d="M11.8445 2.5324H9.49642C9.38535 1.88918 9.05064 1.30587 8.55136 0.885408C8.05208 0.46495 7.42032 0.234375 6.76758 0.234375C6.11484 0.234375 5.48308 0.46495 4.9838 0.885408C4.48451 1.30587 4.1498 1.88918 4.03873 2.5324H1.69066C1.44584 2.5324 1.21105 2.62965 1.03794 2.80276C0.864831 2.97587 0.767578 3.21066 0.767578 3.45547V10.8401C0.767578 11.0849 0.864831 11.3197 1.03794 11.4928C1.21105 11.6659 1.44584 11.7632 1.69066 11.7632H11.8445C12.0893 11.7632 12.3241 11.6659 12.4972 11.4928C12.6703 11.3197 12.7676 11.0849 12.7676 10.8401V3.45547C12.7676 3.21066 12.6703 2.97587 12.4972 2.80276C12.3241 2.62965 12.0893 2.5324 11.8445 2.5324ZM6.76758 1.14778C7.17677 1.14856 7.57418 1.28484 7.89774 1.53534C8.2213 1.78584 8.45279 2.13645 8.55604 2.5324H4.97912C5.08237 2.13645 5.31385 1.78584 5.63741 1.53534C5.96097 1.28484 6.35839 1.14856 6.76758 1.14778Z" fill="#20D598"/>
</svg>
