<svg width="21" height="21" viewBox="0 0 21 21" fill="none" xmlns="http://www.w3.org/2000/svg">
<path fill-rule="evenodd" clip-rule="evenodd" d="M10.3933 0.5C15.9334 0.5 20.4204 4.97777 20.4204 10.4932C20.4204 16.0221 15.9335 20.5 10.3933 20.5C4.86683 20.5 0.379883 16.0222 0.379883 10.4932C0.379999 4.97777 4.86683 0.5 10.3933 0.5Z" fill="#FBEC27"/>
<path fill-rule="evenodd" clip-rule="evenodd" d="M10.3931 0.84375C15.7418 0.84375 20.0782 5.17139 20.0782 10.4956C20.0782 15.8335 15.7418 20.1612 10.3931 20.1612C5.05808 20.1612 0.72168 15.8335 0.72168 10.4956C0.721795 5.17139 5.05819 0.84375 10.3931 0.84375Z" fill="#FBBA2D"/>
<path fill-rule="evenodd" clip-rule="evenodd" d="M10.393 0.84375C12.2945 0.84375 14.0454 1.38985 15.5365 2.31816C12.4859 2.08608 7.09622 2.76867 2.62305 9.15772C1.52864 10.7277 1.2961 12.6116 1.66553 14.6457C1.06367 13.3898 0.72168 11.9837 0.72168 10.4956C0.72168 5.17139 5.05808 0.84375 10.393 0.84375Z" fill="#FBCE37"/>
<path fill-rule="evenodd" clip-rule="evenodd" d="M10.393 2.62891C14.7568 2.62891 18.2861 6.15109 18.2861 10.4924C18.2861 14.8473 14.7568 18.3695 10.393 18.3695C6.04299 18.3695 2.51367 14.8473 2.51367 10.4924C2.51379 6.15098 6.04299 2.62891 10.393 2.62891Z" fill="#FBEE3D"/>
<path fill-rule="evenodd" clip-rule="evenodd" d="M10.3926 3.39453C14.3322 3.39453 17.5059 6.57542 17.5059 10.4935C17.5059 14.4251 14.3322 17.5924 10.3926 17.5924C6.46662 17.5924 3.2793 14.4251 3.2793 10.4935C3.2793 6.57542 6.46662 3.39453 10.3926 3.39453Z" fill="#FBBA2D"/>
<path fill-rule="evenodd" clip-rule="evenodd" d="M14.8116 4.94141C16.4531 6.23829 17.5065 8.24515 17.5065 10.4977C17.5065 14.4294 14.3329 17.5967 10.3932 17.5967C8.60118 17.5967 6.95969 16.9413 5.71484 15.8493C17.7801 15.5352 15.0715 5.80141 14.8116 4.94141Z" fill="#FBCE37"/>
<path fill-rule="evenodd" clip-rule="evenodd" d="M10.392 2.76172C14.6736 2.76172 18.1483 6.22924 18.1483 10.4887C18.1483 14.7617 14.6738 18.2293 10.392 18.2293C6.12407 18.2293 2.64941 14.7618 2.64941 10.4887C2.64953 6.22924 6.12407 2.76172 10.392 2.76172ZM10.4878 3.47159C14.5506 3.47159 17.8336 6.76169 17.8336 10.8026C17.8336 14.8571 14.5505 18.1336 10.4878 18.1336C6.43872 18.1336 3.15562 14.8571 3.15562 10.8026C3.15562 6.76169 6.43872 3.47159 10.4878 3.47159Z" fill="#DC9D3B"/>
<path fill-rule="evenodd" clip-rule="evenodd" d="M7.95855 15.1751H9.03918H9.21706V15.9122H10.1882V15.1751H10.8722V15.9122H11.8434V15.134C13.7996 14.902 14.1825 13.6051 14.1825 12.6357C14.1825 10.7655 13.1702 10.4651 12.4863 10.3695V10.3422C13.3618 10.1785 13.9227 9.34563 13.9227 8.28082C13.9227 6.92927 13.1156 6.19213 11.8434 6.04188V5.27734H10.8722V6.01449H10.1882V5.27734H9.21706V6.01449H9.03918H7.95855H6.87793V7.61175H7.95855V13.5912H6.87793V15.1748H7.95855V15.1751ZM10.1199 7.61198H10.7218C11.5015 7.61198 11.7614 8.11705 11.7614 8.59496C11.7614 9.25028 11.4604 9.6734 10.7081 9.6734H10.1199V7.61198ZM10.1199 11.1069H10.8176C11.4879 11.1069 11.9393 11.4891 11.9393 12.3901C11.9393 13.0318 11.6521 13.5916 10.7766 13.5916H10.1199V11.1069Z" fill="#FBBA2D"/>
<path fill-rule="evenodd" clip-rule="evenodd" d="M7.62945 14.8469H8.71008H8.88796V15.5841H9.85915V14.8469H10.5431V15.5841H11.5143V14.8059C13.4705 14.5738 13.8534 13.2769 13.8534 12.3076C13.8534 10.4374 12.8411 10.137 12.1572 10.0414V10.0141C13.0327 9.85034 13.5936 9.0175 13.5936 7.9527C13.5936 6.60115 12.7865 5.864 11.5143 5.71376V4.94922H10.5431V5.68636H9.85915V4.94922H8.88796V5.68636H8.71008H7.62945H6.54883V7.28363H7.62945V13.2631H6.54883V14.8467H7.62945V14.8469ZM9.79082 7.28374H10.3927C11.1724 7.28374 11.4323 7.78881 11.4323 8.26672C11.4323 8.92204 11.1313 9.34516 10.379 9.34516H9.79082V7.28374ZM9.79082 10.7787H10.4885C11.1588 10.7787 11.6102 11.1609 11.6102 12.0619C11.6102 12.7036 11.3229 13.2633 10.4475 13.2633H9.79082V10.7787Z" fill="#FBEE3D"/>
</svg>
