<svg width="27" height="28" viewBox="0 0 27 28" fill="none" xmlns="http://www.w3.org/2000/svg">
<g id="Group">
<path id="Vector" fill-rule="evenodd" clip-rule="evenodd" d="M13.4908 0.582031C20.9549 0.582031 27 6.61481 27 14.0456C27 21.4946 20.955 27.5275 13.4908 27.5275C6.04514 27.5275 0 21.4947 0 14.0456C0.000156028 6.61481 6.04514 0.582031 13.4908 0.582031Z" fill="#FBEC27"/>
<path id="Vector_2" fill-rule="evenodd" clip-rule="evenodd" d="M13.491 1.04297C20.6971 1.04297 26.5394 6.87348 26.5394 14.0467C26.5394 21.2383 20.6971 27.0688 13.491 27.0688C6.30325 27.0688 0.460938 21.2383 0.460938 14.0467C0.461094 6.87348 6.3034 1.04297 13.491 1.04297Z" fill="#FBBA2D"/>
<path id="Vector_3" fill-rule="evenodd" clip-rule="evenodd" d="M13.4908 1.04297C16.0526 1.04297 18.4116 1.77871 20.4205 3.0294C16.3106 2.71672 9.04918 3.63636 3.0226 12.2442C1.54814 14.3594 1.23484 16.8975 1.73256 19.638C0.921688 17.9459 0.460938 16.0515 0.460938 14.0467C0.460938 6.87347 6.30325 1.04297 13.4908 1.04297Z" fill="#FBCE37"/>
<path id="Vector_4" fill-rule="evenodd" clip-rule="evenodd" d="M13.4907 3.44922C19.3698 3.44922 24.1247 8.19456 24.1247 14.0434C24.1247 19.9107 19.3698 24.656 13.4907 24.656C7.62995 24.656 2.875 19.9107 2.875 14.0434C2.87516 8.19441 7.62995 3.44922 13.4907 3.44922Z" fill="#FBEE3D"/>
<path id="Vector_5" fill-rule="evenodd" clip-rule="evenodd" d="M13.4898 4.48047C18.7976 4.48047 23.0733 8.76599 23.0733 14.0447C23.0733 19.3417 18.7976 23.6088 13.4898 23.6088C8.20045 23.6088 3.90625 19.3417 3.90625 14.0447C3.90625 8.76599 8.20045 4.48047 13.4898 4.48047Z" fill="#FBBA2D"/>
<path id="Vector_6" fill-rule="evenodd" clip-rule="evenodd" d="M19.4433 6.5625C21.6549 8.30975 23.0741 11.0135 23.0741 14.0484C23.0741 19.3454 18.7983 23.6126 13.4906 23.6126C11.0762 23.6126 8.86464 22.7297 7.1875 21.2584C23.4426 20.8353 19.7935 7.72116 19.4433 6.5625Z" fill="#FBCE37"/>
<path id="Vector_7" fill-rule="evenodd" clip-rule="evenodd" d="M13.49 3.63281C19.2585 3.63281 23.9398 8.30451 23.9398 14.0431C23.9398 19.8 19.2587 24.4718 13.49 24.4718C7.7399 24.4718 3.05859 19.8001 3.05859 14.0431C3.05875 8.30451 7.7399 3.63281 13.49 3.63281ZM13.619 4.5892C19.0928 4.5892 23.5159 9.02187 23.5159 14.4661C23.5159 19.9286 19.0926 24.3429 13.619 24.3429C8.16383 24.3429 3.74059 19.9286 3.74059 14.4661C3.74059 9.02187 8.16383 4.5892 13.619 4.5892Z" fill="#DC9D3B"/>
<path id="Vector_8" fill-rule="evenodd" clip-rule="evenodd" d="M10.2098 20.3545H11.6657H11.9054V21.3476H13.2138V20.3545H14.1353V21.3476H15.4438V20.2992C18.0792 19.9865 18.5952 18.2393 18.5952 16.9333C18.5952 14.4136 17.2314 14.0089 16.3099 13.8801V13.8433C17.4894 13.6227 18.2451 12.5006 18.2451 11.066C18.2451 9.24513 17.1577 8.252 15.4438 8.04957V7.01953H14.1353V8.01267H13.2138V7.01953H11.9054V8.01267H11.6657H10.2098H8.75391V10.1646H10.2098V18.2206H8.75391V20.3541H10.2098V20.3545ZM13.1218 10.1649H13.9326C14.9832 10.1649 15.3333 10.8454 15.3333 11.4893C15.3333 12.3722 14.9278 12.9422 13.9142 12.9422H13.1218V10.1649ZM13.1218 14.8735H14.0617C14.9648 14.8735 15.5729 15.3885 15.5729 16.6024C15.5729 17.4669 15.186 18.221 14.0064 18.221H13.1218V14.8735Z" fill="#FBBA2D"/>
<path id="Vector_9" fill-rule="evenodd" clip-rule="evenodd" d="M9.7684 19.913H11.2243H11.464V20.9062H12.7724V19.913H13.6939V20.9062H15.0024V19.8578C17.6378 19.5451 18.1538 17.7978 18.1538 16.4919C18.1538 13.9721 16.79 13.5674 15.8685 13.4387V13.4019C17.048 13.1813 17.8037 12.0592 17.8037 10.6246C17.8037 8.80373 16.7163 7.81059 15.0024 7.60816V6.57812H13.6939V7.57126H12.7724V6.57812H11.464V7.57126H11.2243H9.7684H8.3125V9.72321H9.7684V17.7792H8.3125V19.9127H9.7684V19.913ZM12.6803 9.72337H13.4912C14.5418 9.72337 14.8919 10.4038 14.8919 11.0477C14.8919 11.9306 14.4864 12.5007 13.4728 12.5007H12.6803V9.72337ZM12.6803 14.432H13.6203C14.5233 14.432 15.1315 14.9469 15.1315 16.1608C15.1315 17.0254 14.7444 17.7795 13.565 17.7795H12.6803V14.432Z" fill="#FBEE3D"/>
</g>
</svg>
