<svg width="46" height="46" viewBox="0 0 46 46" fill="none" xmlns="http://www.w3.org/2000/svg">
<g filter="url(#filter0_f_4022_6311)">
<path d="M17.1923 27.8971H17.8332C18.2244 27.8971 18.2244 27.8971 18.4658 27.8971H34.6708C35.4198 27.8971 36.0274 27.3149 36.0607 26.5769L38 14.0061V13.8913C38 13.1287 37.3758 12.5137 36.6017 12.5055H13.9963L12.6313 8.00362H8.86928C8.43648 7.96262 8.05362 8.27423 8.00368 8.70063C7.96206 9.12704 8.27834 9.51245 8.71114 9.55345C8.76108 9.56165 8.81934 9.56165 8.86928 9.55345H11.4577L16.5848 26.4129C14.7204 26.7245 13.4636 28.4711 13.7799 30.308C14.0213 31.702 15.1116 32.8008 16.5182 33.0632C16.1852 33.5716 16.0021 34.1538 16.0021 34.7606C15.9772 36.5237 17.4171 37.9751 19.2065 37.9997C20.996 38.0243 22.4692 36.6057 22.4941 34.8426C22.5025 34.2358 22.336 33.6454 22.0114 33.1288H30.9337C30.0182 34.6376 30.5176 36.5893 32.049 37.4913C33.5805 38.3933 35.5613 37.9013 36.4769 36.3925C37.3924 34.8836 36.893 32.932 35.3616 32.03C34.8622 31.7348 34.2796 31.579 33.697 31.579H17.1923C16.1603 31.579 15.328 30.759 15.328 29.7422C15.328 28.7253 16.1686 27.8971 17.1923 27.8971ZM36.3853 14.0553L34.4877 26.3555H18.2078L14.4707 14.0553H36.3853ZM20.9044 34.7606C20.9044 35.6626 20.1554 36.4007 19.2398 36.4007C18.3243 36.4007 17.5752 35.6626 17.5752 34.7606C17.5752 33.8586 18.3243 33.1206 19.2398 33.1206C20.1554 33.1206 20.9044 33.8586 20.9044 34.7606ZM35.3616 34.7606C35.3616 35.6626 34.6125 36.4007 33.697 36.4007C32.7814 36.4007 32.0324 35.6626 32.0324 34.7606C32.0324 33.8586 32.7814 33.1206 33.697 33.1206C34.6208 33.1206 35.3616 33.8586 35.3616 34.7606Z" fill="#2169B4"/>
<path d="M17.1923 27.8971H17.8332C18.2244 27.8971 18.2244 27.8971 18.4658 27.8971H34.6708C35.4198 27.8971 36.0274 27.3149 36.0607 26.5769L38 14.0061V13.8913C38 13.1287 37.3758 12.5137 36.6017 12.5055H13.9963L12.6313 8.00362H8.86928C8.43648 7.96262 8.05362 8.27423 8.00368 8.70063C7.96206 9.12704 8.27834 9.51245 8.71114 9.55345C8.76108 9.56165 8.81934 9.56165 8.86928 9.55345H11.4577L16.5848 26.4129C14.7204 26.7245 13.4636 28.4711 13.7799 30.308C14.0213 31.702 15.1116 32.8008 16.5182 33.0632C16.1852 33.5716 16.0021 34.1538 16.0021 34.7606C15.9772 36.5237 17.4171 37.9751 19.2065 37.9997C20.996 38.0243 22.4692 36.6057 22.4941 34.8426C22.5025 34.2358 22.336 33.6454 22.0114 33.1288H30.9337C30.0182 34.6376 30.5176 36.5893 32.049 37.4913C33.5805 38.3933 35.5613 37.9013 36.4769 36.3925C37.3924 34.8836 36.893 32.932 35.3616 32.03C34.8622 31.7348 34.2796 31.579 33.697 31.579H17.1923C16.1603 31.579 15.328 30.759 15.328 29.7422C15.328 28.7253 16.1686 27.8971 17.1923 27.8971ZM36.3853 14.0553L34.4877 26.3555H18.2078L14.4707 14.0553H36.3853ZM20.9044 34.7606C20.9044 35.6626 20.1554 36.4007 19.2398 36.4007C18.3243 36.4007 17.5752 35.6626 17.5752 34.7606C17.5752 33.8586 18.3243 33.1206 19.2398 33.1206C20.1554 33.1206 20.9044 33.8586 20.9044 34.7606ZM35.3616 34.7606C35.3616 35.6626 34.6125 36.4007 33.697 36.4007C32.7814 36.4007 32.0324 35.6626 32.0324 34.7606C32.0324 33.8586 32.7814 33.1206 33.697 33.1206C34.6208 33.1206 35.3616 33.8586 35.3616 34.7606Z" stroke="#2169B4" stroke-width="0.5"/>
</g>
<g filter="url(#filter1_f_4022_6311)">
<path d="M17.1923 27.8971H17.8332C18.2244 27.8971 18.2244 27.8971 18.4658 27.8971H34.6708C35.4198 27.8971 36.0274 27.3149 36.0607 26.5769L38 14.0061V13.8913C38 13.1287 37.3758 12.5137 36.6017 12.5055H13.9963L12.6313 8.00362H8.86928C8.43648 7.96262 8.05362 8.27423 8.00368 8.70063C7.96206 9.12704 8.27834 9.51245 8.71114 9.55345C8.76108 9.56165 8.81934 9.56165 8.86928 9.55345H11.4577L16.5848 26.4129C14.7204 26.7245 13.4636 28.4711 13.7799 30.308C14.0213 31.702 15.1116 32.8008 16.5182 33.0632C16.1852 33.5716 16.0021 34.1538 16.0021 34.7606C15.9772 36.5237 17.4171 37.9751 19.2065 37.9997C20.996 38.0243 22.4692 36.6057 22.4941 34.8426C22.5025 34.2358 22.336 33.6454 22.0114 33.1288H30.9337C30.0182 34.6376 30.5176 36.5893 32.049 37.4913C33.5805 38.3933 35.5613 37.9013 36.4769 36.3925C37.3924 34.8836 36.893 32.932 35.3616 32.03C34.8622 31.7348 34.2796 31.579 33.697 31.579H17.1923C16.1603 31.579 15.328 30.759 15.328 29.7422C15.328 28.7253 16.1686 27.8971 17.1923 27.8971ZM36.3853 14.0553L34.4877 26.3555H18.2078L14.4707 14.0553H36.3853ZM20.9044 34.7606C20.9044 35.6626 20.1554 36.4007 19.2398 36.4007C18.3243 36.4007 17.5752 35.6626 17.5752 34.7606C17.5752 33.8586 18.3243 33.1206 19.2398 33.1206C20.1554 33.1206 20.9044 33.8586 20.9044 34.7606ZM35.3616 34.7606C35.3616 35.6626 34.6125 36.4007 33.697 36.4007C32.7814 36.4007 32.0324 35.6626 32.0324 34.7606C32.0324 33.8586 32.7814 33.1206 33.697 33.1206C34.6208 33.1206 35.3616 33.8586 35.3616 34.7606Z" fill="#2169B4"/>
<path d="M17.1923 27.8971H17.8332C18.2244 27.8971 18.2244 27.8971 18.4658 27.8971H34.6708C35.4198 27.8971 36.0274 27.3149 36.0607 26.5769L38 14.0061V13.8913C38 13.1287 37.3758 12.5137 36.6017 12.5055H13.9963L12.6313 8.00362H8.86928C8.43648 7.96262 8.05362 8.27423 8.00368 8.70063C7.96206 9.12704 8.27834 9.51245 8.71114 9.55345C8.76108 9.56165 8.81934 9.56165 8.86928 9.55345H11.4577L16.5848 26.4129C14.7204 26.7245 13.4636 28.4711 13.7799 30.308C14.0213 31.702 15.1116 32.8008 16.5182 33.0632C16.1852 33.5716 16.0021 34.1538 16.0021 34.7606C15.9772 36.5237 17.4171 37.9751 19.2065 37.9997C20.996 38.0243 22.4692 36.6057 22.4941 34.8426C22.5025 34.2358 22.336 33.6454 22.0114 33.1288H30.9337C30.0182 34.6376 30.5176 36.5893 32.049 37.4913C33.5805 38.3933 35.5613 37.9013 36.4769 36.3925C37.3924 34.8836 36.893 32.932 35.3616 32.03C34.8622 31.7348 34.2796 31.579 33.697 31.579H17.1923C16.1603 31.579 15.328 30.759 15.328 29.7422C15.328 28.7253 16.1686 27.8971 17.1923 27.8971ZM36.3853 14.0553L34.4877 26.3555H18.2078L14.4707 14.0553H36.3853ZM20.9044 34.7606C20.9044 35.6626 20.1554 36.4007 19.2398 36.4007C18.3243 36.4007 17.5752 35.6626 17.5752 34.7606C17.5752 33.8586 18.3243 33.1206 19.2398 33.1206C20.1554 33.1206 20.9044 33.8586 20.9044 34.7606ZM35.3616 34.7606C35.3616 35.6626 34.6125 36.4007 33.697 36.4007C32.7814 36.4007 32.0324 35.6626 32.0324 34.7606C32.0324 33.8586 32.7814 33.1206 33.697 33.1206C34.6208 33.1206 35.3616 33.8586 35.3616 34.7606Z" stroke="#2169B4" stroke-width="0.5"/>
</g>
<g filter="url(#filter2_f_4022_6311)">
<path d="M21.3762 26.9694H21.769C22.0088 26.9694 22.0088 26.9694 22.1567 26.9694H32.0888C32.5479 26.9694 32.9203 26.6126 32.9407 26.1603L34.1293 18.4556V18.3852C34.1293 17.9178 33.7467 17.5409 33.2723 17.5358H19.4173L18.5807 14.7766H16.275C16.0097 14.7515 15.775 14.9425 15.7444 15.2038C15.7189 15.4652 15.9128 15.7014 16.178 15.7265C16.2087 15.7316 16.2444 15.7316 16.275 15.7265H17.8615L21.0038 26.0597C19.8611 26.2507 19.0909 27.3212 19.2847 28.447C19.4326 29.3014 20.1009 29.9749 20.963 30.1357C20.759 30.4473 20.6467 30.8042 20.6467 31.1761C20.6314 32.2567 21.5139 33.1462 22.6107 33.1613C23.7075 33.1764 24.6104 32.3069 24.6257 31.2264C24.6308 30.8544 24.5288 30.4926 24.3298 30.1759H29.7983C29.2372 31.1007 29.5433 32.2969 30.4819 32.8497C31.4205 33.4026 32.6346 33.101 33.1958 32.1762C33.7569 31.2515 33.4508 30.0553 32.5122 29.5025C32.2061 29.3215 31.849 29.226 31.4919 29.226H21.3762C20.7436 29.226 20.2335 28.7235 20.2335 28.1003C20.2335 27.477 20.7488 26.9694 21.3762 26.9694ZM33.1396 18.4857L31.9766 26.0246H21.9986L19.7081 18.4857H33.1396ZM23.6514 31.1761C23.6514 31.7289 23.1922 32.1813 22.6311 32.1813C22.07 32.1813 21.6109 31.7289 21.6109 31.1761C21.6109 30.6232 22.07 30.1709 22.6311 30.1709C23.1922 30.1709 23.6514 30.6232 23.6514 31.1761ZM32.5122 31.1761C32.5122 31.7289 32.0531 32.1813 31.4919 32.1813C30.9308 32.1813 30.4717 31.7289 30.4717 31.1761C30.4717 30.6232 30.9308 30.1709 31.4919 30.1709C32.0582 30.1709 32.5122 30.6232 32.5122 31.1761Z" fill="#2169B4"/>
<path d="M21.3762 26.9694H21.769C22.0088 26.9694 22.0088 26.9694 22.1567 26.9694H32.0888C32.5479 26.9694 32.9203 26.6126 32.9407 26.1603L34.1293 18.4556V18.3852C34.1293 17.9178 33.7467 17.5409 33.2723 17.5358H19.4173L18.5807 14.7766H16.275C16.0097 14.7515 15.775 14.9425 15.7444 15.2038C15.7189 15.4652 15.9128 15.7014 16.178 15.7265C16.2087 15.7316 16.2444 15.7316 16.275 15.7265H17.8615L21.0038 26.0597C19.8611 26.2507 19.0909 27.3212 19.2847 28.447C19.4326 29.3014 20.1009 29.9749 20.963 30.1357C20.759 30.4473 20.6467 30.8042 20.6467 31.1761C20.6314 32.2567 21.5139 33.1462 22.6107 33.1613C23.7075 33.1764 24.6104 32.3069 24.6257 31.2264C24.6308 30.8544 24.5288 30.4926 24.3298 30.1759H29.7983C29.2372 31.1007 29.5433 32.2969 30.4819 32.8497C31.4205 33.4026 32.6346 33.101 33.1958 32.1762C33.7569 31.2515 33.4508 30.0553 32.5122 29.5025C32.2061 29.3215 31.849 29.226 31.4919 29.226H21.3762C20.7436 29.226 20.2335 28.7235 20.2335 28.1003C20.2335 27.477 20.7488 26.9694 21.3762 26.9694ZM33.1396 18.4857L31.9766 26.0246H21.9986L19.7081 18.4857H33.1396ZM23.6514 31.1761C23.6514 31.7289 23.1922 32.1813 22.6311 32.1813C22.07 32.1813 21.6109 31.7289 21.6109 31.1761C21.6109 30.6232 22.07 30.1709 22.6311 30.1709C23.1922 30.1709 23.6514 30.6232 23.6514 31.1761ZM32.5122 31.1761C32.5122 31.7289 32.0531 32.1813 31.4919 32.1813C30.9308 32.1813 30.4717 31.7289 30.4717 31.1761C30.4717 30.6232 30.9308 30.1709 31.4919 30.1709C32.0582 30.1709 32.5122 30.6232 32.5122 31.1761Z" stroke="#2169B4" stroke-width="0.5"/>
</g>
<g filter="url(#filter3_f_4022_6311)">
<path d="M21.3762 26.9694H21.769C22.0088 26.9694 22.0088 26.9694 22.1567 26.9694H32.0888C32.5479 26.9694 32.9203 26.6126 32.9407 26.1603L34.1293 18.4556V18.3852C34.1293 17.9178 33.7467 17.5409 33.2723 17.5358H19.4173L18.5807 14.7766H16.275C16.0097 14.7515 15.775 14.9425 15.7444 15.2038C15.7189 15.4652 15.9128 15.7014 16.178 15.7265C16.2087 15.7316 16.2444 15.7316 16.275 15.7265H17.8615L21.0038 26.0597C19.8611 26.2507 19.0909 27.3212 19.2847 28.447C19.4326 29.3014 20.1009 29.9749 20.963 30.1357C20.759 30.4473 20.6467 30.8042 20.6467 31.1761C20.6314 32.2567 21.5139 33.1462 22.6107 33.1613C23.7075 33.1764 24.6104 32.3069 24.6257 31.2264C24.6308 30.8544 24.5288 30.4926 24.3298 30.1759H29.7983C29.2372 31.1007 29.5433 32.2969 30.4819 32.8497C31.4205 33.4026 32.6346 33.101 33.1958 32.1762C33.7569 31.2515 33.4508 30.0553 32.5122 29.5025C32.2061 29.3215 31.849 29.226 31.4919 29.226H21.3762C20.7436 29.226 20.2335 28.7235 20.2335 28.1003C20.2335 27.477 20.7488 26.9694 21.3762 26.9694ZM33.1396 18.4857L31.9766 26.0246H21.9986L19.7081 18.4857H33.1396ZM23.6514 31.1761C23.6514 31.7289 23.1922 32.1813 22.6311 32.1813C22.07 32.1813 21.6109 31.7289 21.6109 31.1761C21.6109 30.6232 22.07 30.1709 22.6311 30.1709C23.1922 30.1709 23.6514 30.6232 23.6514 31.1761ZM32.5122 31.1761C32.5122 31.7289 32.0531 32.1813 31.4919 32.1813C30.9308 32.1813 30.4717 31.7289 30.4717 31.1761C30.4717 30.6232 30.9308 30.1709 31.4919 30.1709C32.0582 30.1709 32.5122 30.6232 32.5122 31.1761Z" fill="#2169B4"/>
<path d="M21.3762 26.9694H21.769C22.0088 26.9694 22.0088 26.9694 22.1567 26.9694H32.0888C32.5479 26.9694 32.9203 26.6126 32.9407 26.1603L34.1293 18.4556V18.3852C34.1293 17.9178 33.7467 17.5409 33.2723 17.5358H19.4173L18.5807 14.7766H16.275C16.0097 14.7515 15.775 14.9425 15.7444 15.2038C15.7189 15.4652 15.9128 15.7014 16.178 15.7265C16.2087 15.7316 16.2444 15.7316 16.275 15.7265H17.8615L21.0038 26.0597C19.8611 26.2507 19.0909 27.3212 19.2847 28.447C19.4326 29.3014 20.1009 29.9749 20.963 30.1357C20.759 30.4473 20.6467 30.8042 20.6467 31.1761C20.6314 32.2567 21.5139 33.1462 22.6107 33.1613C23.7075 33.1764 24.6104 32.3069 24.6257 31.2264C24.6308 30.8544 24.5288 30.4926 24.3298 30.1759H29.7983C29.2372 31.1007 29.5433 32.2969 30.4819 32.8497C31.4205 33.4026 32.6346 33.101 33.1958 32.1762C33.7569 31.2515 33.4508 30.0553 32.5122 29.5025C32.2061 29.3215 31.849 29.226 31.4919 29.226H21.3762C20.7436 29.226 20.2335 28.7235 20.2335 28.1003C20.2335 27.477 20.7488 26.9694 21.3762 26.9694ZM33.1396 18.4857L31.9766 26.0246H21.9986L19.7081 18.4857H33.1396ZM23.6514 31.1761C23.6514 31.7289 23.1922 32.1813 22.6311 32.1813C22.07 32.1813 21.6109 31.7289 21.6109 31.1761C21.6109 30.6232 22.07 30.1709 22.6311 30.1709C23.1922 30.1709 23.6514 30.6232 23.6514 31.1761ZM32.5122 31.1761C32.5122 31.7289 32.0531 32.1813 31.4919 32.1813C30.9308 32.1813 30.4717 31.7289 30.4717 31.1761C30.4717 30.6232 30.9308 30.1709 31.4919 30.1709C32.0582 30.1709 32.5122 30.6232 32.5122 31.1761Z" stroke="#2169B4" stroke-width="0.5"/>
</g>
<path d="M19.2843 26.9494H19.8011C20.1166 26.9494 20.1166 26.9494 20.3112 26.9494H33.3798C33.9839 26.9494 34.4739 26.4799 34.5007 25.8847L36.0646 15.747V15.6544C36.0646 15.0394 35.5612 14.5434 34.937 14.5368H16.7068L15.606 10.9062H12.5721C12.2231 10.8732 11.9143 11.1245 11.8741 11.4683C11.8405 11.8122 12.0956 12.123 12.4446 12.1561C12.4849 12.1627 12.5319 12.1627 12.5721 12.1561H14.6596L18.7943 25.7524C17.2908 26.0037 16.2772 27.4123 16.5323 28.8936C16.7269 30.0178 17.6062 30.904 18.7406 31.1156C18.4721 31.5256 18.3244 31.9951 18.3244 32.4845C18.3043 33.9063 19.4655 35.0768 20.9086 35.0966C22.3517 35.1165 23.5398 33.9724 23.5599 32.5506C23.5666 32.0612 23.4324 31.5851 23.1706 31.1685H30.366C29.6277 32.3853 30.0304 33.9592 31.2655 34.6866C32.5005 35.414 34.098 35.0173 34.8363 33.8005C35.5747 32.5837 35.1719 31.0098 33.9369 30.2823C33.5342 30.0443 33.0643 29.9186 32.5945 29.9186H19.2843C18.452 29.9186 17.7807 29.2573 17.7807 28.4373C17.7807 27.6173 18.4587 26.9494 19.2843 26.9494ZM34.7625 15.7866L33.2321 25.7061H20.1032L17.0894 15.7866H34.7625ZM22.2779 32.4845C22.2779 33.2119 21.6738 33.8071 20.9355 33.8071C20.1971 33.8071 19.593 33.2119 19.593 32.4845C19.593 31.757 20.1971 31.1619 20.9355 31.1619C21.6738 31.1619 22.2779 31.757 22.2779 32.4845ZM33.9369 32.4845C33.9369 33.2119 33.3328 33.8071 32.5945 33.8071C31.8561 33.8071 31.252 33.2119 31.252 32.4845C31.252 31.757 31.8561 31.1619 32.5945 31.1619C33.3395 31.1619 33.9369 31.757 33.9369 32.4845Z" fill="#FAFAFA" stroke="#2169B4" stroke-width="0.3"/>
<path d="M19.2843 26.9494H19.8011C20.1166 26.9494 20.1166 26.9494 20.3112 26.9494H33.3798C33.9839 26.9494 34.4739 26.4799 34.5007 25.8847L36.0646 15.747V15.6544C36.0646 15.0394 35.5612 14.5434 34.937 14.5368H16.7068L15.606 10.9062H12.5721C12.2231 10.8732 11.9143 11.1245 11.8741 11.4683C11.8405 11.8122 12.0956 12.123 12.4446 12.1561C12.4849 12.1627 12.5319 12.1627 12.5721 12.1561H14.6596L18.7943 25.7524C17.2908 26.0037 16.2772 27.4123 16.5323 28.8936C16.7269 30.0178 17.6062 30.904 18.7406 31.1156C18.4721 31.5256 18.3244 31.9951 18.3244 32.4845C18.3043 33.9063 19.4655 35.0768 20.9086 35.0966C22.3517 35.1165 23.5398 33.9724 23.5599 32.5506C23.5666 32.0612 23.4324 31.5851 23.1706 31.1685H30.366C29.6277 32.3853 30.0304 33.9592 31.2655 34.6866C32.5005 35.414 34.098 35.0173 34.8363 33.8005C35.5747 32.5837 35.1719 31.0098 33.9369 30.2823C33.5342 30.0443 33.0643 29.9186 32.5945 29.9186H19.2843C18.452 29.9186 17.7807 29.2573 17.7807 28.4373C17.7807 27.6173 18.4587 26.9494 19.2843 26.9494ZM34.7625 15.7866L33.2321 25.7061H20.1032L17.0894 15.7866H34.7625ZM22.2779 32.4845C22.2779 33.2119 21.6738 33.8071 20.9355 33.8071C20.1971 33.8071 19.593 33.2119 19.593 32.4845C19.593 31.757 20.1971 31.1619 20.9355 31.1619C21.6738 31.1619 22.2779 31.757 22.2779 32.4845ZM33.9369 32.4845C33.9369 33.2119 33.3328 33.8071 32.5945 33.8071C31.8561 33.8071 31.252 33.2119 31.252 32.4845C31.252 31.757 31.8561 31.1619 32.5945 31.1619C33.3395 31.1619 33.9369 31.757 33.9369 32.4845Z" fill="#D0ECFA" stroke="#2169B4" stroke-width="0.3"/>
<defs>
<filter id="filter0_f_4022_6311" x="0.35" y="0.35" width="45.3" height="45.3" filterUnits="userSpaceOnUse" color-interpolation-filters="sRGB">
<feFlood flood-opacity="0" result="BackgroundImageFix"/>
<feBlend mode="normal" in="SourceGraphic" in2="BackgroundImageFix" result="shape"/>
<feGaussianBlur stdDeviation="3.7" result="effect1_foregroundBlur_4022_6311"/>
</filter>
<filter id="filter1_f_4022_6311" x="0.35" y="0.35" width="45.3" height="45.3" filterUnits="userSpaceOnUse" color-interpolation-filters="sRGB">
<feFlood flood-opacity="0" result="BackgroundImageFix"/>
<feBlend mode="normal" in="SourceGraphic" in2="BackgroundImageFix" result="shape"/>
<feGaussianBlur stdDeviation="3.7" result="effect1_foregroundBlur_4022_6311"/>
</filter>
<filter id="filter2_f_4022_6311" x="8.09219" y="7.12441" width="33.6867" height="33.6867" filterUnits="userSpaceOnUse" color-interpolation-filters="sRGB">
<feFlood flood-opacity="0" result="BackgroundImageFix"/>
<feBlend mode="normal" in="SourceGraphic" in2="BackgroundImageFix" result="shape"/>
<feGaussianBlur stdDeviation="3.7" result="effect1_foregroundBlur_4022_6311"/>
</filter>
<filter id="filter3_f_4022_6311" x="8.09219" y="7.12441" width="33.6867" height="33.6867" filterUnits="userSpaceOnUse" color-interpolation-filters="sRGB">
<feFlood flood-opacity="0" result="BackgroundImageFix"/>
<feBlend mode="normal" in="SourceGraphic" in2="BackgroundImageFix" result="shape"/>
<feGaussianBlur stdDeviation="3.7" result="effect1_foregroundBlur_4022_6311"/>
</filter>
</defs>
</svg>
