<svg width="116" height="34" viewBox="0 0 116 34" fill="none" xmlns="http://www.w3.org/2000/svg">
<path d="M1.316 22V12.2H5.6C6.664 12.2 7.59733 12.4053 8.4 12.816C9.20267 13.2267 9.828 13.796 10.276 14.524C10.724 15.252 10.948 16.1107 10.948 17.1C10.948 18.08 10.724 18.9387 10.276 19.676C9.828 20.404 9.20267 20.9733 8.4 21.384C7.59733 21.7947 6.664 22 5.6 22H1.316ZM3.136 20.46H5.516C6.25333 20.46 6.888 20.32 7.42 20.04C7.96133 19.76 8.37667 19.368 8.666 18.864C8.96467 18.36 9.114 17.772 9.114 17.1C9.114 16.4187 8.96467 15.8307 8.666 15.336C8.37667 14.832 7.96133 14.44 7.42 14.16C6.888 13.88 6.25333 13.74 5.516 13.74H3.136V20.46ZM17.3204 22V20.488L17.2224 20.166V17.52C17.2224 17.0067 17.0684 16.61 16.7604 16.33C16.4524 16.0407 15.9857 15.896 15.3604 15.896C14.9404 15.896 14.5251 15.9613 14.1144 16.092C13.7131 16.2227 13.3724 16.4047 13.0924 16.638L12.4064 15.364C12.8077 15.056 13.2837 14.8273 13.8344 14.678C14.3944 14.5193 14.9731 14.44 15.5704 14.44C16.6531 14.44 17.4884 14.7013 18.0764 15.224C18.6737 15.7373 18.9724 16.5353 18.9724 17.618V22H17.3204ZM14.9684 22.098C14.4084 22.098 13.9184 22.0047 13.4984 21.818C13.0784 21.622 12.7517 21.356 12.5184 21.02C12.2944 20.6747 12.1824 20.2873 12.1824 19.858C12.1824 19.438 12.2804 19.06 12.4764 18.724C12.6817 18.388 13.0131 18.122 13.4704 17.926C13.9277 17.73 14.5344 17.632 15.2904 17.632H17.4604V18.794H15.4164C14.8191 18.794 14.4177 18.892 14.2124 19.088C14.0071 19.2747 13.9044 19.508 13.9044 19.788C13.9044 20.1053 14.0304 20.3573 14.2824 20.544C14.5344 20.7307 14.8844 20.824 15.3324 20.824C15.7617 20.824 16.1444 20.726 16.4804 20.53C16.8257 20.334 17.0731 20.0447 17.2224 19.662L17.5164 20.712C17.3484 21.1507 17.0451 21.4913 16.6064 21.734C16.1771 21.9767 15.6311 22.098 14.9684 22.098ZM21.6976 24.814C21.3336 24.814 20.9696 24.7533 20.6056 24.632C20.2416 24.5107 19.9383 24.3427 19.6956 24.128L20.3956 22.84C20.5729 22.9987 20.7736 23.1247 20.9976 23.218C21.2216 23.3113 21.4503 23.358 21.6836 23.358C22.0009 23.358 22.2576 23.2787 22.4536 23.12C22.6496 22.9613 22.8316 22.6953 22.9996 22.322L23.4336 21.342L23.5736 21.132L26.4016 14.524H28.0816L24.5816 22.602C24.3483 23.162 24.0869 23.6053 23.7976 23.932C23.5176 24.2587 23.2003 24.4873 22.8456 24.618C22.5003 24.7487 22.1176 24.814 21.6976 24.814ZM23.2376 22.266L19.8636 14.524H21.6836L24.4276 20.978L23.2376 22.266ZM33.2125 22V12.2H34.7105L38.9945 19.354H38.2105L42.4245 12.2H43.9225L43.9365 22H42.2145L42.2005 14.902H42.5645L38.9805 20.88H38.1685L34.5285 14.902H34.9485V22H33.2125ZM49.7756 22.098C49.0102 22.098 48.3289 21.9347 47.7316 21.608C47.1342 21.272 46.6629 20.8147 46.3176 20.236C45.9722 19.6573 45.7996 18.9993 45.7996 18.262C45.7996 17.5153 45.9722 16.8573 46.3176 16.288C46.6629 15.7093 47.1342 15.2567 47.7316 14.93C48.3289 14.6033 49.0102 14.44 49.7756 14.44C50.5502 14.44 51.2362 14.6033 51.8336 14.93C52.4402 15.2567 52.9116 15.7047 53.2476 16.274C53.5929 16.8433 53.7656 17.506 53.7656 18.262C53.7656 18.9993 53.5929 19.6573 53.2476 20.236C52.9116 20.8147 52.4402 21.272 51.8336 21.608C51.2362 21.9347 50.5502 22.098 49.7756 22.098ZM49.7756 20.6C50.2049 20.6 50.5876 20.5067 50.9236 20.32C51.2596 20.1333 51.5209 19.8627 51.7076 19.508C51.9036 19.1533 52.0016 18.738 52.0016 18.262C52.0016 17.7767 51.9036 17.3613 51.7076 17.016C51.5209 16.6613 51.2596 16.3907 50.9236 16.204C50.5876 16.0173 50.2096 15.924 49.7896 15.924C49.3602 15.924 48.9776 16.0173 48.6416 16.204C48.3149 16.3907 48.0536 16.6613 47.8576 17.016C47.6616 17.3613 47.5636 17.7767 47.5636 18.262C47.5636 18.738 47.6616 19.1533 47.8576 19.508C48.0536 19.8627 48.3149 20.1333 48.6416 20.32C48.9776 20.5067 49.3556 20.6 49.7756 20.6ZM58.603 22.098C57.8843 22.098 57.2357 21.9393 56.657 21.622C56.0877 21.2953 55.6397 20.8473 55.313 20.278C54.9863 19.7087 54.823 19.0367 54.823 18.262C54.823 17.4873 54.9863 16.8153 55.313 16.246C55.6397 15.6767 56.0877 15.2333 56.657 14.916C57.2357 14.5987 57.8843 14.44 58.603 14.44C59.2283 14.44 59.7883 14.58 60.283 14.86C60.7777 15.1307 61.1697 15.546 61.459 16.106C61.7483 16.666 61.893 17.3847 61.893 18.262C61.893 19.13 61.753 19.8487 61.473 20.418C61.193 20.978 60.8057 21.398 60.311 21.678C59.8163 21.958 59.247 22.098 58.603 22.098ZM58.813 20.6C59.233 20.6 59.6063 20.5067 59.933 20.32C60.269 20.1333 60.535 19.8627 60.731 19.508C60.9363 19.1533 61.039 18.738 61.039 18.262C61.039 17.7767 60.9363 17.3613 60.731 17.016C60.535 16.6613 60.269 16.3907 59.933 16.204C59.6063 16.0173 59.233 15.924 58.813 15.924C58.393 15.924 58.015 16.0173 57.679 16.204C57.3523 16.3907 57.0863 16.6613 56.881 17.016C56.685 17.3613 56.587 17.7767 56.587 18.262C56.587 18.738 56.685 19.1533 56.881 19.508C57.0863 19.8627 57.3523 20.1333 57.679 20.32C58.015 20.5067 58.393 20.6 58.813 20.6ZM61.081 22V20.236L61.151 18.248L61.011 16.26V11.612H62.747V22H61.081ZM68.5643 22.098C67.7337 22.098 67.0057 21.9347 66.3803 21.608C65.7643 21.272 65.2837 20.8147 64.9383 20.236C64.6023 19.6573 64.4343 18.9993 64.4343 18.262C64.4343 17.5153 64.5977 16.8573 64.9243 16.288C65.2603 15.7093 65.7177 15.2567 66.2963 14.93C66.8843 14.6033 67.5517 14.44 68.2983 14.44C69.0263 14.44 69.675 14.5987 70.2443 14.916C70.8137 15.2333 71.2617 15.6813 71.5883 16.26C71.915 16.8387 72.0783 17.52 72.0783 18.304C72.0783 18.3787 72.0737 18.4627 72.0643 18.556C72.0643 18.6493 72.0597 18.738 72.0503 18.822H65.8203V17.66H71.1263L70.4403 18.024C70.4497 17.5947 70.361 17.2167 70.1743 16.89C69.9877 16.5633 69.731 16.3067 69.4043 16.12C69.087 15.9333 68.7183 15.84 68.2983 15.84C67.869 15.84 67.491 15.9333 67.1643 16.12C66.847 16.3067 66.595 16.568 66.4083 16.904C66.231 17.2307 66.1423 17.618 66.1423 18.066V18.346C66.1423 18.794 66.245 19.1907 66.4503 19.536C66.6557 19.8813 66.945 20.1473 67.3183 20.334C67.6917 20.5207 68.121 20.614 68.6063 20.614C69.0263 20.614 69.4043 20.5487 69.7403 20.418C70.0763 20.2873 70.375 20.082 70.6363 19.802L71.5743 20.88C71.2383 21.272 70.8137 21.5753 70.3003 21.79C69.7963 21.9953 69.2177 22.098 68.5643 22.098Z" fill="black"/>
<g filter="url(#filter0_i_288_2332)">
<rect x="82" width="34" height="34" rx="17" fill="white"/>
</g>
<path d="M99.5484 20.8249C101.909 20.8249 103.823 18.9109 103.823 16.5499C103.823 14.1889 101.909 12.2749 99.5484 12.2749C97.1874 12.2749 95.2734 14.1889 95.2734 16.5499C95.2734 18.9109 97.1874 20.8249 99.5484 20.8249Z" stroke="black" stroke-width="1.4"/>
<path d="M99.5508 8V9.71" stroke="black" stroke-width="1.4" stroke-linecap="round"/>
<path d="M99.5508 23.3901V25.1001" stroke="black" stroke-width="1.4" stroke-linecap="round"/>
<path d="M92.71 16.5498H91" stroke="black" stroke-width="1.4" stroke-linecap="round"/>
<path d="M108.101 16.5498H106.391" stroke="black" stroke-width="1.4" stroke-linecap="round"/>
<path d="M106.201 9.90039L104.301 11.6374" stroke="black" stroke-width="1.4" stroke-linecap="round"/>
<path d="M92.8984 9.90039L94.7983 11.6374" stroke="black" stroke-width="1.4" stroke-linecap="round"/>
<path d="M94.7984 21.3003L92.8984 23.2003" stroke="black" stroke-width="1.4" stroke-linecap="round"/>
<path d="M106.201 23.1993L104.301 21.2993" stroke="black" stroke-width="1.4" stroke-linecap="round"/>
<defs>
<filter id="filter0_i_288_2332" x="82" y="0" width="34.6" height="34" filterUnits="userSpaceOnUse" color-interpolation-filters="sRGB">
<feFlood flood-opacity="0" result="BackgroundImageFix"/>
<feBlend mode="normal" in="SourceGraphic" in2="BackgroundImageFix" result="shape"/>
<feColorMatrix in="SourceAlpha" type="matrix" values="0 0 0 0 0 0 0 0 0 0 0 0 0 0 0 0 0 0 127 0" result="hardAlpha"/>
<feOffset dx="1"/>
<feGaussianBlur stdDeviation="0.3"/>
<feComposite in2="hardAlpha" operator="arithmetic" k2="-1" k3="1"/>
<feColorMatrix type="matrix" values="0 0 0 0 0 0 0 0 0 0 0 0 0 0 0 0 0 0 0.25 0"/>
<feBlend mode="normal" in2="shape" result="effect1_innerShadow_288_2332"/>
</filter>
</defs>
</svg>
