<svg width="41" height="41" viewBox="0 0 41 41" fill="none" xmlns="http://www.w3.org/2000/svg">
<circle cx="20.2402" cy="20.7441" r="20.248" fill="#E72C55"/>
<path d="M11.1362 14.0898C10.7784 14.0898 10.4883 14.3804 10.4883 14.7388C10.4883 15.0972 10.7784 15.3878 11.1362 15.3878V14.0898ZM29.2785 15.3878C29.6363 15.3878 29.9264 15.0972 29.9264 14.7388C29.9264 14.3804 29.6363 14.0898 29.2785 14.0898V15.3878ZM11.1362 15.3878H29.2785V14.0898H11.1362V15.3878Z" fill="white"/>
<path d="M16.3203 14.7444C16.3203 15.1032 16.6104 15.3941 16.9683 15.3941C17.3261 15.3941 17.6162 15.1032 17.6162 14.7444H16.3203ZM22.8 14.7444C22.8 15.1032 23.0901 15.3941 23.4479 15.3941C23.8058 15.3941 24.0959 15.1032 24.0959 14.7444H22.8ZM22.152 11.4961H18.2642V12.7954H22.152V11.4961ZM18.2642 11.4961C17.7487 11.4961 17.2542 11.7014 16.8897 12.0669L17.806 12.9857C17.9275 12.8639 18.0924 12.7954 18.2642 12.7954V11.4961ZM16.8897 12.0669C16.5251 12.4325 16.3203 12.9282 16.3203 13.4451H17.6162C17.6162 13.2728 17.6845 13.1076 17.806 12.9857L16.8897 12.0669ZM16.3203 13.4451V14.7444H17.6162V13.4451H16.3203ZM24.0959 14.7444V13.4451H22.8V14.7444H24.0959ZM24.0959 13.4451C24.0959 12.9282 23.8911 12.4325 23.5266 12.0669L22.6102 12.9857C22.7317 13.1076 22.8 13.2728 22.8 13.4451H24.0959ZM23.5266 12.0669C23.162 11.7014 22.6675 11.4961 22.152 11.4961V12.7954C22.3239 12.7954 22.4887 12.8639 22.6102 12.9857L23.5266 12.0669Z" fill="white"/>
<path d="M17.6172 25.7909C17.6172 26.1497 17.9073 26.4406 18.2652 26.4406C18.623 26.4406 18.9131 26.1497 18.9131 25.7909H17.6172ZM18.9131 19.2942C18.9131 18.9354 18.623 18.6445 18.2652 18.6445C17.9073 18.6445 17.6172 18.9354 17.6172 19.2942H18.9131ZM18.9131 25.7909V19.2942H17.6172V25.7909H18.9131Z" fill="white"/>
<path d="M21.502 25.7909C21.502 26.1497 21.7921 26.4406 22.1499 26.4406C22.5078 26.4406 22.7979 26.1497 22.7979 25.7909H21.502ZM22.7979 19.2942C22.7979 18.9354 22.5078 18.6445 22.1499 18.6445C21.7921 18.6445 21.502 18.9354 21.502 19.2942H22.7979ZM22.7979 25.7909V19.2942H21.502V25.7909H22.7979Z" fill="white"/>
<path d="M13.7254 14.6856C13.6956 14.328 13.3824 14.0623 13.0258 14.0921C12.6692 14.1219 12.4042 14.436 12.4339 14.7935L13.7254 14.6856ZM27.9806 14.7935C28.0104 14.4359 27.7454 14.1219 27.3887 14.0921C27.0321 14.0623 26.7189 14.3281 26.6892 14.6856L27.9806 14.7935ZM25.4926 29.0857C25.4791 29.2482 25.4053 29.3999 25.2856 29.5103L26.1633 30.4663C26.5222 30.1352 26.7438 29.6808 26.7841 29.1934L25.4926 29.0857ZM25.2856 29.5103C25.166 29.6207 25.0094 29.682 24.8468 29.682L24.8466 30.9813C25.3344 30.9813 25.8044 30.7976 26.1633 30.4663L25.2856 29.5103ZM24.8468 29.682H15.5687V30.9813H24.8466L24.8468 29.682ZM15.5687 29.682C15.4061 29.682 15.2494 29.6207 15.1298 29.5103L14.2521 30.4663C14.611 30.7976 15.0809 30.9813 15.5687 30.9813V29.682ZM15.1298 29.5103C15.0101 29.3999 14.9363 29.2484 14.9228 29.086L13.6313 29.1934C13.6717 29.6808 13.8933 30.1352 14.2521 30.4663L15.1298 29.5103ZM14.9228 29.086L13.7254 14.6856L12.4339 14.7935L13.6313 29.1934L14.9228 29.086ZM26.6892 14.6856L25.4926 29.0857L26.7841 29.1934L27.9806 14.7935L26.6892 14.6856Z" fill="white"/>
</svg>
