<svg width="15" height="16" viewBox="0 0 15 16" fill="none" xmlns="http://www.w3.org/2000/svg">
<path d="M0.5 2.4176C0.22386 2.4176 0 2.64145 0 2.91756C0 3.19368 0.22386 3.41752 0.5 3.41752V2.4176ZM14.5 3.41752C14.7761 3.41752 15 3.19368 15 2.91756C15 2.64145 14.7761 2.4176 14.5 2.4176V3.41752ZM0.5 3.41752H14.5V2.4176H0.5V3.41752Z" fill="white"/>
<path d="M4.50195 2.91711C4.50195 3.19302 4.72582 3.41669 5.00198 3.41669C5.27813 3.41669 5.502 3.19302 5.502 2.91711H4.50195ZM9.50218 2.91711C9.50218 3.19302 9.72606 3.41669 10.0022 3.41669C10.2783 3.41669 10.5022 3.19302 10.5022 2.91711H9.50218ZM9.00216 0.419189H6.00202V1.41836H9.00216V0.419189ZM6.00202 0.419189C5.60418 0.419189 5.22263 0.577093 4.94131 0.858163L5.64845 1.56468C5.74222 1.47099 5.86941 1.41836 6.00202 1.41836V0.419189ZM4.94131 0.858163C4.65999 1.13924 4.50195 1.52044 4.50195 1.91794H5.502C5.502 1.78544 5.55468 1.65837 5.64845 1.56468L4.94131 0.858163ZM4.50195 1.91794V2.91711H5.502V1.91794H4.50195ZM10.5022 2.91711V1.91794H9.50218V2.91711H10.5022ZM10.5022 1.91794C10.5022 1.52044 10.3442 1.13924 10.0629 0.858163L9.35571 1.56468C9.44951 1.65837 9.50218 1.78544 9.50218 1.91794H10.5022ZM10.0629 0.858163C9.78152 0.577093 9.39997 0.419189 9.00216 0.419189V1.41836C9.13476 1.41836 9.26197 1.47099 9.35571 1.56468L10.0629 0.858163Z" fill="white"/>
<path d="M5.5 11.4102C5.5 11.6861 5.72387 11.9098 6.00002 11.9098C6.27617 11.9098 6.50005 11.6861 6.50005 11.4102H5.5ZM6.50005 6.41438C6.50005 6.13847 6.27617 5.91479 6.00002 5.91479C5.72387 5.91479 5.5 6.13847 5.5 6.41438H6.50005ZM6.50005 11.4102V6.41438H5.5V11.4102H6.50005Z" fill="white"/>
<path d="M8.5 11.4102C8.5 11.6861 8.72388 11.9098 9.00002 11.9098C9.27617 11.9098 9.50005 11.6861 9.50005 11.4102H8.5ZM9.50005 6.41438C9.50005 6.13847 9.27617 5.91479 9.00002 5.91479C8.72388 5.91479 8.5 6.13847 8.5 6.41438H9.50005ZM9.50005 11.4102V6.41438H8.5V11.4102H9.50005Z" fill="white"/>
<path d="M2.49835 2.87571C2.4754 2.60075 2.23371 2.39644 1.95851 2.41936C1.6833 2.44228 1.47882 2.68376 1.50176 2.95872L2.49835 2.87571ZM13.4988 2.95869C13.5218 2.68374 13.3173 2.44226 13.0421 2.41936C12.7669 2.39645 12.5252 2.60078 12.5023 2.87574L13.4988 2.95869ZM11.5789 13.9492C11.5685 14.074 11.5115 14.1907 11.4191 14.2756L12.0964 15.0108C12.3734 14.7561 12.5444 14.4067 12.5755 14.0319L11.5789 13.9492ZM11.4191 14.2756C11.3269 14.3605 11.206 14.4076 11.0805 14.4076L11.0804 15.4068C11.4568 15.4068 11.8195 15.2655 12.0964 15.0108L11.4191 14.2756ZM11.0805 14.4076H3.92081V15.4068H11.0804L11.0805 14.4076ZM3.92081 14.4076C3.79534 14.4076 3.67441 14.3605 3.58209 14.2756L2.90485 15.0108C3.18179 15.2655 3.5444 15.4068 3.92081 15.4068V14.4076ZM3.58209 14.2756C3.48978 14.1907 3.43278 14.0742 3.4224 13.9493L2.42578 14.0319C2.4569 14.4067 2.62789 14.7561 2.90485 15.0108L3.58209 14.2756ZM3.4224 13.9493L2.49835 2.87571L1.50176 2.95872L2.42578 14.0319L3.4224 13.9493ZM12.5023 2.87574L11.5789 13.9492L12.5755 14.0319L13.4988 2.95869L12.5023 2.87574Z" fill="white"/>
</svg>
