<svg width="9" height="12" viewBox="0 0 9 12" fill="none" xmlns="http://www.w3.org/2000/svg">
<path fill-rule="evenodd" clip-rule="evenodd" d="M4.63783 0C5.07863 0 5.43597 0.357339 5.43597 0.798139V1.2019C5.80316 1.20203 6.16673 1.27442 6.50598 1.41494C6.84553 1.55558 7.15405 1.76173 7.41394 2.02161C7.67382 2.2815 7.87997 2.59002 8.02061 2.92957C8.16126 3.26912 8.23365 3.63305 8.23365 4.00058C8.23365 4.44138 7.87631 4.79872 7.43551 4.79872C6.99471 4.79872 6.63737 4.44138 6.63737 4.00058C6.63737 3.84268 6.60627 3.68632 6.54585 3.54044C6.48542 3.39456 6.39685 3.26201 6.2852 3.15035C6.17354 3.0387 6.04099 2.95013 5.89511 2.8897C5.74923 2.82928 5.59287 2.79818 5.43497 2.79818H3.63448C3.31558 2.79818 3.00975 2.92486 2.78425 3.15035C2.55876 3.37585 2.43207 3.68168 2.43207 4.00058C2.43207 4.31948 2.55876 4.62531 2.78425 4.85081C3.00975 5.0763 3.31558 5.20299 3.63448 5.20299H5.83508C6.57733 5.20299 7.28919 5.49785 7.81404 6.0227C8.3389 6.54756 8.63376 7.25941 8.63376 8.00167C8.63376 8.74392 8.3389 9.45578 7.81404 9.98063C7.28919 10.5055 6.57733 10.8004 5.83508 10.8004H5.43597V11.2019C5.43597 11.6427 5.07863 12 4.63783 12C4.19703 12 3.83969 11.6427 3.83969 11.2019V10.8004H3.43442C2.69217 10.8004 1.98031 10.5055 1.45546 9.98063C0.930603 9.45578 0.635742 8.74392 0.635742 8.00167C0.635742 7.56087 0.993081 7.20353 1.43388 7.20353C1.87468 7.20353 2.23202 7.56087 2.23202 8.00167C2.23202 8.32057 2.3587 8.6264 2.5842 8.8519C2.80969 9.07739 3.11553 9.20407 3.43442 9.20407H4.60463C4.61564 9.20362 4.62671 9.20339 4.63783 9.20339C4.64895 9.20339 4.66002 9.20362 4.67103 9.20407H5.83508C6.15398 9.20407 6.45981 9.07739 6.68531 8.8519C6.9108 8.6264 7.03748 8.32057 7.03748 8.00167C7.03748 7.68277 6.9108 7.37693 6.68531 7.15144C6.45981 6.92594 6.15398 6.79926 5.83508 6.79926H3.63448C2.89222 6.79926 2.18037 6.5044 1.65551 5.97955C1.13066 5.45469 0.835797 4.74284 0.835797 4.00058C0.835797 3.25832 1.13066 2.54647 1.65551 2.02161C2.18037 1.49676 2.89222 1.2019 3.63448 1.2019H3.83969V0.798139C3.83969 0.357339 4.19703 0 4.63783 0Z" fill="#20D598"/>
</svg>
