<svg width="43" height="40" viewBox="0 0 43 40" fill="none" xmlns="http://www.w3.org/2000/svg">
<g filter="url(#filter0_f_4022_6309)">
<path fill-rule="evenodd" clip-rule="evenodd" d="M21.5125 10.8972C18.8109 7.81115 14.2965 6.85742 10.9115 9.68333C7.52658 12.5092 7.05003 17.234 9.70825 20.5762C11.9184 23.355 18.607 29.2158 20.7992 31.1128C21.0444 31.325 21.167 31.4311 21.3101 31.4727C21.4349 31.5091 21.5715 31.5091 21.6964 31.4727C21.8395 31.4311 21.962 31.325 22.2074 31.1128C24.3995 29.2158 31.0881 23.355 33.2983 20.5762C35.9565 17.234 35.538 12.4795 32.0949 9.68333C28.6518 6.88715 24.2141 7.81115 21.5125 10.8972Z" stroke="#2169B4" stroke-linecap="round" stroke-linejoin="round"/>
</g>
<g filter="url(#filter1_f_4022_6309)">
<path fill-rule="evenodd" clip-rule="evenodd" d="M21.5125 10.8972C18.8109 7.81115 14.2965 6.85742 10.9115 9.68333C7.52658 12.5092 7.05003 17.234 9.70825 20.5762C11.9184 23.355 18.607 29.2158 20.7992 31.1128C21.0444 31.325 21.167 31.4311 21.3101 31.4727C21.4349 31.5091 21.5715 31.5091 21.6964 31.4727C21.8395 31.4311 21.962 31.325 22.2074 31.1128C24.3995 29.2158 31.0881 23.355 33.2983 20.5762C35.9565 17.234 35.538 12.4795 32.0949 9.68333C28.6518 6.88715 24.2141 7.81115 21.5125 10.8972Z" stroke="#2169B4" stroke-linecap="round" stroke-linejoin="round"/>
</g>
<g filter="url(#filter2_f_4022_6309)">
<path fill-rule="evenodd" clip-rule="evenodd" d="M21.5125 10.8972C18.8109 7.81115 14.2965 6.85742 10.9115 9.68333C7.52658 12.5092 7.05003 17.234 9.70825 20.5762C11.9184 23.355 18.607 29.2158 20.7992 31.1128C21.0444 31.325 21.167 31.4311 21.3101 31.4727C21.4349 31.5091 21.5715 31.5091 21.6964 31.4727C21.8395 31.4311 21.962 31.325 22.2074 31.1128C24.3995 29.2158 31.0881 23.355 33.2983 20.5762C35.9565 17.234 35.538 12.4795 32.0949 9.68333C28.6518 6.88715 24.2141 7.81115 21.5125 10.8972Z" stroke="#2169B4" stroke-linecap="round" stroke-linejoin="round"/>
</g>
<g filter="url(#filter3_f_4022_6309)">
<path fill-rule="evenodd" clip-rule="evenodd" d="M21.5125 10.8972C18.8109 7.81115 14.2965 6.85742 10.9115 9.68333C7.52658 12.5092 7.05003 17.234 9.70825 20.5762C11.9184 23.355 18.607 29.2158 20.7992 31.1128C21.0444 31.325 21.167 31.4311 21.3101 31.4727C21.4349 31.5091 21.5715 31.5091 21.6964 31.4727C21.8395 31.4311 21.962 31.325 22.2074 31.1128C24.3995 29.2158 31.0881 23.355 33.2983 20.5762C35.9565 17.234 35.538 12.4795 32.0949 9.68333C28.6518 6.88715 24.2141 7.81115 21.5125 10.8972Z" stroke="#2169B4" stroke-linecap="round" stroke-linejoin="round"/>
</g>
<g filter="url(#filter4_f_4022_6309)">
<path fill-rule="evenodd" clip-rule="evenodd" d="M21.5125 10.8972C18.8109 7.81115 14.2965 6.85742 10.9115 9.68333C7.52658 12.5092 7.05003 17.234 9.70825 20.5762C11.9184 23.355 18.607 29.2158 20.7992 31.1128C21.0444 31.325 21.167 31.4311 21.3101 31.4727C21.4349 31.5091 21.5715 31.5091 21.6964 31.4727C21.8395 31.4311 21.962 31.325 22.2074 31.1128C24.3995 29.2158 31.0881 23.355 33.2983 20.5762C35.9565 17.234 35.538 12.4795 32.0949 9.68333C28.6518 6.88715 24.2141 7.81115 21.5125 10.8972Z" stroke="#2169B4" stroke-linecap="round" stroke-linejoin="round"/>
</g>
<g filter="url(#filter5_f_4022_6309)">
<path fill-rule="evenodd" clip-rule="evenodd" d="M21.5125 10.8972C18.8109 7.81115 14.2965 6.85742 10.9115 9.68333C7.52658 12.5092 7.05003 17.234 9.70825 20.5762C11.9184 23.355 18.607 29.2158 20.7992 31.1128C21.0444 31.325 21.167 31.4311 21.3101 31.4727C21.4349 31.5091 21.5715 31.5091 21.6964 31.4727C21.8395 31.4311 21.962 31.325 22.2074 31.1128C24.3995 29.2158 31.0881 23.355 33.2983 20.5762C35.9565 17.234 35.538 12.4795 32.0949 9.68333C28.6518 6.88715 24.2141 7.81115 21.5125 10.8972Z" stroke="#2169B4" stroke-linecap="round" stroke-linejoin="round"/>
</g>
<g filter="url(#filter6_f_4022_6309)">
<path fill-rule="evenodd" clip-rule="evenodd" d="M21.5 13.9297C19.7006 11.8742 16.6938 11.239 14.4392 13.1212C12.1847 15.0034 11.8673 18.1503 13.6378 20.3764C15.1098 22.2272 19.5648 26.1308 21.0249 27.3943C21.1882 27.5356 21.2699 27.6063 21.3652 27.634C21.4483 27.6582 21.5393 27.6582 21.6225 27.634C21.7178 27.6063 21.7994 27.5356 21.9628 27.3943C23.4229 26.1308 27.8778 22.2272 29.3499 20.3764C31.1204 18.1503 30.8417 14.9836 28.5484 13.1212C26.2551 11.2588 23.2994 11.8742 21.5 13.9297Z" stroke="#2169B4" stroke-linecap="round" stroke-linejoin="round"/>
</g>
<g filter="url(#filter7_f_4022_6309)">
<path fill-rule="evenodd" clip-rule="evenodd" d="M21.5 13.9297C19.7006 11.8742 16.6938 11.239 14.4392 13.1212C12.1847 15.0034 11.8673 18.1503 13.6378 20.3764C15.1098 22.2272 19.5648 26.1308 21.0249 27.3943C21.1882 27.5356 21.2699 27.6063 21.3652 27.634C21.4483 27.6582 21.5393 27.6582 21.6225 27.634C21.7178 27.6063 21.7994 27.5356 21.9628 27.3943C23.4229 26.1308 27.8778 22.2272 29.3499 20.3764C31.1204 18.1503 30.8417 14.9836 28.5484 13.1212C26.2551 11.2588 23.2994 11.8742 21.5 13.9297Z" stroke="#2169B4" stroke-linecap="round" stroke-linejoin="round"/>
</g>
<g filter="url(#filter8_f_4022_6309)">
<path fill-rule="evenodd" clip-rule="evenodd" d="M21.5 13.9297C19.7006 11.8742 16.6938 11.239 14.4392 13.1212C12.1847 15.0034 11.8673 18.1503 13.6378 20.3764C15.1098 22.2272 19.5648 26.1308 21.0249 27.3943C21.1882 27.5356 21.2699 27.6063 21.3652 27.634C21.4483 27.6582 21.5393 27.6582 21.6225 27.634C21.7178 27.6063 21.7994 27.5356 21.9628 27.3943C23.4229 26.1308 27.8778 22.2272 29.3499 20.3764C31.1204 18.1503 30.8417 14.9836 28.5484 13.1212C26.2551 11.2588 23.2994 11.8742 21.5 13.9297Z" stroke="#2169B4" stroke-linecap="round" stroke-linejoin="round"/>
</g>
<g filter="url(#filter9_f_4022_6309)">
<path fill-rule="evenodd" clip-rule="evenodd" d="M21.5 13.9297C19.7006 11.8742 16.6938 11.239 14.4392 13.1212C12.1847 15.0034 11.8673 18.1503 13.6378 20.3764C15.1098 22.2272 19.5648 26.1308 21.0249 27.3943C21.1882 27.5356 21.2699 27.6063 21.3652 27.634C21.4483 27.6582 21.5393 27.6582 21.6225 27.634C21.7178 27.6063 21.7994 27.5356 21.9628 27.3943C23.4229 26.1308 27.8778 22.2272 29.3499 20.3764C31.1204 18.1503 30.8417 14.9836 28.5484 13.1212C26.2551 11.2588 23.2994 11.8742 21.5 13.9297Z" stroke="#2169B4" stroke-linecap="round" stroke-linejoin="round"/>
</g>
<g filter="url(#filter10_f_4022_6309)">
<path fill-rule="evenodd" clip-rule="evenodd" d="M21.5 13.9297C19.7006 11.8742 16.6938 11.239 14.4392 13.1212C12.1847 15.0034 11.8673 18.1503 13.6378 20.3764C15.1098 22.2272 19.5648 26.1308 21.0249 27.3943C21.1882 27.5356 21.2699 27.6063 21.3652 27.634C21.4483 27.6582 21.5393 27.6582 21.6225 27.634C21.7178 27.6063 21.7994 27.5356 21.9628 27.3943C23.4229 26.1308 27.8778 22.2272 29.3499 20.3764C31.1204 18.1503 30.8417 14.9836 28.5484 13.1212C26.2551 11.2588 23.2994 11.8742 21.5 13.9297Z" stroke="#2169B4" stroke-linecap="round" stroke-linejoin="round"/>
</g>
<g filter="url(#filter11_f_4022_6309)">
<path fill-rule="evenodd" clip-rule="evenodd" d="M21.5 13.9297C19.7006 11.8742 16.6938 11.239 14.4392 13.1212C12.1847 15.0034 11.8673 18.1503 13.6378 20.3764C15.1098 22.2272 19.5648 26.1308 21.0249 27.3943C21.1882 27.5356 21.2699 27.6063 21.3652 27.634C21.4483 27.6582 21.5393 27.6582 21.6225 27.634C21.7178 27.6063 21.7994 27.5356 21.9628 27.3943C23.4229 26.1308 27.8778 22.2272 29.3499 20.3764C31.1204 18.1503 30.8417 14.9836 28.5484 13.1212C26.2551 11.2588 23.2994 11.8742 21.5 13.9297Z" stroke="#2169B4" stroke-linecap="round" stroke-linejoin="round"/>
</g>
<path fill-rule="evenodd" clip-rule="evenodd" d="M21.5 12.4657C19.2008 9.83928 15.3587 9.02759 12.4779 11.4326C9.59709 13.8377 9.19151 17.8587 11.4538 20.7032C13.3348 23.0681 19.0273 28.056 20.8929 29.6704C21.1016 29.8511 21.206 29.9414 21.3278 29.9768C21.4339 30.0077 21.5502 30.0077 21.6565 29.9768C21.7783 29.9414 21.8826 29.8511 22.0914 29.6704C23.9571 28.056 29.6494 23.0681 31.5304 20.7032C33.7928 17.8587 33.4366 13.8124 30.5063 11.4326C27.576 9.05289 23.7992 9.83928 21.5 12.4657Z" stroke="white" stroke-linecap="round" stroke-linejoin="round"/>
<path fill-rule="evenodd" clip-rule="evenodd" d="M21.5 12.4657C19.2008 9.83928 15.3587 9.02759 12.4779 11.4326C9.59709 13.8377 9.19151 17.8587 11.4538 20.7032C13.3348 23.0681 19.0273 28.056 20.8929 29.6704C21.1016 29.8511 21.206 29.9414 21.3278 29.9768C21.4339 30.0077 21.5502 30.0077 21.6565 29.9768C21.7783 29.9414 21.8826 29.8511 22.0914 29.6704C23.9571 28.056 29.6494 23.0681 31.5304 20.7032C33.7928 17.8587 33.4366 13.8124 30.5063 11.4326C27.576 9.05289 23.7992 9.83928 21.5 12.4657Z" stroke="#D0ECFA" stroke-linecap="round" stroke-linejoin="round"/>
<defs>
<filter id="filter0_f_4022_6309" x="0.0999999" y="0.0990233" width="42.8254" height="39.301" filterUnits="userSpaceOnUse" color-interpolation-filters="sRGB">
<feFlood flood-opacity="0" result="BackgroundImageFix"/>
<feBlend mode="normal" in="SourceGraphic" in2="BackgroundImageFix" result="shape"/>
<feGaussianBlur stdDeviation="3.7" result="effect1_foregroundBlur_4022_6309"/>
</filter>
<filter id="filter1_f_4022_6309" x="0.0999999" y="0.0990233" width="42.8254" height="39.301" filterUnits="userSpaceOnUse" color-interpolation-filters="sRGB">
<feFlood flood-opacity="0" result="BackgroundImageFix"/>
<feBlend mode="normal" in="SourceGraphic" in2="BackgroundImageFix" result="shape"/>
<feGaussianBlur stdDeviation="3.7" result="effect1_foregroundBlur_4022_6309"/>
</filter>
<filter id="filter2_f_4022_6309" x="0.0999999" y="0.0990233" width="42.8254" height="39.301" filterUnits="userSpaceOnUse" color-interpolation-filters="sRGB">
<feFlood flood-opacity="0" result="BackgroundImageFix"/>
<feBlend mode="normal" in="SourceGraphic" in2="BackgroundImageFix" result="shape"/>
<feGaussianBlur stdDeviation="3.7" result="effect1_foregroundBlur_4022_6309"/>
</filter>
<filter id="filter3_f_4022_6309" x="0.0999999" y="0.0990233" width="42.8254" height="39.301" filterUnits="userSpaceOnUse" color-interpolation-filters="sRGB">
<feFlood flood-opacity="0" result="BackgroundImageFix"/>
<feBlend mode="normal" in="SourceGraphic" in2="BackgroundImageFix" result="shape"/>
<feGaussianBlur stdDeviation="3.7" result="effect1_foregroundBlur_4022_6309"/>
</filter>
<filter id="filter4_f_4022_6309" x="0.0999999" y="0.0990233" width="42.8254" height="39.301" filterUnits="userSpaceOnUse" color-interpolation-filters="sRGB">
<feFlood flood-opacity="0" result="BackgroundImageFix"/>
<feBlend mode="normal" in="SourceGraphic" in2="BackgroundImageFix" result="shape"/>
<feGaussianBlur stdDeviation="3.7" result="effect1_foregroundBlur_4022_6309"/>
</filter>
<filter id="filter5_f_4022_6309" x="0.0999999" y="0.0990233" width="42.8254" height="39.301" filterUnits="userSpaceOnUse" color-interpolation-filters="sRGB">
<feFlood flood-opacity="0" result="BackgroundImageFix"/>
<feBlend mode="normal" in="SourceGraphic" in2="BackgroundImageFix" result="shape"/>
<feGaussianBlur stdDeviation="3.7" result="effect1_foregroundBlur_4022_6309"/>
</filter>
<filter id="filter6_f_4022_6309" x="4.6" y="4.09902" width="33.8" height="31.4533" filterUnits="userSpaceOnUse" color-interpolation-filters="sRGB">
<feFlood flood-opacity="0" result="BackgroundImageFix"/>
<feBlend mode="normal" in="SourceGraphic" in2="BackgroundImageFix" result="shape"/>
<feGaussianBlur stdDeviation="3.7" result="effect1_foregroundBlur_4022_6309"/>
</filter>
<filter id="filter7_f_4022_6309" x="4.6" y="4.09902" width="33.8" height="31.4533" filterUnits="userSpaceOnUse" color-interpolation-filters="sRGB">
<feFlood flood-opacity="0" result="BackgroundImageFix"/>
<feBlend mode="normal" in="SourceGraphic" in2="BackgroundImageFix" result="shape"/>
<feGaussianBlur stdDeviation="3.7" result="effect1_foregroundBlur_4022_6309"/>
</filter>
<filter id="filter8_f_4022_6309" x="4.6" y="4.09902" width="33.8" height="31.4533" filterUnits="userSpaceOnUse" color-interpolation-filters="sRGB">
<feFlood flood-opacity="0" result="BackgroundImageFix"/>
<feBlend mode="normal" in="SourceGraphic" in2="BackgroundImageFix" result="shape"/>
<feGaussianBlur stdDeviation="3.7" result="effect1_foregroundBlur_4022_6309"/>
</filter>
<filter id="filter9_f_4022_6309" x="4.6" y="4.09902" width="33.8" height="31.4533" filterUnits="userSpaceOnUse" color-interpolation-filters="sRGB">
<feFlood flood-opacity="0" result="BackgroundImageFix"/>
<feBlend mode="normal" in="SourceGraphic" in2="BackgroundImageFix" result="shape"/>
<feGaussianBlur stdDeviation="3.7" result="effect1_foregroundBlur_4022_6309"/>
</filter>
<filter id="filter10_f_4022_6309" x="4.6" y="4.09902" width="33.8" height="31.4533" filterUnits="userSpaceOnUse" color-interpolation-filters="sRGB">
<feFlood flood-opacity="0" result="BackgroundImageFix"/>
<feBlend mode="normal" in="SourceGraphic" in2="BackgroundImageFix" result="shape"/>
<feGaussianBlur stdDeviation="3.7" result="effect1_foregroundBlur_4022_6309"/>
</filter>
<filter id="filter11_f_4022_6309" x="4.6" y="4.09902" width="33.8" height="31.4533" filterUnits="userSpaceOnUse" color-interpolation-filters="sRGB">
<feFlood flood-opacity="0" result="BackgroundImageFix"/>
<feBlend mode="normal" in="SourceGraphic" in2="BackgroundImageFix" result="shape"/>
<feGaussianBlur stdDeviation="3.7" result="effect1_foregroundBlur_4022_6309"/>
</filter>
</defs>
</svg>
