<svg width="28" height="22" viewBox="0 0 28 22" fill="none" xmlns="http://www.w3.org/2000/svg">
<path d="M23.4934 1.75349C21.7246 0.941877 19.8278 0.343915 17.8446 0.00143665C17.8084 -0.00517307 17.7724 0.011345 17.7538 0.0443818C17.5098 0.478259 17.2396 1.04429 17.0504 1.48918C14.9173 1.16984 12.7951 1.16984 10.7058 1.48918C10.5165 1.0344 10.2365 0.478259 9.99146 0.0443818C9.97285 0.0124472 9.93678 -0.0040708 9.90066 0.00143665C7.91853 0.34282 6.02172 0.940783 4.25179 1.75349C4.23647 1.7601 4.22334 1.77112 4.21462 1.78543C0.616783 7.16052 -0.368816 12.4035 0.114686 17.5815C0.116874 17.6068 0.131094 17.631 0.150785 17.6464C2.52454 19.3897 4.82392 20.448 7.08061 21.1494C7.11672 21.1605 7.15499 21.1472 7.17797 21.1175C7.71179 20.3885 8.18764 19.6199 8.59564 18.8115C8.61972 18.7642 8.59674 18.708 8.54752 18.6893C7.79274 18.403 7.07404 18.0539 6.3827 17.6575C6.32801 17.6255 6.32363 17.5473 6.37394 17.5099C6.51942 17.4009 6.66495 17.2874 6.80386 17.1729C6.829 17.152 6.86402 17.1476 6.89357 17.1608C11.4354 19.2344 16.3525 19.2344 20.8407 17.1608C20.8702 17.1465 20.9053 17.1509 20.9315 17.1718C21.0705 17.2863 21.2159 17.4009 21.3625 17.5099C21.4128 17.5473 21.4095 17.6255 21.3549 17.6575C20.6635 18.0616 19.9448 18.403 19.1889 18.6882C19.1397 18.7069 19.1178 18.7642 19.1419 18.8115C19.5587 19.6187 20.0345 20.3874 20.5585 21.1164C20.5804 21.1472 20.6197 21.1605 20.6559 21.1494C22.9235 20.448 25.2229 19.3897 27.5966 17.6464C27.6174 17.631 27.6305 17.6079 27.6327 17.5826C28.2114 11.5963 26.6635 6.39628 23.5295 1.78652C23.5218 1.77112 23.5087 1.7601 23.4934 1.75349ZM9.27389 14.4286C7.90649 14.4286 6.77979 13.1733 6.77979 11.6315C6.77979 10.0898 7.88464 8.83441 9.27389 8.83441C10.674 8.83441 11.7898 10.1008 11.768 11.6315C11.768 13.1733 10.6631 14.4286 9.27389 14.4286ZM18.4954 14.4286C17.128 14.4286 16.0013 13.1733 16.0013 11.6315C16.0013 10.0898 17.1061 8.83441 18.4954 8.83441C19.8956 8.83441 21.0114 10.1008 20.9895 11.6315C20.9895 13.1733 19.8956 14.4286 18.4954 14.4286Z" fill="#5865F2"/>
</svg>
