<svg width="50" height="50" viewBox="0 0 50 50" fill="none" xmlns="http://www.w3.org/2000/svg">
<g filter="url(#filter0_ii_8_886)">
<circle cx="25" cy="25" r="25" fill="#5940A0"/>
</g>
<path d="M13.8 16.1992C13.3582 16.1992 13 16.5574 13 16.9992C13 17.441 13.3582 17.7992 13.8 17.7992V16.1992ZM36.2 17.7992C36.6418 17.7992 37 17.441 37 16.9992C37 16.5574 36.6418 16.1992 36.2 16.1992V17.7992ZM13.8 17.7992H36.2V16.1992H13.8V17.7992Z" fill="white"/>
<path d="M20.2012 17.0002C20.2012 17.442 20.5594 17.8002 21.0012 17.8002C21.4431 17.8002 21.8012 17.442 21.8012 17.0002H20.2012ZM28.2015 17.0002C28.2015 17.442 28.5597 17.8002 29.0016 17.8002C29.4434 17.8002 29.8016 17.442 29.8016 17.0002H28.2015ZM27.4015 13H22.6013V14.6001H27.4015V13ZM22.6013 13C21.9647 13 21.3543 13.2529 20.9041 13.703L22.0356 14.8344C22.1856 14.6844 22.3891 14.6001 22.6013 14.6001V13ZM20.9041 13.703C20.454 14.1531 20.2012 14.7636 20.2012 15.4001H21.8012C21.8012 15.1879 21.8855 14.9844 22.0356 14.8344L20.9041 13.703ZM20.2012 15.4001V17.0002H21.8012V15.4001H20.2012ZM29.8016 17.0002V15.4001H28.2015V17.0002H29.8016ZM29.8016 15.4001C29.8016 14.7636 29.5487 14.1531 29.0986 13.703L27.9672 14.8344C28.1173 14.9844 28.2015 15.1879 28.2015 15.4001H29.8016ZM29.0986 13.703C28.6485 13.2529 28.038 13 27.4015 13V14.6001C27.6137 14.6001 27.8172 14.6844 27.9672 14.8344L29.0986 13.703Z" fill="white"/>
<path d="M21.8008 30.6012C21.8008 31.043 22.159 31.4012 22.6008 31.4012C23.0427 31.4012 23.4009 31.043 23.4009 30.6012H21.8008ZM23.4009 22.6008C23.4009 22.159 23.0427 21.8008 22.6008 21.8008C22.159 21.8008 21.8008 22.159 21.8008 22.6008H23.4009ZM23.4009 30.6012V22.6008H21.8008V30.6012H23.4009Z" fill="white"/>
<path d="M26.5996 30.6012C26.5996 31.043 26.9578 31.4012 27.3996 31.4012C27.8415 31.4012 28.1997 31.043 28.1997 30.6012H26.5996ZM28.1997 22.6008C28.1997 22.159 27.8415 21.8008 27.3996 21.8008C26.9578 21.8008 26.5996 22.159 26.5996 22.6008H28.1997ZM28.1997 30.6012V22.6008H26.5996V30.6012H28.1997Z" fill="white"/>
<path d="M16.9977 16.9328C16.961 16.4925 16.5743 16.1653 16.134 16.202C15.6937 16.2387 15.3665 16.6255 15.4032 17.0658L16.9977 16.9328ZM34.5985 17.0657C34.6352 16.6254 34.3081 16.2387 33.8677 16.202C33.4274 16.1653 33.0407 16.4926 33.004 16.9329L34.5985 17.0657ZM31.5266 34.6659C31.51 34.8659 31.4188 35.0528 31.271 35.1887L32.3547 36.366C32.7978 35.9582 33.0714 35.3986 33.1211 34.7985L31.5266 34.6659ZM31.271 35.1887C31.1234 35.3247 30.93 35.4001 30.7292 35.4001L30.729 37.0002C31.3313 37.0002 31.9116 36.774 32.3547 36.366L31.271 35.1887ZM30.7292 35.4001H19.2737V37.0002H30.729L30.7292 35.4001ZM19.2737 35.4001C19.0729 35.4001 18.8794 35.3247 18.7317 35.1887L17.6481 36.366C18.0913 36.774 18.6714 37.0002 19.2737 37.0002V35.4001ZM18.7317 35.1887C18.584 35.0528 18.4928 34.8662 18.4762 34.6662L16.8816 34.7985C16.9314 35.3986 17.205 35.9582 17.6481 36.366L18.7317 35.1887ZM18.4762 34.6662L16.9977 16.9328L15.4032 17.0658L16.8816 34.7985L18.4762 34.6662ZM33.004 16.9329L31.5266 34.6659L33.1211 34.7985L34.5985 17.0657L33.004 16.9329Z" fill="white"/>
<defs>
<filter id="filter0_ii_8_886" x="-2" y="-4" width="54" height="58" filterUnits="userSpaceOnUse" color-interpolation-filters="sRGB">
<feFlood flood-opacity="0" result="BackgroundImageFix"/>
<feBlend mode="normal" in="SourceGraphic" in2="BackgroundImageFix" result="shape"/>
<feColorMatrix in="SourceAlpha" type="matrix" values="0 0 0 0 0 0 0 0 0 0 0 0 0 0 0 0 0 0 127 0" result="hardAlpha"/>
<feOffset dx="2" dy="4"/>
<feGaussianBlur stdDeviation="2"/>
<feComposite in2="hardAlpha" operator="arithmetic" k2="-1" k3="1"/>
<feColorMatrix type="matrix" values="0 0 0 0 0.17875 0 0 0 0 0 0 0 0 0 0.476667 0 0 0 0.25 0"/>
<feBlend mode="normal" in2="shape" result="effect1_innerShadow_8_886"/>
<feColorMatrix in="SourceAlpha" type="matrix" values="0 0 0 0 0 0 0 0 0 0 0 0 0 0 0 0 0 0 127 0" result="hardAlpha"/>
<feOffset dx="-2" dy="-4"/>
<feGaussianBlur stdDeviation="2"/>
<feComposite in2="hardAlpha" operator="arithmetic" k2="-1" k3="1"/>
<feColorMatrix type="matrix" values="0 0 0 0 0.317647 0 0 0 0 0.137255 0 0 0 0 0.623529 0 0 0 0.25 0"/>
<feBlend mode="normal" in2="effect1_innerShadow_8_886" result="effect2_innerShadow_8_886"/>
</filter>
</defs>
</svg>
