<svg width="50" height="50" viewBox="0 0 50 50" fill="none" xmlns="http://www.w3.org/2000/svg">
<g filter="url(#filter0_ii_5_254)">
<circle cx="25" cy="25" r="25" fill="#1F143D"/>
</g>
<g filter="url(#filter1_f_5_254)">
<path d="M18.1923 29.8971H18.8332C19.2244 29.8971 19.2244 29.8971 19.4658 29.8971H35.6708C36.4198 29.8971 37.0274 29.3149 37.0607 28.5769L39 16.0061V15.8913C39 15.1287 38.3758 14.5137 37.6017 14.5055H14.9963L13.6313 10.0036H9.86928C9.43648 9.96262 9.05362 10.2742 9.00368 10.7006C8.96206 11.127 9.27834 11.5124 9.71114 11.5534C9.76108 11.5616 9.81934 11.5616 9.86928 11.5534H12.4577L17.5848 28.4129C15.7204 28.7245 14.4636 30.4711 14.7799 32.308C15.0213 33.702 16.1116 34.8008 17.5182 35.0632C17.1852 35.5716 17.0021 36.1538 17.0021 36.7606C16.9772 38.5237 18.4171 39.9751 20.2065 39.9997C21.996 40.0243 23.4692 38.6057 23.4941 36.8426C23.5025 36.2358 23.336 35.6454 23.0114 35.1288H31.9337C31.0182 36.6376 31.5176 38.5893 33.049 39.4913C34.5805 40.3933 36.5613 39.9013 37.4769 38.3925C38.3924 36.8836 37.893 34.932 36.3616 34.03C35.8622 33.7348 35.2796 33.579 34.697 33.579H18.1923C17.1603 33.579 16.328 32.759 16.328 31.7422C16.328 30.7253 17.1686 29.8971 18.1923 29.8971ZM37.3853 16.0553L35.4877 28.3555H19.2078L15.4707 16.0553H37.3853ZM21.9044 36.7606C21.9044 37.6626 21.1554 38.4007 20.2398 38.4007C19.3243 38.4007 18.5752 37.6626 18.5752 36.7606C18.5752 35.8586 19.3243 35.1206 20.2398 35.1206C21.1554 35.1206 21.9044 35.8586 21.9044 36.7606ZM36.3616 36.7606C36.3616 37.6626 35.6125 38.4007 34.697 38.4007C33.7814 38.4007 33.0324 37.6626 33.0324 36.7606C33.0324 35.8586 33.7814 35.1206 34.697 35.1206C35.6208 35.1206 36.3616 35.8586 36.3616 36.7606Z" fill="#2169B4"/>
<path d="M18.1923 29.8971H18.8332C19.2244 29.8971 19.2244 29.8971 19.4658 29.8971H35.6708C36.4198 29.8971 37.0274 29.3149 37.0607 28.5769L39 16.0061V15.8913C39 15.1287 38.3758 14.5137 37.6017 14.5055H14.9963L13.6313 10.0036H9.86928C9.43648 9.96262 9.05362 10.2742 9.00368 10.7006C8.96206 11.127 9.27834 11.5124 9.71114 11.5534C9.76108 11.5616 9.81934 11.5616 9.86928 11.5534H12.4577L17.5848 28.4129C15.7204 28.7245 14.4636 30.4711 14.7799 32.308C15.0213 33.702 16.1116 34.8008 17.5182 35.0632C17.1852 35.5716 17.0021 36.1538 17.0021 36.7606C16.9772 38.5237 18.4171 39.9751 20.2065 39.9997C21.996 40.0243 23.4692 38.6057 23.4941 36.8426C23.5025 36.2358 23.336 35.6454 23.0114 35.1288H31.9337C31.0182 36.6376 31.5176 38.5893 33.049 39.4913C34.5805 40.3933 36.5613 39.9013 37.4769 38.3925C38.3924 36.8836 37.893 34.932 36.3616 34.03C35.8622 33.7348 35.2796 33.579 34.697 33.579H18.1923C17.1603 33.579 16.328 32.759 16.328 31.7422C16.328 30.7253 17.1686 29.8971 18.1923 29.8971ZM37.3853 16.0553L35.4877 28.3555H19.2078L15.4707 16.0553H37.3853ZM21.9044 36.7606C21.9044 37.6626 21.1554 38.4007 20.2398 38.4007C19.3243 38.4007 18.5752 37.6626 18.5752 36.7606C18.5752 35.8586 19.3243 35.1206 20.2398 35.1206C21.1554 35.1206 21.9044 35.8586 21.9044 36.7606ZM36.3616 36.7606C36.3616 37.6626 35.6125 38.4007 34.697 38.4007C33.7814 38.4007 33.0324 37.6626 33.0324 36.7606C33.0324 35.8586 33.7814 35.1206 34.697 35.1206C35.6208 35.1206 36.3616 35.8586 36.3616 36.7606Z" stroke="#2169B4" stroke-width="0.5"/>
</g>
<g filter="url(#filter2_f_5_254)">
<path d="M18.1923 29.8971H18.8332C19.2244 29.8971 19.2244 29.8971 19.4658 29.8971H35.6708C36.4198 29.8971 37.0274 29.3149 37.0607 28.5769L39 16.0061V15.8913C39 15.1287 38.3758 14.5137 37.6017 14.5055H14.9963L13.6313 10.0036H9.86928C9.43648 9.96262 9.05362 10.2742 9.00368 10.7006C8.96206 11.127 9.27834 11.5124 9.71114 11.5534C9.76108 11.5616 9.81934 11.5616 9.86928 11.5534H12.4577L17.5848 28.4129C15.7204 28.7245 14.4636 30.4711 14.7799 32.308C15.0213 33.702 16.1116 34.8008 17.5182 35.0632C17.1852 35.5716 17.0021 36.1538 17.0021 36.7606C16.9772 38.5237 18.4171 39.9751 20.2065 39.9997C21.996 40.0243 23.4692 38.6057 23.4941 36.8426C23.5025 36.2358 23.336 35.6454 23.0114 35.1288H31.9337C31.0182 36.6376 31.5176 38.5893 33.049 39.4913C34.5805 40.3933 36.5613 39.9013 37.4769 38.3925C38.3924 36.8836 37.893 34.932 36.3616 34.03C35.8622 33.7348 35.2796 33.579 34.697 33.579H18.1923C17.1603 33.579 16.328 32.759 16.328 31.7422C16.328 30.7253 17.1686 29.8971 18.1923 29.8971ZM37.3853 16.0553L35.4877 28.3555H19.2078L15.4707 16.0553H37.3853ZM21.9044 36.7606C21.9044 37.6626 21.1554 38.4007 20.2398 38.4007C19.3243 38.4007 18.5752 37.6626 18.5752 36.7606C18.5752 35.8586 19.3243 35.1206 20.2398 35.1206C21.1554 35.1206 21.9044 35.8586 21.9044 36.7606ZM36.3616 36.7606C36.3616 37.6626 35.6125 38.4007 34.697 38.4007C33.7814 38.4007 33.0324 37.6626 33.0324 36.7606C33.0324 35.8586 33.7814 35.1206 34.697 35.1206C35.6208 35.1206 36.3616 35.8586 36.3616 36.7606Z" fill="#2169B4"/>
<path d="M18.1923 29.8971H18.8332C19.2244 29.8971 19.2244 29.8971 19.4658 29.8971H35.6708C36.4198 29.8971 37.0274 29.3149 37.0607 28.5769L39 16.0061V15.8913C39 15.1287 38.3758 14.5137 37.6017 14.5055H14.9963L13.6313 10.0036H9.86928C9.43648 9.96262 9.05362 10.2742 9.00368 10.7006C8.96206 11.127 9.27834 11.5124 9.71114 11.5534C9.76108 11.5616 9.81934 11.5616 9.86928 11.5534H12.4577L17.5848 28.4129C15.7204 28.7245 14.4636 30.4711 14.7799 32.308C15.0213 33.702 16.1116 34.8008 17.5182 35.0632C17.1852 35.5716 17.0021 36.1538 17.0021 36.7606C16.9772 38.5237 18.4171 39.9751 20.2065 39.9997C21.996 40.0243 23.4692 38.6057 23.4941 36.8426C23.5025 36.2358 23.336 35.6454 23.0114 35.1288H31.9337C31.0182 36.6376 31.5176 38.5893 33.049 39.4913C34.5805 40.3933 36.5613 39.9013 37.4769 38.3925C38.3924 36.8836 37.893 34.932 36.3616 34.03C35.8622 33.7348 35.2796 33.579 34.697 33.579H18.1923C17.1603 33.579 16.328 32.759 16.328 31.7422C16.328 30.7253 17.1686 29.8971 18.1923 29.8971ZM37.3853 16.0553L35.4877 28.3555H19.2078L15.4707 16.0553H37.3853ZM21.9044 36.7606C21.9044 37.6626 21.1554 38.4007 20.2398 38.4007C19.3243 38.4007 18.5752 37.6626 18.5752 36.7606C18.5752 35.8586 19.3243 35.1206 20.2398 35.1206C21.1554 35.1206 21.9044 35.8586 21.9044 36.7606ZM36.3616 36.7606C36.3616 37.6626 35.6125 38.4007 34.697 38.4007C33.7814 38.4007 33.0324 37.6626 33.0324 36.7606C33.0324 35.8586 33.7814 35.1206 34.697 35.1206C35.6208 35.1206 36.3616 35.8586 36.3616 36.7606Z" stroke="#2169B4" stroke-width="0.5"/>
</g>
<g filter="url(#filter3_f_5_254)">
<path d="M22.376 28.9692H22.7688C23.0085 28.9692 23.0085 28.9692 23.1564 28.9692H33.0885C33.5477 28.9692 33.92 28.6123 33.9405 28.16L35.129 20.4553V20.385C35.129 19.9176 34.7464 19.5406 34.272 19.5356H20.4171L19.5805 16.7764H17.2747C17.0095 16.7513 16.7748 16.9422 16.7442 17.2036C16.7187 17.4649 16.9125 17.7012 17.1778 17.7263C17.2084 17.7313 17.2441 17.7313 17.2747 17.7263H18.8612L22.0036 28.0595C20.8609 28.2505 20.0906 29.321 20.2845 30.4468C20.4324 31.3012 21.1007 31.9747 21.9628 32.1355C21.7587 32.4471 21.6465 32.8039 21.6465 33.1758C21.6312 34.2564 22.5137 35.146 23.6105 35.1611C24.7072 35.1761 25.6101 34.3067 25.6254 33.2261C25.6305 32.8542 25.5285 32.4923 25.3296 32.1757H30.7981C30.237 33.1005 30.543 34.2966 31.4817 34.8495C32.4203 35.4023 33.6344 35.1008 34.1955 34.176C34.7566 33.2512 34.4506 32.0551 33.5119 31.5022C33.2059 31.3213 32.8488 31.2258 32.4917 31.2258H22.376C21.7434 31.2258 21.2333 30.7232 21.2333 30.1C21.2333 29.4768 21.7485 28.9692 22.376 28.9692ZM34.1394 20.4855L32.9763 28.0243H22.9983L20.7079 20.4855H34.1394ZM24.6511 33.1758C24.6511 33.7287 24.192 34.181 23.6309 34.181C23.0697 34.181 22.6106 33.7287 22.6106 33.1758C22.6106 32.623 23.0697 32.1707 23.6309 32.1707C24.192 32.1707 24.6511 32.623 24.6511 33.1758ZM33.5119 33.1758C33.5119 33.7287 33.0528 34.181 32.4917 34.181C31.9306 34.181 31.4715 33.7287 31.4715 33.1758C31.4715 32.623 31.9306 32.1707 32.4917 32.1707C33.0579 32.1707 33.5119 32.623 33.5119 33.1758Z" fill="#2169B4"/>
<path d="M22.376 28.9692H22.7688C23.0085 28.9692 23.0085 28.9692 23.1564 28.9692H33.0885C33.5477 28.9692 33.92 28.6123 33.9405 28.16L35.129 20.4553V20.385C35.129 19.9176 34.7464 19.5406 34.272 19.5356H20.4171L19.5805 16.7764H17.2747C17.0095 16.7513 16.7748 16.9422 16.7442 17.2036C16.7187 17.4649 16.9125 17.7012 17.1778 17.7263C17.2084 17.7313 17.2441 17.7313 17.2747 17.7263H18.8612L22.0036 28.0595C20.8609 28.2505 20.0906 29.321 20.2845 30.4468C20.4324 31.3012 21.1007 31.9747 21.9628 32.1355C21.7587 32.4471 21.6465 32.8039 21.6465 33.1758C21.6312 34.2564 22.5137 35.146 23.6105 35.1611C24.7072 35.1761 25.6101 34.3067 25.6254 33.2261C25.6305 32.8542 25.5285 32.4923 25.3296 32.1757H30.7981C30.237 33.1005 30.543 34.2966 31.4817 34.8495C32.4203 35.4023 33.6344 35.1008 34.1955 34.176C34.7566 33.2512 34.4506 32.0551 33.5119 31.5022C33.2059 31.3213 32.8488 31.2258 32.4917 31.2258H22.376C21.7434 31.2258 21.2333 30.7232 21.2333 30.1C21.2333 29.4768 21.7485 28.9692 22.376 28.9692ZM34.1394 20.4855L32.9763 28.0243H22.9983L20.7079 20.4855H34.1394ZM24.6511 33.1758C24.6511 33.7287 24.192 34.181 23.6309 34.181C23.0697 34.181 22.6106 33.7287 22.6106 33.1758C22.6106 32.623 23.0697 32.1707 23.6309 32.1707C24.192 32.1707 24.6511 32.623 24.6511 33.1758ZM33.5119 33.1758C33.5119 33.7287 33.0528 34.181 32.4917 34.181C31.9306 34.181 31.4715 33.7287 31.4715 33.1758C31.4715 32.623 31.9306 32.1707 32.4917 32.1707C33.0579 32.1707 33.5119 32.623 33.5119 33.1758Z" stroke="#2169B4" stroke-width="0.5"/>
</g>
<g filter="url(#filter4_f_5_254)">
<path d="M22.376 28.9692H22.7688C23.0085 28.9692 23.0085 28.9692 23.1564 28.9692H33.0885C33.5477 28.9692 33.92 28.6123 33.9405 28.16L35.129 20.4553V20.385C35.129 19.9176 34.7464 19.5406 34.272 19.5356H20.4171L19.5805 16.7764H17.2747C17.0095 16.7513 16.7748 16.9422 16.7442 17.2036C16.7187 17.4649 16.9125 17.7012 17.1778 17.7263C17.2084 17.7313 17.2441 17.7313 17.2747 17.7263H18.8612L22.0036 28.0595C20.8609 28.2505 20.0906 29.321 20.2845 30.4468C20.4324 31.3012 21.1007 31.9747 21.9628 32.1355C21.7587 32.4471 21.6465 32.8039 21.6465 33.1758C21.6312 34.2564 22.5137 35.146 23.6105 35.1611C24.7072 35.1761 25.6101 34.3067 25.6254 33.2261C25.6305 32.8542 25.5285 32.4923 25.3296 32.1757H30.7981C30.237 33.1005 30.543 34.2966 31.4817 34.8495C32.4203 35.4023 33.6344 35.1008 34.1955 34.176C34.7566 33.2512 34.4506 32.0551 33.5119 31.5022C33.2059 31.3213 32.8488 31.2258 32.4917 31.2258H22.376C21.7434 31.2258 21.2333 30.7232 21.2333 30.1C21.2333 29.4768 21.7485 28.9692 22.376 28.9692ZM34.1394 20.4855L32.9763 28.0243H22.9983L20.7079 20.4855H34.1394ZM24.6511 33.1758C24.6511 33.7287 24.192 34.181 23.6309 34.181C23.0697 34.181 22.6106 33.7287 22.6106 33.1758C22.6106 32.623 23.0697 32.1707 23.6309 32.1707C24.192 32.1707 24.6511 32.623 24.6511 33.1758ZM33.5119 33.1758C33.5119 33.7287 33.0528 34.181 32.4917 34.181C31.9306 34.181 31.4715 33.7287 31.4715 33.1758C31.4715 32.623 31.9306 32.1707 32.4917 32.1707C33.0579 32.1707 33.5119 32.623 33.5119 33.1758Z" fill="#2169B4"/>
<path d="M22.376 28.9692H22.7688C23.0085 28.9692 23.0085 28.9692 23.1564 28.9692H33.0885C33.5477 28.9692 33.92 28.6123 33.9405 28.16L35.129 20.4553V20.385C35.129 19.9176 34.7464 19.5406 34.272 19.5356H20.4171L19.5805 16.7764H17.2747C17.0095 16.7513 16.7748 16.9422 16.7442 17.2036C16.7187 17.4649 16.9125 17.7012 17.1778 17.7263C17.2084 17.7313 17.2441 17.7313 17.2747 17.7263H18.8612L22.0036 28.0595C20.8609 28.2505 20.0906 29.321 20.2845 30.4468C20.4324 31.3012 21.1007 31.9747 21.9628 32.1355C21.7587 32.4471 21.6465 32.8039 21.6465 33.1758C21.6312 34.2564 22.5137 35.146 23.6105 35.1611C24.7072 35.1761 25.6101 34.3067 25.6254 33.2261C25.6305 32.8542 25.5285 32.4923 25.3296 32.1757H30.7981C30.237 33.1005 30.543 34.2966 31.4817 34.8495C32.4203 35.4023 33.6344 35.1008 34.1955 34.176C34.7566 33.2512 34.4506 32.0551 33.5119 31.5022C33.2059 31.3213 32.8488 31.2258 32.4917 31.2258H22.376C21.7434 31.2258 21.2333 30.7232 21.2333 30.1C21.2333 29.4768 21.7485 28.9692 22.376 28.9692ZM34.1394 20.4855L32.9763 28.0243H22.9983L20.7079 20.4855H34.1394ZM24.6511 33.1758C24.6511 33.7287 24.192 34.181 23.6309 34.181C23.0697 34.181 22.6106 33.7287 22.6106 33.1758C22.6106 32.623 23.0697 32.1707 23.6309 32.1707C24.192 32.1707 24.6511 32.623 24.6511 33.1758ZM33.5119 33.1758C33.5119 33.7287 33.0528 34.181 32.4917 34.181C31.9306 34.181 31.4715 33.7287 31.4715 33.1758C31.4715 32.623 31.9306 32.1707 32.4917 32.1707C33.0579 32.1707 33.5119 32.623 33.5119 33.1758Z" stroke="#2169B4" stroke-width="0.5"/>
</g>
<path d="M20.2841 28.9494H20.801C21.1165 28.9494 21.1165 28.9494 21.3111 28.9494H34.3797C34.9838 28.9494 35.4737 28.4799 35.5006 27.8847L37.0645 17.747V17.6544C37.0645 17.0394 36.5611 16.5434 35.9369 16.5368H17.7067L16.6059 12.9062H13.572C13.223 12.8732 12.9142 13.1245 12.8739 13.4683C12.8404 13.8122 13.0954 14.123 13.4445 14.1561C13.4847 14.1627 13.5317 14.1627 13.572 14.1561H15.6595L19.7942 27.7524C18.2906 28.0037 17.2771 29.4123 17.5322 30.8936C17.7268 32.0178 18.6061 32.904 19.7405 33.1156C19.472 33.5256 19.3243 33.9951 19.3243 34.4845C19.3042 35.9063 20.4654 37.0768 21.9085 37.0966C23.3516 37.1165 24.5397 35.9724 24.5598 34.5506C24.5665 34.0612 24.4323 33.5851 24.1705 33.1685H31.3659C30.6276 34.3853 31.0303 35.9592 32.2653 36.6866C33.5004 37.414 35.0979 37.0173 35.8362 35.8005C36.5745 34.5837 36.1718 33.0098 34.9368 32.2823C34.534 32.0443 34.0642 31.9186 33.5943 31.9186H20.2841C19.4518 31.9186 18.7806 31.2573 18.7806 30.4373C18.7806 29.6173 19.4586 28.9494 20.2841 28.9494ZM35.7624 17.7866L34.232 27.7061H21.103L18.0893 17.7866H35.7624ZM23.2778 34.4845C23.2778 35.2119 22.6737 35.8071 21.9353 35.8071C21.197 35.8071 20.5929 35.2119 20.5929 34.4845C20.5929 33.757 21.197 33.1619 21.9353 33.1619C22.6737 33.1619 23.2778 33.757 23.2778 34.4845ZM34.9368 34.4845C34.9368 35.2119 34.3327 35.8071 33.5943 35.8071C32.856 35.8071 32.2519 35.2119 32.2519 34.4845C32.2519 33.757 32.856 33.1619 33.5943 33.1619C34.3394 33.1619 34.9368 33.757 34.9368 34.4845Z" fill="#FAFAFA" stroke="#2169B4" stroke-width="0.3"/>
<path d="M20.2841 28.9494H20.801C21.1165 28.9494 21.1165 28.9494 21.3111 28.9494H34.3797C34.9838 28.9494 35.4737 28.4799 35.5006 27.8847L37.0645 17.747V17.6544C37.0645 17.0394 36.5611 16.5434 35.9369 16.5368H17.7067L16.6059 12.9062H13.572C13.223 12.8732 12.9142 13.1245 12.8739 13.4683C12.8404 13.8122 13.0954 14.123 13.4445 14.1561C13.4847 14.1627 13.5317 14.1627 13.572 14.1561H15.6595L19.7942 27.7524C18.2906 28.0037 17.2771 29.4123 17.5322 30.8936C17.7268 32.0178 18.6061 32.904 19.7405 33.1156C19.472 33.5256 19.3243 33.9951 19.3243 34.4845C19.3042 35.9063 20.4654 37.0768 21.9085 37.0966C23.3516 37.1165 24.5397 35.9724 24.5598 34.5506C24.5665 34.0612 24.4323 33.5851 24.1705 33.1685H31.3659C30.6276 34.3853 31.0303 35.9592 32.2653 36.6866C33.5004 37.414 35.0979 37.0173 35.8362 35.8005C36.5745 34.5837 36.1718 33.0098 34.9368 32.2823C34.534 32.0443 34.0642 31.9186 33.5943 31.9186H20.2841C19.4518 31.9186 18.7806 31.2573 18.7806 30.4373C18.7806 29.6173 19.4586 28.9494 20.2841 28.9494ZM35.7624 17.7866L34.232 27.7061H21.103L18.0893 17.7866H35.7624ZM23.2778 34.4845C23.2778 35.2119 22.6737 35.8071 21.9353 35.8071C21.197 35.8071 20.5929 35.2119 20.5929 34.4845C20.5929 33.757 21.197 33.1619 21.9353 33.1619C22.6737 33.1619 23.2778 33.757 23.2778 34.4845ZM34.9368 34.4845C34.9368 35.2119 34.3327 35.8071 33.5943 35.8071C32.856 35.8071 32.2519 35.2119 32.2519 34.4845C32.2519 33.757 32.856 33.1619 33.5943 33.1619C34.3394 33.1619 34.9368 33.757 34.9368 34.4845Z" fill="#D0ECFA" stroke="#2169B4" stroke-width="0.3"/>
<defs>
<filter id="filter0_ii_5_254" x="-2" y="-4" width="54" height="58" filterUnits="userSpaceOnUse" color-interpolation-filters="sRGB">
<feFlood flood-opacity="0" result="BackgroundImageFix"/>
<feBlend mode="normal" in="SourceGraphic" in2="BackgroundImageFix" result="shape"/>
<feColorMatrix in="SourceAlpha" type="matrix" values="0 0 0 0 0 0 0 0 0 0 0 0 0 0 0 0 0 0 127 0" result="hardAlpha"/>
<feOffset dx="2" dy="4"/>
<feGaussianBlur stdDeviation="2"/>
<feComposite in2="hardAlpha" operator="arithmetic" k2="-1" k3="1"/>
<feColorMatrix type="matrix" values="0 0 0 0 0.17875 0 0 0 0 0 0 0 0 0 0.476667 0 0 0 0.25 0"/>
<feBlend mode="normal" in2="shape" result="effect1_innerShadow_5_254"/>
<feColorMatrix in="SourceAlpha" type="matrix" values="0 0 0 0 0 0 0 0 0 0 0 0 0 0 0 0 0 0 127 0" result="hardAlpha"/>
<feOffset dx="-2" dy="-4"/>
<feGaussianBlur stdDeviation="2"/>
<feComposite in2="hardAlpha" operator="arithmetic" k2="-1" k3="1"/>
<feColorMatrix type="matrix" values="0 0 0 0 0.317647 0 0 0 0 0.137255 0 0 0 0 0.623529 0 0 0 0.25 0"/>
<feBlend mode="normal" in2="effect1_innerShadow_5_254" result="effect2_innerShadow_5_254"/>
</filter>
<filter id="filter1_f_5_254" x="1.35" y="2.35" width="45.3" height="45.3" filterUnits="userSpaceOnUse" color-interpolation-filters="sRGB">
<feFlood flood-opacity="0" result="BackgroundImageFix"/>
<feBlend mode="normal" in="SourceGraphic" in2="BackgroundImageFix" result="shape"/>
<feGaussianBlur stdDeviation="3.7" result="effect1_foregroundBlur_5_254"/>
</filter>
<filter id="filter2_f_5_254" x="1.35" y="2.35" width="45.3" height="45.3" filterUnits="userSpaceOnUse" color-interpolation-filters="sRGB">
<feFlood flood-opacity="0" result="BackgroundImageFix"/>
<feBlend mode="normal" in="SourceGraphic" in2="BackgroundImageFix" result="shape"/>
<feGaussianBlur stdDeviation="3.7" result="effect1_foregroundBlur_5_254"/>
</filter>
<filter id="filter3_f_5_254" x="9.09194" y="9.12417" width="33.6871" height="33.6872" filterUnits="userSpaceOnUse" color-interpolation-filters="sRGB">
<feFlood flood-opacity="0" result="BackgroundImageFix"/>
<feBlend mode="normal" in="SourceGraphic" in2="BackgroundImageFix" result="shape"/>
<feGaussianBlur stdDeviation="3.7" result="effect1_foregroundBlur_5_254"/>
</filter>
<filter id="filter4_f_5_254" x="9.09194" y="9.12417" width="33.6871" height="33.6872" filterUnits="userSpaceOnUse" color-interpolation-filters="sRGB">
<feFlood flood-opacity="0" result="BackgroundImageFix"/>
<feBlend mode="normal" in="SourceGraphic" in2="BackgroundImageFix" result="shape"/>
<feGaussianBlur stdDeviation="3.7" result="effect1_foregroundBlur_5_254"/>
</filter>
</defs>
</svg>
