<svg width="50" height="50" viewBox="0 0 50 50" fill="none" xmlns="http://www.w3.org/2000/svg">
<g filter="url(#filter0_ii_5_253)">
<circle cx="25" cy="25" r="25" fill="#1F143D"/>
</g>
<g filter="url(#filter1_f_5_253)">
<path d="M13 37.5C13 31.2714 17.5 25.5 24.5 26C30.8513 26 37 28 37 37.5M31.5714 18.4444C31.5714 22.0036 28.6292 24.8889 25 24.8889C21.3707 24.8889 18.4286 22.0036 18.4286 18.4444C18.4286 14.8853 21.3707 12 25 12C28.6292 12 31.5714 14.8853 31.5714 18.4444Z" stroke="#2169B4" stroke-linecap="round" stroke-linejoin="round"/>
</g>
<g filter="url(#filter2_f_5_253)">
<path d="M13 37.5C13 31.2714 17.5 25.5 24.5 26C30.8513 26 37 28 37 37.5M31.5714 18.4444C31.5714 22.0036 28.6292 24.8889 25 24.8889C21.3707 24.8889 18.4286 22.0036 18.4286 18.4444C18.4286 14.8853 21.3707 12 25 12C28.6292 12 31.5714 14.8853 31.5714 18.4444Z" stroke="#2169B4" stroke-linecap="round" stroke-linejoin="round"/>
</g>
<g filter="url(#filter3_f_5_253)">
<path d="M13 37.5C13 31.2714 17.5 25.5 24.5 26C30.8513 26 37 28 37 37.5M31.5714 18.4444C31.5714 22.0036 28.6292 24.8889 25 24.8889C21.3707 24.8889 18.4286 22.0036 18.4286 18.4444C18.4286 14.8853 21.3707 12 25 12C28.6292 12 31.5714 14.8853 31.5714 18.4444Z" stroke="#2169B4" stroke-linecap="round" stroke-linejoin="round"/>
</g>
<g filter="url(#filter4_f_5_253)">
<path d="M13 37.5C13 31.2714 17.5 25.5 24.5 26C30.8513 26 37 28 37 37.5M31.5714 18.4444C31.5714 22.0036 28.6292 24.8889 25 24.8889C21.3707 24.8889 18.4286 22.0036 18.4286 18.4444C18.4286 14.8853 21.3707 12 25 12C28.6292 12 31.5714 14.8853 31.5714 18.4444Z" stroke="#2169B4" stroke-linecap="round" stroke-linejoin="round"/>
</g>
<g filter="url(#filter5_f_5_253)">
<path d="M18.5 37C19.5 33.134 21.4102 30.366 25 30.366C28.5899 30.366 31.5 33.5 31.5 37.366M28.7143 18.5C28.7143 20.7091 27.0513 22.5 25 22.5C22.9487 22.5 21.2857 20.7091 21.2857 18.5C21.2857 16.2909 22.9487 14.5 25 14.5C27.0513 14.5 28.7143 16.2909 28.7143 18.5Z" stroke="#2169B4" stroke-linecap="round" stroke-linejoin="round"/>
</g>
<g filter="url(#filter6_f_5_253)">
<path d="M18.5 37C19.5 33.134 21.4102 30.366 25 30.366C28.5899 30.366 31.5 33.5 31.5 37.366M28.7143 18.5C28.7143 20.7091 27.0513 22.5 25 22.5C22.9487 22.5 21.2857 20.7091 21.2857 18.5C21.2857 16.2909 22.9487 14.5 25 14.5C27.0513 14.5 28.7143 16.2909 28.7143 18.5Z" stroke="#2169B4" stroke-linecap="round" stroke-linejoin="round"/>
</g>
<g filter="url(#filter7_f_5_253)">
<path d="M18.5 37C19.5 33.134 21.4102 30.366 25 30.366C28.5899 30.366 31.5 33.5 31.5 37.366M28.7143 18.5C28.7143 20.7091 27.0513 22.5 25 22.5C22.9487 22.5 21.2857 20.7091 21.2857 18.5C21.2857 16.2909 22.9487 14.5 25 14.5C27.0513 14.5 28.7143 16.2909 28.7143 18.5Z" stroke="#2169B4" stroke-linecap="round" stroke-linejoin="round"/>
</g>
<g filter="url(#filter8_f_5_253)">
<path d="M18.5 37C19.5 33.134 21.4102 30.366 25 30.366C28.5899 30.366 31.5 33.5 31.5 37.366M28.7143 18.5C28.7143 20.7091 27.0513 22.5 25 22.5C22.9487 22.5 21.2857 20.7091 21.2857 18.5C21.2857 16.2909 22.9487 14.5 25 14.5C27.0513 14.5 28.7143 16.2909 28.7143 18.5Z" stroke="#2169B4" stroke-linecap="round" stroke-linejoin="round"/>
</g>
<path d="M15.5 37C15.5 31.8453 19.7533 27.6667 25 27.6667C30.2467 27.6667 34.5 31.8453 34.5 37M30.4286 18.3333C30.4286 21.2789 27.9981 23.6667 25 23.6667C22.0019 23.6667 19.5714 21.2789 19.5714 18.3333C19.5714 15.3878 22.0019 13 25 13C27.9981 13 30.4286 15.3878 30.4286 18.3333Z" stroke="white" stroke-linecap="round" stroke-linejoin="round"/>
<path d="M15.5 37C15.5 31.8453 19.7533 27.6667 25 27.6667C30.2467 27.6667 34.5 31.8453 34.5 37M30.4286 18.3333C30.4286 21.2789 27.9981 23.6667 25 23.6667C22.0019 23.6667 19.5714 21.2789 19.5714 18.3333C19.5714 15.3878 22.0019 13 25 13C27.9981 13 30.4286 15.3878 30.4286 18.3333Z" stroke="#D0ECFA" stroke-linecap="round" stroke-linejoin="round"/>
<defs>
<filter id="filter0_ii_5_253" x="-2" y="-4" width="54" height="58" filterUnits="userSpaceOnUse" color-interpolation-filters="sRGB">
<feFlood flood-opacity="0" result="BackgroundImageFix"/>
<feBlend mode="normal" in="SourceGraphic" in2="BackgroundImageFix" result="shape"/>
<feColorMatrix in="SourceAlpha" type="matrix" values="0 0 0 0 0 0 0 0 0 0 0 0 0 0 0 0 0 0 127 0" result="hardAlpha"/>
<feOffset dx="2" dy="4"/>
<feGaussianBlur stdDeviation="2"/>
<feComposite in2="hardAlpha" operator="arithmetic" k2="-1" k3="1"/>
<feColorMatrix type="matrix" values="0 0 0 0 0.17875 0 0 0 0 0 0 0 0 0 0.476667 0 0 0 0.25 0"/>
<feBlend mode="normal" in2="shape" result="effect1_innerShadow_5_253"/>
<feColorMatrix in="SourceAlpha" type="matrix" values="0 0 0 0 0 0 0 0 0 0 0 0 0 0 0 0 0 0 127 0" result="hardAlpha"/>
<feOffset dx="-2" dy="-4"/>
<feGaussianBlur stdDeviation="2"/>
<feComposite in2="hardAlpha" operator="arithmetic" k2="-1" k3="1"/>
<feColorMatrix type="matrix" values="0 0 0 0 0.317647 0 0 0 0 0.137255 0 0 0 0 0.623529 0 0 0 0.25 0"/>
<feBlend mode="normal" in2="effect1_innerShadow_5_253" result="effect2_innerShadow_5_253"/>
</filter>
<filter id="filter1_f_5_253" x="8.5" y="7.5" width="33" height="34.5" filterUnits="userSpaceOnUse" color-interpolation-filters="sRGB">
<feFlood flood-opacity="0" result="BackgroundImageFix"/>
<feBlend mode="normal" in="SourceGraphic" in2="BackgroundImageFix" result="shape"/>
<feGaussianBlur stdDeviation="2" result="effect1_foregroundBlur_5_253"/>
</filter>
<filter id="filter2_f_5_253" x="8.5" y="7.5" width="33" height="34.5" filterUnits="userSpaceOnUse" color-interpolation-filters="sRGB">
<feFlood flood-opacity="0" result="BackgroundImageFix"/>
<feBlend mode="normal" in="SourceGraphic" in2="BackgroundImageFix" result="shape"/>
<feGaussianBlur stdDeviation="2" result="effect1_foregroundBlur_5_253"/>
</filter>
<filter id="filter3_f_5_253" x="8.5" y="7.5" width="33" height="34.5" filterUnits="userSpaceOnUse" color-interpolation-filters="sRGB">
<feFlood flood-opacity="0" result="BackgroundImageFix"/>
<feBlend mode="normal" in="SourceGraphic" in2="BackgroundImageFix" result="shape"/>
<feGaussianBlur stdDeviation="2" result="effect1_foregroundBlur_5_253"/>
</filter>
<filter id="filter4_f_5_253" x="8.5" y="7.5" width="33" height="34.5" filterUnits="userSpaceOnUse" color-interpolation-filters="sRGB">
<feFlood flood-opacity="0" result="BackgroundImageFix"/>
<feBlend mode="normal" in="SourceGraphic" in2="BackgroundImageFix" result="shape"/>
<feGaussianBlur stdDeviation="2" result="effect1_foregroundBlur_5_253"/>
</filter>
<filter id="filter5_f_5_253" x="13.9999" y="10" width="22.0001" height="31.866" filterUnits="userSpaceOnUse" color-interpolation-filters="sRGB">
<feFlood flood-opacity="0" result="BackgroundImageFix"/>
<feBlend mode="normal" in="SourceGraphic" in2="BackgroundImageFix" result="shape"/>
<feGaussianBlur stdDeviation="2" result="effect1_foregroundBlur_5_253"/>
</filter>
<filter id="filter6_f_5_253" x="13.9999" y="10" width="22.0001" height="31.866" filterUnits="userSpaceOnUse" color-interpolation-filters="sRGB">
<feFlood flood-opacity="0" result="BackgroundImageFix"/>
<feBlend mode="normal" in="SourceGraphic" in2="BackgroundImageFix" result="shape"/>
<feGaussianBlur stdDeviation="2" result="effect1_foregroundBlur_5_253"/>
</filter>
<filter id="filter7_f_5_253" x="13.9999" y="10" width="22.0001" height="31.866" filterUnits="userSpaceOnUse" color-interpolation-filters="sRGB">
<feFlood flood-opacity="0" result="BackgroundImageFix"/>
<feBlend mode="normal" in="SourceGraphic" in2="BackgroundImageFix" result="shape"/>
<feGaussianBlur stdDeviation="2" result="effect1_foregroundBlur_5_253"/>
</filter>
<filter id="filter8_f_5_253" x="13.9999" y="10" width="22.0001" height="31.866" filterUnits="userSpaceOnUse" color-interpolation-filters="sRGB">
<feFlood flood-opacity="0" result="BackgroundImageFix"/>
<feBlend mode="normal" in="SourceGraphic" in2="BackgroundImageFix" result="shape"/>
<feGaussianBlur stdDeviation="2" result="effect1_foregroundBlur_5_253"/>
</filter>
</defs>
</svg>
