<svg width="17" height="17" viewBox="0 0 17 17" fill="none" xmlns="http://www.w3.org/2000/svg">
<path d="M8.5 16C12.6421 16 16 12.6421 16 8.5C16 4.35786 12.6421 1 8.5 1C4.35786 1 1 4.35786 1 8.5C1 9.69977 1.28171 10.8337 1.78259 11.8394C1.9157 12.1066 1.96001 12.4121 1.88284 12.7004L1.43613 14.37C1.24221 15.0948 1.90526 15.7578 2.63001 15.5639L4.29954 15.1172C4.58795 15.04 4.89341 15.0843 5.16065 15.2174C6.16628 15.7183 7.30023 16 8.5 16Z" stroke="white" stroke-width="1.5"/>
<path opacity="0.5" d="M5.5 8.5H5.50675M8.49325 8.5H8.5M11.4933 8.5H11.5" stroke="white" stroke-width="2" stroke-linecap="round" stroke-linejoin="round"/>
</svg>
