<svg width="15" height="15" viewBox="0 0 15 15" fill="none" xmlns="http://www.w3.org/2000/svg">
<path d="M15 2.25C15 3.49264 13.9927 4.5 12.75 4.5C11.5073 4.5 10.5 3.49264 10.5 2.25C10.5 1.00736 11.5073 0 12.75 0C13.9927 0 15 1.00736 15 2.25Z" fill="#E72C55"/>
<path opacity="0.5" d="M9.92603 0.40107C9.16508 0.141075 8.349 0 7.5 0C3.35786 0 0 3.35786 0 7.5C0 8.69977 0.281715 9.8337 0.782595 10.8394C0.915705 11.1066 0.960007 11.4121 0.88284 11.7004L0.436133 13.37C0.242213 14.0948 0.905257 14.7578 1.63001 14.5639L3.29954 14.1172C3.58795 14.04 3.89341 14.0843 4.16065 14.2174C5.16627 14.7183 6.30023 15 7.5 15C11.6421 15 15 11.6421 15 7.5C15 6.651 14.8589 5.8349 14.5989 5.07395C14.0679 5.42236 13.4326 5.625 12.75 5.625C10.886 5.625 9.375 4.11396 9.375 2.25C9.375 1.5674 9.57765 0.93213 9.92603 0.40107Z" fill="white"/>
<path opacity="0.5" d="M4.5 7.5H4.50675M7.49325 7.5H7.5M10.4933 7.5H10.5" stroke="white" stroke-width="2" stroke-linecap="round" stroke-linejoin="round"/>
</svg>
