<svg width="50" height="50" viewBox="0 0 50 50" fill="none" xmlns="http://www.w3.org/2000/svg">
<g filter="url(#filter0_ii_1_118)">
<circle cx="25" cy="25" r="25" fill="#1F143D"/>
</g>
<g filter="url(#filter1_f_1_118)">
<path fill-rule="evenodd" clip-rule="evenodd" d="M24.5125 16.8972C21.8109 13.8112 17.2965 12.8574 13.9115 15.6833C10.5266 18.5092 10.05 23.234 12.7083 26.5762C14.9184 29.355 21.607 35.2158 23.7992 37.1128C24.0444 37.325 24.167 37.4311 24.3101 37.4727C24.4349 37.5091 24.5715 37.5091 24.6964 37.4727C24.8395 37.4311 24.962 37.325 25.2074 37.1128C27.3995 35.2158 34.0881 29.355 36.2983 26.5762C38.9565 23.234 38.538 18.4795 35.0949 15.6833C31.6518 12.8872 27.2141 13.8112 24.5125 16.8972Z" stroke="#2169B4" stroke-linecap="round" stroke-linejoin="round"/>
</g>
<g filter="url(#filter2_f_1_118)">
<path fill-rule="evenodd" clip-rule="evenodd" d="M24.5125 16.8972C21.8109 13.8112 17.2965 12.8574 13.9115 15.6833C10.5266 18.5092 10.05 23.234 12.7083 26.5762C14.9184 29.355 21.607 35.2158 23.7992 37.1128C24.0444 37.325 24.167 37.4311 24.3101 37.4727C24.4349 37.5091 24.5715 37.5091 24.6964 37.4727C24.8395 37.4311 24.962 37.325 25.2074 37.1128C27.3995 35.2158 34.0881 29.355 36.2983 26.5762C38.9565 23.234 38.538 18.4795 35.0949 15.6833C31.6518 12.8872 27.2141 13.8112 24.5125 16.8972Z" stroke="#2169B4" stroke-linecap="round" stroke-linejoin="round"/>
</g>
<g filter="url(#filter3_f_1_118)">
<path fill-rule="evenodd" clip-rule="evenodd" d="M24.5125 16.8972C21.8109 13.8112 17.2965 12.8574 13.9115 15.6833C10.5266 18.5092 10.05 23.234 12.7083 26.5762C14.9184 29.355 21.607 35.2158 23.7992 37.1128C24.0444 37.325 24.167 37.4311 24.3101 37.4727C24.4349 37.5091 24.5715 37.5091 24.6964 37.4727C24.8395 37.4311 24.962 37.325 25.2074 37.1128C27.3995 35.2158 34.0881 29.355 36.2983 26.5762C38.9565 23.234 38.538 18.4795 35.0949 15.6833C31.6518 12.8872 27.2141 13.8112 24.5125 16.8972Z" stroke="#2169B4" stroke-linecap="round" stroke-linejoin="round"/>
</g>
<g filter="url(#filter4_f_1_118)">
<path fill-rule="evenodd" clip-rule="evenodd" d="M24.5125 16.8972C21.8109 13.8112 17.2965 12.8574 13.9115 15.6833C10.5266 18.5092 10.05 23.234 12.7083 26.5762C14.9184 29.355 21.607 35.2158 23.7992 37.1128C24.0444 37.325 24.167 37.4311 24.3101 37.4727C24.4349 37.5091 24.5715 37.5091 24.6964 37.4727C24.8395 37.4311 24.962 37.325 25.2074 37.1128C27.3995 35.2158 34.0881 29.355 36.2983 26.5762C38.9565 23.234 38.538 18.4795 35.0949 15.6833C31.6518 12.8872 27.2141 13.8112 24.5125 16.8972Z" stroke="#2169B4" stroke-linecap="round" stroke-linejoin="round"/>
</g>
<g filter="url(#filter5_f_1_118)">
<path fill-rule="evenodd" clip-rule="evenodd" d="M24.5125 16.8972C21.8109 13.8112 17.2965 12.8574 13.9115 15.6833C10.5266 18.5092 10.05 23.234 12.7083 26.5762C14.9184 29.355 21.607 35.2158 23.7992 37.1128C24.0444 37.325 24.167 37.4311 24.3101 37.4727C24.4349 37.5091 24.5715 37.5091 24.6964 37.4727C24.8395 37.4311 24.962 37.325 25.2074 37.1128C27.3995 35.2158 34.0881 29.355 36.2983 26.5762C38.9565 23.234 38.538 18.4795 35.0949 15.6833C31.6518 12.8872 27.2141 13.8112 24.5125 16.8972Z" stroke="#2169B4" stroke-linecap="round" stroke-linejoin="round"/>
</g>
<g filter="url(#filter6_f_1_118)">
<path fill-rule="evenodd" clip-rule="evenodd" d="M24.5125 16.8972C21.8109 13.8112 17.2965 12.8574 13.9115 15.6833C10.5266 18.5092 10.05 23.234 12.7083 26.5762C14.9184 29.355 21.607 35.2158 23.7992 37.1128C24.0444 37.325 24.167 37.4311 24.3101 37.4727C24.4349 37.5091 24.5715 37.5091 24.6964 37.4727C24.8395 37.4311 24.962 37.325 25.2074 37.1128C27.3995 35.2158 34.0881 29.355 36.2983 26.5762C38.9565 23.234 38.538 18.4795 35.0949 15.6833C31.6518 12.8872 27.2141 13.8112 24.5125 16.8972Z" stroke="#2169B4" stroke-linecap="round" stroke-linejoin="round"/>
</g>
<g filter="url(#filter7_f_1_118)">
<path fill-rule="evenodd" clip-rule="evenodd" d="M24.5 19.9297C22.7006 17.8742 19.6938 17.239 17.4392 19.1212C15.1847 21.0034 14.8673 24.1503 16.6378 26.3764C18.1098 28.2272 22.5648 32.1308 24.0249 33.3943C24.1882 33.5356 24.2699 33.6063 24.3652 33.634C24.4483 33.6582 24.5393 33.6582 24.6225 33.634C24.7178 33.6063 24.7994 33.5356 24.9628 33.3943C26.4229 32.1308 30.8778 28.2272 32.3499 26.3764C34.1204 24.1503 33.8417 20.9836 31.5484 19.1212C29.2551 17.2588 26.2994 17.8742 24.5 19.9297Z" stroke="#2169B4" stroke-linecap="round" stroke-linejoin="round"/>
</g>
<g filter="url(#filter8_f_1_118)">
<path fill-rule="evenodd" clip-rule="evenodd" d="M24.5 19.9297C22.7006 17.8742 19.6938 17.239 17.4392 19.1212C15.1847 21.0034 14.8673 24.1503 16.6378 26.3764C18.1098 28.2272 22.5648 32.1308 24.0249 33.3943C24.1882 33.5356 24.2699 33.6063 24.3652 33.634C24.4483 33.6582 24.5393 33.6582 24.6225 33.634C24.7178 33.6063 24.7994 33.5356 24.9628 33.3943C26.4229 32.1308 30.8778 28.2272 32.3499 26.3764C34.1204 24.1503 33.8417 20.9836 31.5484 19.1212C29.2551 17.2588 26.2994 17.8742 24.5 19.9297Z" stroke="#2169B4" stroke-linecap="round" stroke-linejoin="round"/>
</g>
<g filter="url(#filter9_f_1_118)">
<path fill-rule="evenodd" clip-rule="evenodd" d="M24.5 19.9297C22.7006 17.8742 19.6938 17.239 17.4392 19.1212C15.1847 21.0034 14.8673 24.1503 16.6378 26.3764C18.1098 28.2272 22.5648 32.1308 24.0249 33.3943C24.1882 33.5356 24.2699 33.6063 24.3652 33.634C24.4483 33.6582 24.5393 33.6582 24.6225 33.634C24.7178 33.6063 24.7994 33.5356 24.9628 33.3943C26.4229 32.1308 30.8778 28.2272 32.3499 26.3764C34.1204 24.1503 33.8417 20.9836 31.5484 19.1212C29.2551 17.2588 26.2994 17.8742 24.5 19.9297Z" stroke="#2169B4" stroke-linecap="round" stroke-linejoin="round"/>
</g>
<g filter="url(#filter10_f_1_118)">
<path fill-rule="evenodd" clip-rule="evenodd" d="M24.5 19.9297C22.7006 17.8742 19.6938 17.239 17.4392 19.1212C15.1847 21.0034 14.8673 24.1503 16.6378 26.3764C18.1098 28.2272 22.5648 32.1308 24.0249 33.3943C24.1882 33.5356 24.2699 33.6063 24.3652 33.634C24.4483 33.6582 24.5393 33.6582 24.6225 33.634C24.7178 33.6063 24.7994 33.5356 24.9628 33.3943C26.4229 32.1308 30.8778 28.2272 32.3499 26.3764C34.1204 24.1503 33.8417 20.9836 31.5484 19.1212C29.2551 17.2588 26.2994 17.8742 24.5 19.9297Z" stroke="#2169B4" stroke-linecap="round" stroke-linejoin="round"/>
</g>
<g filter="url(#filter11_f_1_118)">
<path fill-rule="evenodd" clip-rule="evenodd" d="M24.5 19.9297C22.7006 17.8742 19.6938 17.239 17.4392 19.1212C15.1847 21.0034 14.8673 24.1503 16.6378 26.3764C18.1098 28.2272 22.5648 32.1308 24.0249 33.3943C24.1882 33.5356 24.2699 33.6063 24.3652 33.634C24.4483 33.6582 24.5393 33.6582 24.6225 33.634C24.7178 33.6063 24.7994 33.5356 24.9628 33.3943C26.4229 32.1308 30.8778 28.2272 32.3499 26.3764C34.1204 24.1503 33.8417 20.9836 31.5484 19.1212C29.2551 17.2588 26.2994 17.8742 24.5 19.9297Z" stroke="#2169B4" stroke-linecap="round" stroke-linejoin="round"/>
</g>
<g filter="url(#filter12_f_1_118)">
<path fill-rule="evenodd" clip-rule="evenodd" d="M24.5 19.9297C22.7006 17.8742 19.6938 17.239 17.4392 19.1212C15.1847 21.0034 14.8673 24.1503 16.6378 26.3764C18.1098 28.2272 22.5648 32.1308 24.0249 33.3943C24.1882 33.5356 24.2699 33.6063 24.3652 33.634C24.4483 33.6582 24.5393 33.6582 24.6225 33.634C24.7178 33.6063 24.7994 33.5356 24.9628 33.3943C26.4229 32.1308 30.8778 28.2272 32.3499 26.3764C34.1204 24.1503 33.8417 20.9836 31.5484 19.1212C29.2551 17.2588 26.2994 17.8742 24.5 19.9297Z" stroke="#2169B4" stroke-linecap="round" stroke-linejoin="round"/>
</g>
<path fill-rule="evenodd" clip-rule="evenodd" d="M24.5 18.4657C22.2008 15.8393 18.3587 15.0276 15.4779 17.4326C12.5971 19.8377 12.1915 23.8587 14.4538 26.7032C16.3348 29.0681 22.0273 34.056 23.8929 35.6704C24.1016 35.8511 24.206 35.9414 24.3278 35.9768C24.4339 36.0077 24.5502 36.0077 24.6565 35.9768C24.7783 35.9414 24.8826 35.8511 25.0914 35.6704C26.9571 34.056 32.6494 29.0681 34.5304 26.7032C36.7928 23.8587 36.4366 19.8124 33.5063 17.4326C30.576 15.0529 26.7992 15.8393 24.5 18.4657Z" stroke="white" stroke-linecap="round" stroke-linejoin="round"/>
<path fill-rule="evenodd" clip-rule="evenodd" d="M24.5 18.4657C22.2008 15.8393 18.3587 15.0276 15.4779 17.4326C12.5971 19.8377 12.1915 23.8587 14.4538 26.7032C16.3348 29.0681 22.0273 34.056 23.8929 35.6704C24.1016 35.8511 24.206 35.9414 24.3278 35.9768C24.4339 36.0077 24.5502 36.0077 24.6565 35.9768C24.7783 35.9414 24.8826 35.8511 25.0914 35.6704C26.9571 34.056 32.6494 29.0681 34.5304 26.7032C36.7928 23.8587 36.4366 19.8124 33.5063 17.4326C30.576 15.0529 26.7992 15.8393 24.5 18.4657Z" stroke="#D0ECFA" stroke-linecap="round" stroke-linejoin="round"/>
<defs>
<filter id="filter0_ii_1_118" x="-2" y="-4" width="54" height="58" filterUnits="userSpaceOnUse" color-interpolation-filters="sRGB">
<feFlood flood-opacity="0" result="BackgroundImageFix"/>
<feBlend mode="normal" in="SourceGraphic" in2="BackgroundImageFix" result="shape"/>
<feColorMatrix in="SourceAlpha" type="matrix" values="0 0 0 0 0 0 0 0 0 0 0 0 0 0 0 0 0 0 127 0" result="hardAlpha"/>
<feOffset dx="2" dy="4"/>
<feGaussianBlur stdDeviation="2"/>
<feComposite in2="hardAlpha" operator="arithmetic" k2="-1" k3="1"/>
<feColorMatrix type="matrix" values="0 0 0 0 0.17875 0 0 0 0 0 0 0 0 0 0.476667 0 0 0 0.25 0"/>
<feBlend mode="normal" in2="shape" result="effect1_innerShadow_1_118"/>
<feColorMatrix in="SourceAlpha" type="matrix" values="0 0 0 0 0 0 0 0 0 0 0 0 0 0 0 0 0 0 127 0" result="hardAlpha"/>
<feOffset dx="-2" dy="-4"/>
<feGaussianBlur stdDeviation="2"/>
<feComposite in2="hardAlpha" operator="arithmetic" k2="-1" k3="1"/>
<feColorMatrix type="matrix" values="0 0 0 0 0.317647 0 0 0 0 0.137255 0 0 0 0 0.623529 0 0 0 0.25 0"/>
<feBlend mode="normal" in2="effect1_innerShadow_1_118" result="effect2_innerShadow_1_118"/>
</filter>
<filter id="filter1_f_1_118" x="3.09988" y="6.09878" width="42.825" height="39.3012" filterUnits="userSpaceOnUse" color-interpolation-filters="sRGB">
<feFlood flood-opacity="0" result="BackgroundImageFix"/>
<feBlend mode="normal" in="SourceGraphic" in2="BackgroundImageFix" result="shape"/>
<feGaussianBlur stdDeviation="3.7" result="effect1_foregroundBlur_1_118"/>
</filter>
<filter id="filter2_f_1_118" x="3.09988" y="6.09878" width="42.825" height="39.3012" filterUnits="userSpaceOnUse" color-interpolation-filters="sRGB">
<feFlood flood-opacity="0" result="BackgroundImageFix"/>
<feBlend mode="normal" in="SourceGraphic" in2="BackgroundImageFix" result="shape"/>
<feGaussianBlur stdDeviation="3.7" result="effect1_foregroundBlur_1_118"/>
</filter>
<filter id="filter3_f_1_118" x="3.09988" y="6.09878" width="42.825" height="39.3012" filterUnits="userSpaceOnUse" color-interpolation-filters="sRGB">
<feFlood flood-opacity="0" result="BackgroundImageFix"/>
<feBlend mode="normal" in="SourceGraphic" in2="BackgroundImageFix" result="shape"/>
<feGaussianBlur stdDeviation="3.7" result="effect1_foregroundBlur_1_118"/>
</filter>
<filter id="filter4_f_1_118" x="3.09988" y="6.09878" width="42.825" height="39.3012" filterUnits="userSpaceOnUse" color-interpolation-filters="sRGB">
<feFlood flood-opacity="0" result="BackgroundImageFix"/>
<feBlend mode="normal" in="SourceGraphic" in2="BackgroundImageFix" result="shape"/>
<feGaussianBlur stdDeviation="3.7" result="effect1_foregroundBlur_1_118"/>
</filter>
<filter id="filter5_f_1_118" x="3.09988" y="6.09878" width="42.825" height="39.3012" filterUnits="userSpaceOnUse" color-interpolation-filters="sRGB">
<feFlood flood-opacity="0" result="BackgroundImageFix"/>
<feBlend mode="normal" in="SourceGraphic" in2="BackgroundImageFix" result="shape"/>
<feGaussianBlur stdDeviation="3.7" result="effect1_foregroundBlur_1_118"/>
</filter>
<filter id="filter6_f_1_118" x="3.09988" y="6.09878" width="42.825" height="39.3012" filterUnits="userSpaceOnUse" color-interpolation-filters="sRGB">
<feFlood flood-opacity="0" result="BackgroundImageFix"/>
<feBlend mode="normal" in="SourceGraphic" in2="BackgroundImageFix" result="shape"/>
<feGaussianBlur stdDeviation="3.7" result="effect1_foregroundBlur_1_118"/>
</filter>
<filter id="filter7_f_1_118" x="7.59988" y="10.0988" width="33.8001" height="31.4533" filterUnits="userSpaceOnUse" color-interpolation-filters="sRGB">
<feFlood flood-opacity="0" result="BackgroundImageFix"/>
<feBlend mode="normal" in="SourceGraphic" in2="BackgroundImageFix" result="shape"/>
<feGaussianBlur stdDeviation="3.7" result="effect1_foregroundBlur_1_118"/>
</filter>
<filter id="filter8_f_1_118" x="7.59988" y="10.0988" width="33.8001" height="31.4533" filterUnits="userSpaceOnUse" color-interpolation-filters="sRGB">
<feFlood flood-opacity="0" result="BackgroundImageFix"/>
<feBlend mode="normal" in="SourceGraphic" in2="BackgroundImageFix" result="shape"/>
<feGaussianBlur stdDeviation="3.7" result="effect1_foregroundBlur_1_118"/>
</filter>
<filter id="filter9_f_1_118" x="7.59988" y="10.0988" width="33.8001" height="31.4533" filterUnits="userSpaceOnUse" color-interpolation-filters="sRGB">
<feFlood flood-opacity="0" result="BackgroundImageFix"/>
<feBlend mode="normal" in="SourceGraphic" in2="BackgroundImageFix" result="shape"/>
<feGaussianBlur stdDeviation="3.7" result="effect1_foregroundBlur_1_118"/>
</filter>
<filter id="filter10_f_1_118" x="7.59988" y="10.0988" width="33.8001" height="31.4533" filterUnits="userSpaceOnUse" color-interpolation-filters="sRGB">
<feFlood flood-opacity="0" result="BackgroundImageFix"/>
<feBlend mode="normal" in="SourceGraphic" in2="BackgroundImageFix" result="shape"/>
<feGaussianBlur stdDeviation="3.7" result="effect1_foregroundBlur_1_118"/>
</filter>
<filter id="filter11_f_1_118" x="7.59988" y="10.0988" width="33.8001" height="31.4533" filterUnits="userSpaceOnUse" color-interpolation-filters="sRGB">
<feFlood flood-opacity="0" result="BackgroundImageFix"/>
<feBlend mode="normal" in="SourceGraphic" in2="BackgroundImageFix" result="shape"/>
<feGaussianBlur stdDeviation="3.7" result="effect1_foregroundBlur_1_118"/>
</filter>
<filter id="filter12_f_1_118" x="7.59988" y="10.0988" width="33.8001" height="31.4533" filterUnits="userSpaceOnUse" color-interpolation-filters="sRGB">
<feFlood flood-opacity="0" result="BackgroundImageFix"/>
<feBlend mode="normal" in="SourceGraphic" in2="BackgroundImageFix" result="shape"/>
<feGaussianBlur stdDeviation="3.7" result="effect1_foregroundBlur_1_118"/>
</filter>
</defs>
</svg>
