<svg width="15" height="15" viewBox="0 0 15 15" fill="none" xmlns="http://www.w3.org/2000/svg">
<g clip-path="url(#clip0_667_5702)">
<path d="M14.2032 3.58564C13.9298 3.05095 13.5346 2.58798 13.0495 2.23405C12.5644 1.88013 12.0029 1.64516 11.4103 1.5481C10.8177 1.45103 10.2105 1.49459 9.63784 1.67524C9.06515 1.8559 8.54293 2.16861 8.11328 2.58816L7.61163 3.04315L7.12747 2.59982C6.69748 2.17364 6.1721 1.85608 5.59489 1.67348C5.01767 1.49088 4.40524 1.4485 3.80837 1.54984C3.21486 1.64199 2.65203 1.87488 2.16694 2.22905C1.68186 2.58323 1.28862 3.04839 1.02009 3.58564C0.658769 4.29154 0.532377 5.09441 0.659341 5.87718C0.786306 6.65996 1.15999 7.38171 1.72591 7.93722L7.19164 13.5721C7.24605 13.6286 7.31129 13.6735 7.38345 13.7041C7.45561 13.7348 7.53322 13.7506 7.61163 13.7506C7.69004 13.7506 7.76764 13.7348 7.83981 13.7041C7.91197 13.6735 7.97721 13.6286 8.03162 13.5721L13.4915 7.94889C14.0594 7.39221 14.4346 6.66876 14.5626 5.88393C14.6906 5.0991 14.5647 4.2939 14.2032 3.58564Z" fill="#20D598"/>
</g>
<defs>
<clipPath id="clip0_667_5702">
<rect width="14" height="14" fill="white" transform="translate(0.611328 0.625)"/>
</clipPath>
</defs>
</svg>
