<svg width="40" height="40" viewBox="0 0 40 40" fill="none" xmlns="http://www.w3.org/2000/svg">
<rect width="40" height="40" rx="10" fill="#20D598"/>
<path d="M21.6401 14.8195C23.2439 14.6793 24.4309 13.2651 24.2897 11.6613C24.1504 10.0576 22.7363 8.87104 21.1325 9.01125C19.5288 9.1515 18.3417 10.5652 18.4819 12.1689C18.6222 13.7737 20.0364 14.9597 21.6401 14.8195Z" fill="white"/>
<path d="M22.5273 26.4604C21.8341 26.7142 20.6658 27.4292 20.6658 27.4292C20.6658 27.4292 21.5516 23.3344 21.5882 23.1561C21.9625 21.3588 23.0261 18.8223 21.5852 17.2803C20.5819 16.2088 19.2922 16.4972 18.1555 17.5845C17.405 18.3019 17.007 18.7606 16.3118 19.5319C16.0304 19.8444 15.9237 20.1363 16.057 20.594C16.2002 21.0887 16.7789 21.3341 17.2904 21.147C17.9837 20.8937 19.151 20.1788 19.151 20.1788C19.151 20.1788 18.6098 22.6708 18.3402 23.917C18.3026 24.0948 16.7907 28.785 18.2326 30.3271C19.2359 31.3991 20.5246 31.1103 21.6623 30.0235C22.4128 29.306 22.8108 28.8473 23.506 28.0755C23.7874 27.7635 23.8931 27.4717 23.7608 27.014C23.6166 26.5197 23.0389 26.2738 22.5273 26.4604Z" fill="white"/>
</svg>
