<svg width="14" height="14" viewBox="0 0 14 14" fill="none" xmlns="http://www.w3.org/2000/svg">
<rect width="14" height="14" rx="3" fill="#20D598"/>
<path d="M7.65039 4.73403C8.3511 4.67277 8.86973 4.05488 8.80804 3.35419C8.74719 2.65348 8.12933 2.13506 7.42862 2.19632C6.7279 2.2576 6.20928 2.87526 6.27054 3.57597C6.33184 4.27711 6.9497 4.7953 7.65039 4.73403Z" fill="white"/>
<path d="M8.0394 9.82041C7.7365 9.93129 7.22608 10.2437 7.22608 10.2437C7.22608 10.2437 7.6131 8.4546 7.62908 8.37671C7.7926 7.59142 8.25731 6.48319 7.62778 5.80946C7.18942 5.34132 6.6259 5.46731 6.12928 5.94236C5.80136 6.2558 5.62748 6.45623 5.32374 6.79322C5.20077 6.92976 5.15417 7.05727 5.21241 7.25725C5.27496 7.47343 5.52781 7.58065 5.75131 7.49889C6.05421 7.38822 6.56421 7.07584 6.56421 7.07584C6.56421 7.07584 6.32776 8.16466 6.20997 8.70916C6.19356 8.78682 5.53299 10.8361 6.16294 11.5098C6.60131 11.9782 7.16439 11.852 7.66145 11.3772C7.98937 11.0637 8.16325 10.8633 8.46699 10.5261C8.58996 10.3897 8.63612 10.2622 8.57832 10.0623C8.51531 9.8463 8.2629 9.73886 8.0394 9.82041Z" fill="white"/>
</svg>
