<svg width="274" height="65" viewBox="0 0 274 65" fill="none" xmlns="http://www.w3.org/2000/svg">
<g clip-path="url(#clip0_4022_6241)">
<g filter="url(#filter0_f_4022_6241)">
<path d="M104.258 43.8131C105.428 47.7288 108.596 49.6866 113.769 49.6866C117.097 49.6866 119.613 48.6473 121.323 46.5617L128.337 50.3116C125.009 54.7694 120.108 57 113.635 57C108.059 57 103.583 55.4358 100.211 52.3143C96.8379 49.1894 95.1533 45.253 95.1533 40.5017C95.1533 35.7504 96.8155 31.8659 100.144 28.7202C103.472 25.5746 107.743 24 112.96 24C117.906 24 121.987 25.5849 125.203 28.7513C128.419 31.9177 130.026 35.8333 130.026 40.5017C130.026 41.5445 129.914 42.646 129.69 43.8131H104.262H104.258ZM104.124 37.5633H121.323C120.828 35.4397 119.807 33.8548 118.252 32.812C116.702 31.7726 114.936 31.2478 112.957 31.2478C110.616 31.2478 108.686 31.8003 107.158 32.9052C105.63 34.0101 104.616 35.5605 104.124 37.5633Z" fill="#2169B4"/>
</g>
<g filter="url(#filter1_f_4022_6241)">
<path d="M138.993 57V9H150.949V57H138.993Z" fill="#2169B4"/>
</g>
<g filter="url(#filter2_f_4022_6241)">
<path d="M86.0606 47C83.5799 47 81.4925 46.4475 79.8004 45.3385C78.1064 44.2315 76.9145 42.7259 76.2227 40.8216L80.4448 38.357C81.4233 40.9045 83.3427 42.1793 86.2049 42.1793C87.5866 42.1793 88.6006 41.9287 89.245 41.4294C89.8894 40.9302 90.2116 40.2987 90.2116 39.537C90.2116 38.657 89.8183 37.9722 89.0315 37.4828C88.2448 36.9954 86.8374 36.4646 84.8093 35.8944C83.6886 35.5609 82.7398 35.2274 81.9649 34.8939C81.1901 34.5604 80.4152 34.1144 79.6403 33.554C78.8655 32.9936 78.2744 32.2852 77.8692 31.4288C77.464 30.5724 77.2624 29.5719 77.2624 28.4294C77.2624 26.168 78.0669 24.3645 79.6759 23.0187C81.2869 21.6729 83.2241 21 85.4893 21C87.5154 21 89.3004 21.4933 90.8382 22.4819C92.3761 23.4706 93.5759 24.8459 94.4338 26.6061L90.2848 28.9997C89.2826 26.8567 87.6854 25.7852 85.4913 25.7852C84.4654 25.7852 83.6609 26.0181 83.0758 26.4818C82.4907 26.9455 82.2001 27.5474 82.2001 28.2854C82.2001 29.0707 82.5283 29.7081 83.1845 30.1955C83.8408 30.6829 85.0979 31.2137 86.96 31.784C87.723 32.0228 88.3021 32.2063 88.6955 32.3385C89.0889 32.4707 89.6265 32.672 90.3045 32.9463C90.9845 33.2206 91.5083 33.4751 91.8799 33.7139C92.2496 33.9526 92.6726 34.2743 93.149 34.6788C93.6253 35.0833 93.989 35.4997 94.2401 35.9279C94.4911 36.3561 94.7046 36.8751 94.8845 37.4809C95.0644 38.0867 95.1533 38.7477 95.1533 39.464C95.1533 41.7747 94.3132 43.606 92.6311 44.9636C90.9489 46.3212 88.7607 47 86.0665 47H86.0606Z" fill="#2169B4"/>
</g>
<g filter="url(#filter3_f_4022_6241)">
<path d="M54.9607 63.2966H46.8593L55.3912 48.8536L55.5414 48.5993L55.3912 48.345L46.4137 33.1477L46.4137 33.1476L37.5827 18.2046L46.2686 3.5H63.0656L54.5302 17.9429L54.3799 18.1973L54.5302 18.4516L67.9981 41.251C70.6825 45.8014 70.6825 51.3899 67.9981 55.9402L67.9287 56.0578V56.0603C66.5905 58.2832 64.7039 60.0746 62.4889 61.3278C60.2373 62.6016 57.6474 63.2966 54.9607 63.2966Z" fill="#2169B4" stroke="black"/>
<path d="M69.3184 22.5477C70.8326 19.7677 70.7941 16.3907 69.2029 13.6411L69.3184 22.5477ZM69.3184 22.5477L69.1992 22.7535L63.6099 32.3973L55.3845 18.1974L63.6135 3.99717M69.3184 22.5477L63.6135 3.99717M63.6135 3.99717L69.2027 13.6408L63.6135 3.99717Z" fill="#2169B4" stroke="black"/>
<path d="M69.3184 22.5477C70.8326 19.7677 70.7941 16.3907 69.2029 13.6411L69.3184 22.5477ZM69.3184 22.5477L69.1992 22.7535L63.6099 32.3973L55.3845 18.1974L63.6135 3.99717M69.3184 22.5477L63.6135 3.99717M63.6135 3.99717L69.2027 13.6408L63.6135 3.99717Z" fill="#2169B4" stroke="black"/>
<path d="M54.2328 48.5958L46.011 62.7989L37.7858 48.5958L46.011 34.3961L54.2328 48.5958Z" fill="#2169B4" stroke="black"/>
<path d="M54.2314 48.5958L45.7214 63.2968H29.2744L37.6393 48.8464L37.6394 48.8462L46.0096 34.3961L54.2314 48.5958Z" fill="#2169B4" stroke="black"/>
<path d="M11.6736 63.2929L20.0419 48.8462L20.1871 48.5956L20.0419 48.345L11.2388 33.1477L6.83746 25.5494L11.6736 63.2929ZM11.6736 63.2929H28.1204L36.6314 48.5938L27.976 33.6452L27.976 33.6452L19.1729 18.4479L19.0277 18.1973L19.1729 17.9467L27.5412 3.5H19.6056C16.9721 3.5 14.4403 4.19399 12.2353 5.46674C10.0284 6.74061 8.15319 8.57169 6.83754 10.8488L6.83703 10.8497C4.20561 15.3827 4.20505 20.9965 6.83726 25.549L11.6736 63.2929Z" fill="#2169B4" stroke="black"/>
<path d="M36.6302 18.1973L28.4085 32.4004L20.1833 18.1973L28.4085 3.99769L36.6302 18.1973Z" fill="#2169B4" stroke="black"/>
<path d="M45.1436 3.5L36.7753 17.9467L36.7752 17.9468L28.4085 32.4004L20.1833 18.1973L28.6968 3.5H45.1436Z" fill="#2169B4" stroke="black"/>
<path d="M19.027 48.5957L10.8016 62.7957L5.21244 53.1522L19.027 48.5957ZM19.027 48.5957L10.8016 34.3958M19.027 48.5957L10.8016 34.3958M10.8016 34.3958L5.21244 44.0393L10.8016 34.3958Z" fill="#2169B4" stroke="black"/>
<path d="M19.027 48.5957L10.8016 62.7957L5.21244 53.1522L19.027 48.5957ZM19.027 48.5957L10.8016 34.3958M19.027 48.5957L10.8016 34.3958M10.8016 34.3958L5.21244 44.0393L10.8016 34.3958Z" fill="#2169B4" stroke="black"/>
</g>
<path d="M60.6642 51.1257C59.5909 52.9466 58.0613 54.4102 56.2626 55.4278C54.464 56.4454 52.3962 57 50.2525 57H43.3123L50.2525 45.2514L43.3123 33.5029L36.3691 21.7543L43.3123 10H57.1956L50.2525 21.7486L60.6642 39.3743C62.8109 43.0132 62.8109 47.4839 60.6642 51.1229V51.1257Z" fill="url(#paint0_linear_4022_6241)"/>
<path d="M61.5927 25.4647L56.9372 33.4971L50.1318 21.7486L56.9401 10L61.5955 18.0325C62.9257 20.3307 62.9257 23.1664 61.5955 25.4647H61.5927Z" fill="url(#paint1_linear_4022_6241)"/>
<path d="M61.5927 25.4647L56.9372 33.4971L50.1318 21.7486L56.9401 10L61.5955 18.0325C62.9257 20.3307 62.9257 23.1664 61.5955 25.4647H61.5927Z" fill="url(#paint2_linear_4022_6241)"/>
<path d="M50.1353 45.2486L43.3328 57L36.5273 45.2486L43.3328 33.5L50.1353 45.2486Z" fill="url(#paint3_linear_4022_6241)"/>
<path d="M50.1361 45.2486L43.3335 57H29.7256L36.5281 45.2486L43.3335 33.5L50.1361 45.2486Z" fill="url(#paint4_linear_4022_6241)"/>
<path d="M36.527 45.2486L29.7245 56.9971H16.1165L22.9219 45.2486L16.1165 33.5L12.7138 27.6257C10.6097 23.9868 10.6097 19.4989 12.7138 15.8743C13.7659 14.0534 15.2651 12.5898 17.0281 11.5722C18.7911 10.5546 20.815 10 22.9191 10H29.7245L22.9191 21.7486L29.7245 33.4971L36.527 45.2457V45.2486Z" fill="url(#paint5_linear_4022_6241)"/>
<path d="M36.5269 21.7486L29.7244 33.5L22.9189 21.7486L29.7244 10L36.5269 21.7486Z" fill="url(#paint6_linear_4022_6241)"/>
<path d="M43.3323 10L36.5269 21.7486L29.7244 33.5L22.9189 21.7486L29.7244 10H43.3323Z" fill="url(#paint7_linear_4022_6241)"/>
<path d="M22.9194 45.2486L16.114 56.9971L11.4585 48.9647C10.1284 46.6664 10.1284 43.8307 11.4585 41.5325L16.114 33.5L22.9194 45.2486Z" fill="url(#paint8_linear_4022_6241)"/>
<path d="M22.9194 45.2486L16.114 56.9971L11.4585 48.9647C10.1284 46.6664 10.1284 43.8307 11.4585 41.5325L16.114 33.5L22.9194 45.2486Z" fill="url(#paint9_linear_4022_6241)"/>
<g filter="url(#filter4_f_4022_6241)">
<path d="M82.3891 57C77.8193 57 73.9742 55.98 70.8573 53.9326C67.7367 51.8889 65.541 49.1093 64.2666 45.5938L72.0443 41.0437C73.8467 45.7468 77.3824 48.1002 82.6549 48.1002C85.2001 48.1002 87.0681 47.6375 88.2552 46.7158C89.4422 45.7942 90.0357 44.6284 90.0357 43.2222C90.0357 41.5975 89.3111 40.3333 87.8619 39.4299C86.4127 38.5301 83.8201 37.5501 80.0842 36.4973C78.0196 35.8816 76.2718 35.2659 74.8444 34.6503C73.4171 34.0346 71.9897 33.2113 70.5623 32.1767C69.135 31.1421 68.0462 29.8342 67.2998 28.2532C66.5533 26.6721 66.1819 24.8251 66.1819 22.7158C66.1819 18.541 67.6639 15.2113 70.6279 12.7268C73.5955 10.2423 77.1639 9 81.3368 9C85.0691 9 88.3571 9.91075 91.19 11.7359C94.0229 13.561 96.2331 16.1002 97.8134 19.3497L90.1705 23.7687C88.3243 19.8124 85.3822 17.8342 81.3404 17.8342C79.4506 17.8342 77.9686 18.2641 76.8908 19.1202C75.813 19.9763 75.2777 21.0874 75.2777 22.4499C75.2777 23.8998 75.8822 25.0765 77.0911 25.9763C78.3 26.8761 80.6158 27.8561 84.0459 28.9089C85.4514 29.3497 86.5183 29.6885 87.2429 29.9326C87.9675 30.1767 88.9579 30.5483 90.2069 31.0546C91.4595 31.561 92.4244 32.031 93.109 32.4718C93.7899 32.9126 94.5691 33.5064 95.4466 34.2532C96.3242 35 96.9942 35.7687 97.4566 36.5592C97.919 37.3497 98.3123 38.3078 98.6436 39.4262C98.975 40.5446 99.1389 41.765 99.1389 43.0874C99.1389 47.3534 97.5913 50.7341 94.4926 53.2404C91.3939 55.7468 87.3631 57 82.4 57H82.3891Z" fill="#2169B4"/>
</g>
<g filter="url(#filter5_f_4022_6241)">
<path d="M164.129 57C159.298 57 155.233 55.98 151.938 53.9326C148.639 51.8889 146.318 49.1093 144.971 45.5938L153.193 41.0437C155.098 45.7468 158.836 48.1002 164.41 48.1002C167.1 48.1002 169.075 47.6375 170.33 46.7158C171.585 45.7942 172.212 44.6284 172.212 43.2222C172.212 41.5975 171.446 40.3333 169.914 39.4299C168.382 38.5301 165.642 37.5501 161.692 36.4973C159.51 35.8816 157.662 35.2659 156.153 34.6503C154.644 34.0346 153.135 33.2113 151.626 32.1767C150.117 31.1421 148.966 29.8342 148.177 28.2532C147.388 26.6721 146.995 24.8251 146.995 22.7158C146.995 18.541 148.562 15.2113 151.695 12.7268C154.833 10.2423 158.605 9 163.016 9C166.962 9 170.438 9.91075 173.433 11.7359C176.427 13.561 178.764 16.1002 180.435 19.3497L172.355 23.7687C170.403 19.8124 167.293 17.8342 163.02 17.8342C161.022 17.8342 159.456 18.2641 158.316 19.1202C157.177 19.9763 156.611 21.0874 156.611 22.4499C156.611 23.8998 157.25 25.0765 158.528 25.9763C159.806 26.8761 162.254 27.8561 165.88 28.9089C167.366 29.3497 168.494 29.6885 169.26 29.9326C170.026 30.1767 171.073 30.5483 172.393 31.0546C173.717 31.561 174.738 32.031 175.461 32.4718C176.181 32.9126 177.005 33.5064 177.932 34.2532C178.86 35 179.568 35.7687 180.057 36.5592C180.546 37.3497 180.962 38.3078 181.312 39.4262C181.662 40.5446 181.836 41.765 181.836 43.0874C181.836 47.3534 180.2 50.7341 176.924 53.2404C173.648 55.7468 169.387 57 164.14 57H164.129Z" fill="#2169B4"/>
</g>
<path d="M85.2692 52.332C81.6716 52.332 78.6444 51.5316 76.1906 49.9251C73.7339 48.3215 72.0053 46.1404 71.002 43.3819L77.1251 39.8116C78.5441 43.502 81.3276 45.3486 85.4785 45.3486C87.4823 45.3486 88.9529 44.9856 89.8874 44.2624C90.8219 43.5392 91.2892 42.6244 91.2892 41.521C91.2892 40.2461 90.7187 39.2542 89.5778 38.5453C88.4369 37.8392 86.3958 37.0703 83.4547 36.2442C81.8293 35.7611 80.4533 35.278 79.3296 34.7949C78.2058 34.3118 77.0821 33.6658 75.9584 32.854C74.8347 32.0421 73.9775 31.0159 73.3899 29.7753C72.8022 28.5347 72.5098 27.0854 72.5098 25.4303C72.5098 22.1545 73.6765 19.5418 76.01 17.5922C78.3463 15.6427 81.1556 14.668 84.4408 14.668C87.3791 14.668 89.9677 15.3826 92.1979 16.8147C94.4282 18.2469 96.1682 20.2393 97.4123 22.7891L91.3953 26.2565C89.9419 23.1521 87.6256 21.5999 84.4436 21.5999C82.9559 21.5999 81.7891 21.9372 80.9406 22.609C80.0921 23.2807 79.6707 24.1526 79.6707 25.2217C79.6707 26.3594 80.1465 27.2827 81.0983 27.9887C82.05 28.6948 83.8732 29.4637 86.5736 30.2899C87.6801 30.6357 88.52 30.9016 89.0905 31.0931C89.6609 31.2846 90.4407 31.5762 91.4239 31.9735C92.41 32.3709 93.1697 32.7396 93.7086 33.0855C94.2447 33.4314 94.8582 33.8973 95.549 34.4833C96.2399 35.0693 96.7673 35.6725 97.1314 36.2928C97.4955 36.9131 97.8051 37.6649 98.0659 38.5424C98.3268 39.42 98.4558 40.3776 98.4558 41.4153C98.4558 44.7626 97.2375 47.4153 94.798 49.382C92.3584 51.3487 89.1851 52.332 85.2778 52.332H85.2692Z" fill="#D0ECFA"/>
<g filter="url(#filter6_f_4022_6241)">
<path d="M243.487 41.8131C244.624 45.7288 247.701 47.6866 252.726 47.6866C255.959 47.6866 258.403 46.6473 260.065 44.5617L266.878 48.3116C263.645 52.7694 258.885 55 252.596 55C247.18 55 242.832 53.4358 239.555 50.3143C236.279 47.1894 234.643 43.253 234.643 38.5017C234.643 33.7504 236.257 29.8659 239.49 26.7202C242.723 23.5746 246.872 22 251.941 22C256.745 22 260.709 23.5849 263.834 26.7513C266.958 29.9177 268.518 33.8333 268.518 38.5017C268.518 39.5445 268.41 40.646 268.193 41.8131H243.491H243.487ZM243.357 35.5633H260.065C259.583 33.4397 258.591 31.8548 257.082 30.812C255.576 29.7726 253.86 29.2478 251.937 29.2478C249.664 29.2478 247.788 29.8003 246.304 30.9052C244.819 32.0101 243.835 33.5605 243.357 35.5633Z" fill="#2169B4"/>
</g>
<path d="M107.213 41.415C108.113 44.6565 110.55 46.2773 114.529 46.2773C117.089 46.2773 119.024 45.4169 120.34 43.6903L125.735 46.7947C123.175 50.4851 119.405 52.3317 114.426 52.3317C110.137 52.3317 106.694 51.0368 104.1 48.4527C101.506 45.8657 100.21 42.607 100.21 38.6736C100.21 34.7403 101.488 31.5244 104.048 28.9203C106.608 26.3162 109.893 25.0127 113.907 25.0127C117.711 25.0127 120.85 26.3248 123.324 28.946C125.798 31.5673 127.033 34.8089 127.033 38.6736C127.033 39.5369 126.947 40.4488 126.775 41.415H107.216H107.213ZM107.11 36.241H120.34C119.958 34.483 119.173 33.1709 117.977 32.3077C116.785 31.4473 115.426 31.0128 113.904 31.0128C112.104 31.0128 110.619 31.4701 109.443 32.3849C108.268 33.2996 107.488 34.5831 107.11 36.241Z" fill="#D0ECFA"/>
<path d="M140.575 51.6058V13.8389H147.269V51.6058H140.575Z" fill="#D0ECFA"/>
<g filter="url(#filter7_f_4022_6241)">
<path d="M128.033 57V9H138.993V57H128.033Z" fill="#2169B4"/>
</g>
<path d="M129.729 51.6058V13.8389H136.423V51.6058H129.729Z" fill="#D0ECFA"/>
<path d="M164.131 52.332C160.533 52.332 157.506 51.5316 155.052 49.9251C152.595 48.3215 150.867 46.1404 149.863 43.3819L155.986 39.8116C157.405 43.502 160.189 45.3486 164.34 45.3486C166.344 45.3486 167.814 44.9856 168.749 44.2624C169.683 43.5392 170.151 42.6244 170.151 41.521C170.151 40.2461 169.58 39.2542 168.439 38.5453C167.298 37.8392 165.257 37.0703 162.316 36.2442C160.691 35.7611 159.315 35.278 158.191 34.7949C157.067 34.3118 155.943 33.6658 154.82 32.854C153.696 32.0421 152.839 31.0159 152.251 29.7753C151.664 28.5347 151.371 27.0854 151.371 25.4303C151.371 22.1545 152.538 19.5418 154.871 17.5922C157.208 15.6427 160.017 14.668 163.302 14.668C166.24 14.668 168.829 15.3826 171.059 16.8147C173.289 18.2469 175.03 20.2393 176.274 22.7891L170.254 26.2565C168.8 23.1521 166.484 21.5999 163.302 21.5999C161.814 21.5999 160.648 21.9372 159.799 22.609C158.951 23.2807 158.529 24.1526 158.529 25.2217C158.529 26.3594 159.005 27.2827 159.957 27.9887C160.908 28.6948 162.732 29.4637 165.432 30.2899C166.539 30.6357 167.378 30.9016 167.949 31.0931C168.519 31.2846 169.299 31.5762 170.282 31.9735C171.269 32.3709 172.028 32.7396 172.567 33.0855C173.103 33.4314 173.717 33.8973 174.407 34.4833C175.098 35.0693 175.626 35.6725 175.99 36.2928C176.354 36.9131 176.664 37.6649 176.924 38.5424C177.185 39.42 177.314 40.3776 177.314 41.4153C177.314 44.7626 176.096 47.4153 173.656 49.382C171.217 51.3487 168.044 52.332 164.136 52.332H164.131Z" fill="#D0ECFA"/>
<g filter="url(#filter8_f_4022_6241)">
<path d="M194.789 32.8706V25H179.844V46.0759C179.844 50.4356 180.96 53.459 183.209 55.1565C185.451 56.8471 189.311 57.3732 194.789 56.7419V49.3167C193.263 49.3939 191.987 49.4114 190.956 49.3413C189.932 49.2817 189.151 49.0011 188.612 48.4925C188.076 47.9839 187.81 47.1807 187.81 46.0759V32.8706H194.789Z" fill="#2169B4"/>
</g>
<path d="M191.733 32.1538V25.7393H179.18V42.9162C179.18 46.4693 180.117 48.9334 182.006 50.3169C183.89 51.6947 187.132 52.1235 191.733 51.609V45.5575C190.451 45.6204 189.379 45.6346 188.513 45.5775C187.653 45.5289 186.997 45.3002 186.544 44.8857C186.094 44.4712 185.87 43.8166 185.87 42.9162V32.1538H191.733Z" fill="#D0ECFA"/>
<g filter="url(#filter9_f_4022_6241)">
<path d="M176.854 15L187.814 27V15H176.854Z" fill="#2169B4"/>
</g>
<path d="M179.18 18.4922L185.873 25.7357V18.4922H179.18Z" fill="#216AB5"/>
<g filter="url(#filter10_f_4022_6241)">
<path d="M223.152 51.638C219.478 55.2114 214.994 57 209.696 57C204.397 57 199.925 55.2114 196.279 51.638C192.63 48.0646 190.803 43.6859 190.803 38.5019C190.803 33.318 192.63 28.9354 196.279 25.362C199.929 21.7886 204.401 20 209.696 20C214.99 20 219.475 21.7886 223.152 25.362C226.825 28.9354 228.664 33.3141 228.664 38.5019C228.664 43.6898 226.825 48.0684 223.152 51.638ZM202.792 45.4397C204.627 47.2632 206.928 48.173 209.696 48.173C212.464 48.173 214.777 47.2632 216.639 45.4397C218.502 43.6162 219.431 41.3049 219.431 38.5019C219.431 35.699 218.502 33.3877 216.639 31.5642C214.777 29.7407 212.464 28.8309 209.696 28.8309C206.928 28.8309 204.627 29.7407 202.792 31.5642C200.953 33.3877 200.036 35.699 200.036 38.5019C200.036 41.3049 200.953 43.6162 202.792 45.4397Z" fill="#2169B4"/>
</g>
<path d="M215.807 48.3726C213.144 51.0111 209.894 52.3317 206.052 52.3317C202.211 52.3317 198.969 51.0111 196.326 48.3726C193.68 45.7342 192.355 42.5012 192.355 38.6736C192.355 34.846 193.68 31.6102 196.326 28.9718C198.972 26.3333 202.214 25.0127 206.052 25.0127C209.891 25.0127 213.141 26.3333 215.807 28.9718C218.471 31.6102 219.804 34.8432 219.804 38.6736C219.804 42.5041 218.471 45.7371 215.807 48.3726ZM201.047 43.7961C202.377 45.1425 204.046 45.8142 206.052 45.8142C208.059 45.8142 209.736 45.1425 211.086 43.7961C212.436 42.4497 213.11 40.7432 213.11 38.6736C213.11 36.604 212.436 34.8975 211.086 33.5511C209.736 32.2048 208.059 31.533 206.052 31.533C204.046 31.533 202.377 32.2048 201.047 33.5511C199.714 34.8975 199.049 36.604 199.049 38.6736C199.049 40.7432 199.714 42.4497 201.047 43.7961Z" fill="#D0ECFA"/>
<g filter="url(#filter11_f_4022_6241)">
<path d="M234.824 26.9631C235.675 24.642 237.081 22.8983 239.044 21.7398C241.007 20.5772 243.193 20 245.603 20V30.4466C242.813 30.1099 240.321 30.6871 238.123 32.1863C235.925 33.6856 234.824 36.175 234.824 39.6585V57H225.676V20.7216H234.824V26.959V26.9631Z" fill="#2169B4"/>
</g>
<path d="M229.242 30.1899C229.864 28.5348 230.894 27.2913 232.33 26.4652C233.766 25.6362 235.366 25.2246 237.129 25.2246V32.6739C235.088 32.4338 233.264 32.8455 231.656 33.9146C230.048 34.9836 229.242 36.7588 229.242 39.2429V51.6089H222.549V25.7391H229.242V30.187V30.1899Z" fill="#D0ECFA"/>
<path d="M243.719 41.415C244.619 44.6565 247.056 46.2773 251.035 46.2773C253.595 46.2773 255.53 45.4169 256.845 43.6903L262.24 46.7947C259.68 50.4851 255.911 52.3317 250.931 52.3317C246.643 52.3317 243.2 51.0368 240.606 48.4527C238.012 45.8657 236.716 42.607 236.716 38.6736C236.716 34.7403 237.994 31.5244 240.554 28.9203C243.114 26.3162 246.399 25.0127 250.413 25.0127C254.217 25.0127 257.356 26.3248 259.83 28.946C262.303 31.5673 263.539 34.8089 263.539 38.6736C263.539 39.5369 263.453 40.4488 263.281 41.415H243.722H243.719ZM243.613 36.241H256.843C256.461 34.483 255.676 33.1709 254.48 32.3077C253.288 31.4473 251.929 31.0128 250.407 31.0128C248.607 31.0128 247.122 31.4701 245.946 32.3849C244.771 33.2996 243.991 34.5831 243.613 36.241Z" fill="#D0ECFA"/>
<g filter="url(#filter12_f_4022_6241)">
<ellipse cx="36.3682" cy="33" rx="3.9854" ry="4" fill="#2169B4"/>
<path d="M39.8536 33C39.8536 34.9347 38.2914 36.5 36.3682 36.5C34.445 36.5 32.8828 34.9347 32.8828 33C32.8828 31.0653 34.445 29.5 36.3682 29.5C38.2914 29.5 39.8536 31.0653 39.8536 33Z" stroke="black"/>
</g>
</g>
<defs>
<filter id="filter0_f_4022_6241" x="86.4533" y="15.3" width="52.2721" height="50.4" filterUnits="userSpaceOnUse" color-interpolation-filters="sRGB">
<feFlood flood-opacity="0" result="BackgroundImageFix"/>
<feBlend mode="normal" in="SourceGraphic" in2="BackgroundImageFix" result="shape"/>
<feGaussianBlur stdDeviation="4.35" result="effect1_foregroundBlur_4022_6241"/>
</filter>
<filter id="filter1_f_4022_6241" x="130.293" y="0.3" width="29.3561" height="65.4" filterUnits="userSpaceOnUse" color-interpolation-filters="sRGB">
<feFlood flood-opacity="0" result="BackgroundImageFix"/>
<feBlend mode="normal" in="SourceGraphic" in2="BackgroundImageFix" result="shape"/>
<feGaussianBlur stdDeviation="4.35" result="effect1_foregroundBlur_4022_6241"/>
</filter>
<filter id="filter2_f_4022_6241" x="72.2227" y="17" width="26.9307" height="34" filterUnits="userSpaceOnUse" color-interpolation-filters="sRGB">
<feFlood flood-opacity="0" result="BackgroundImageFix"/>
<feBlend mode="normal" in="SourceGraphic" in2="BackgroundImageFix" result="shape"/>
<feGaussianBlur stdDeviation="2" result="effect1_foregroundBlur_4022_6241"/>
</filter>
<filter id="filter3_f_4022_6241" x="-5.21074" y="-5.7" width="84.8365" height="78.1969" filterUnits="userSpaceOnUse" color-interpolation-filters="sRGB">
<feFlood flood-opacity="0" result="BackgroundImageFix"/>
<feBlend mode="normal" in="SourceGraphic" in2="BackgroundImageFix" result="shape"/>
<feGaussianBlur stdDeviation="4.35" result="effect1_foregroundBlur_4022_6241"/>
</filter>
<filter id="filter4_f_4022_6241" x="55.5666" y="0.3" width="52.2721" height="65.4" filterUnits="userSpaceOnUse" color-interpolation-filters="sRGB">
<feFlood flood-opacity="0" result="BackgroundImageFix"/>
<feBlend mode="normal" in="SourceGraphic" in2="BackgroundImageFix" result="shape"/>
<feGaussianBlur stdDeviation="4.35" result="effect1_foregroundBlur_4022_6241"/>
</filter>
<filter id="filter5_f_4022_6241" x="136.271" y="0.3" width="54.2652" height="65.4" filterUnits="userSpaceOnUse" color-interpolation-filters="sRGB">
<feFlood flood-opacity="0" result="BackgroundImageFix"/>
<feBlend mode="normal" in="SourceGraphic" in2="BackgroundImageFix" result="shape"/>
<feGaussianBlur stdDeviation="4.35" result="effect1_foregroundBlur_4022_6241"/>
</filter>
<filter id="filter6_f_4022_6241" x="225.943" y="13.3" width="51.276" height="50.4" filterUnits="userSpaceOnUse" color-interpolation-filters="sRGB">
<feFlood flood-opacity="0" result="BackgroundImageFix"/>
<feBlend mode="normal" in="SourceGraphic" in2="BackgroundImageFix" result="shape"/>
<feGaussianBlur stdDeviation="4.35" result="effect1_foregroundBlur_4022_6241"/>
</filter>
<filter id="filter7_f_4022_6241" x="119.333" y="0.3" width="28.36" height="65.4" filterUnits="userSpaceOnUse" color-interpolation-filters="sRGB">
<feFlood flood-opacity="0" result="BackgroundImageFix"/>
<feBlend mode="normal" in="SourceGraphic" in2="BackgroundImageFix" result="shape"/>
<feGaussianBlur stdDeviation="4.35" result="effect1_foregroundBlur_4022_6241"/>
</filter>
<filter id="filter8_f_4022_6241" x="171.144" y="16.3" width="32.3453" height="49.4" filterUnits="userSpaceOnUse" color-interpolation-filters="sRGB">
<feFlood flood-opacity="0" result="BackgroundImageFix"/>
<feBlend mode="normal" in="SourceGraphic" in2="BackgroundImageFix" result="shape"/>
<feGaussianBlur stdDeviation="4.35" result="effect1_foregroundBlur_4022_6241"/>
</filter>
<filter id="filter9_f_4022_6241" x="168.154" y="6.3" width="28.36" height="29.4" filterUnits="userSpaceOnUse" color-interpolation-filters="sRGB">
<feFlood flood-opacity="0" result="BackgroundImageFix"/>
<feBlend mode="normal" in="SourceGraphic" in2="BackgroundImageFix" result="shape"/>
<feGaussianBlur stdDeviation="4.35" result="effect1_foregroundBlur_4022_6241"/>
</filter>
<filter id="filter10_f_4022_6241" x="182.103" y="11.3" width="55.2613" height="54.4" filterUnits="userSpaceOnUse" color-interpolation-filters="sRGB">
<feFlood flood-opacity="0" result="BackgroundImageFix"/>
<feBlend mode="normal" in="SourceGraphic" in2="BackgroundImageFix" result="shape"/>
<feGaussianBlur stdDeviation="4.35" result="effect1_foregroundBlur_4022_6241"/>
</filter>
<filter id="filter11_f_4022_6241" x="216.976" y="11.3" width="37.3268" height="54.4" filterUnits="userSpaceOnUse" color-interpolation-filters="sRGB">
<feFlood flood-opacity="0" result="BackgroundImageFix"/>
<feBlend mode="normal" in="SourceGraphic" in2="BackgroundImageFix" result="shape"/>
<feGaussianBlur stdDeviation="4.35" result="effect1_foregroundBlur_4022_6241"/>
</filter>
<filter id="filter12_f_4022_6241" x="25.9828" y="22.6" width="20.7707" height="20.8" filterUnits="userSpaceOnUse" color-interpolation-filters="sRGB">
<feFlood flood-opacity="0" result="BackgroundImageFix"/>
<feBlend mode="normal" in="SourceGraphic" in2="BackgroundImageFix" result="shape"/>
<feGaussianBlur stdDeviation="3.2" result="effect1_foregroundBlur_4022_6241"/>
</filter>
<linearGradient id="paint0_linear_4022_6241" x1="57.5904" y1="39.46" x2="33.464" y2="18.9479" gradientUnits="userSpaceOnUse">
<stop stop-color="#A2C9F1"/>
<stop offset="1" stop-color="#3C8DE2"/>
</linearGradient>
<linearGradient id="paint1_linear_4022_6241" x1="66.6695" y1="42.4815" x2="54.2343" y2="16.3072" gradientUnits="userSpaceOnUse">
<stop stop-color="#B39EFC"/>
<stop offset="1" stop-color="#7658FB"/>
</linearGradient>
<linearGradient id="paint2_linear_4022_6241" x1="62.2061" y1="21.72" x2="51.1724" y2="21.7832" gradientUnits="userSpaceOnUse">
<stop stop-color="#A2C9F1"/>
<stop offset="1" stop-color="#327BC8"/>
</linearGradient>
<linearGradient id="paint3_linear_4022_6241" x1="46.5377" y1="51.9604" x2="33.2321" y2="23.949" gradientUnits="userSpaceOnUse">
<stop stop-color="#B39EFC"/>
<stop offset="1" stop-color="#7658FB"/>
</linearGradient>
<linearGradient id="paint4_linear_4022_6241" x1="55.2358" y1="18.75" x2="50.5221" y2="28.7766" gradientUnits="userSpaceOnUse">
<stop stop-color="#4995E4"/>
<stop offset="1" stop-color="#2169B4"/>
</linearGradient>
<linearGradient id="paint5_linear_4022_6241" x1="17.6244" y1="31.4076" x2="36.4494" y2="38.8906" gradientUnits="userSpaceOnUse">
<stop stop-color="#A2C9F1"/>
<stop offset="1" stop-color="#3C8DE2"/>
</linearGradient>
<linearGradient id="paint6_linear_4022_6241" x1="27.5543" y1="11.2463" x2="31.2892" y2="29.4365" gradientUnits="userSpaceOnUse">
<stop stop-color="#B39EFC"/>
<stop offset="1" stop-color="#7658FB"/>
</linearGradient>
<linearGradient id="paint7_linear_4022_6241" x1="36.0338" y1="9.72272" x2="31.3201" y2="19.7493" gradientUnits="userSpaceOnUse">
<stop stop-color="#8EC5FF"/>
<stop offset="1" stop-color="#2169B4"/>
</linearGradient>
<linearGradient id="paint8_linear_4022_6241" x1="10.4638" y1="15.4512" x2="14.0334" y2="32.8465" gradientUnits="userSpaceOnUse">
<stop stop-color="#B39EFC"/>
<stop offset="1" stop-color="#7658FB"/>
</linearGradient>
<linearGradient id="paint9_linear_4022_6241" x1="11.5703" y1="45.18" x2="20.0441" y2="45.3122" gradientUnits="userSpaceOnUse">
<stop stop-color="#A2C9F1"/>
<stop offset="1" stop-color="#327BC8"/>
</linearGradient>
<clipPath id="clip0_4022_6241">
<rect width="273" height="65" fill="white" transform="translate(0.5)"/>
</clipPath>
</defs>
</svg>
