<svg width="30" height="30" viewBox="0 0 30 30" fill="none" xmlns="http://www.w3.org/2000/svg">
<rect width="30" height="30" rx="7" fill="#20D598"/>
<path d="M22.5 9.75C22.5 10.9926 21.4927 12 20.25 12C19.0073 12 18 10.9926 18 9.75C18 8.50736 19.0073 7.5 20.25 7.5C21.4927 7.5 22.5 8.50736 22.5 9.75Z" fill="#E72C55"/>
<path opacity="0.5" d="M17.426 7.90107C16.6651 7.64108 15.849 7.5 15 7.5C10.8579 7.5 7.5 10.8579 7.5 15C7.5 16.1998 7.78171 17.3337 8.28259 18.3394C8.4157 18.6066 8.46001 18.9121 8.38284 19.2004L7.93613 20.87C7.74221 21.5948 8.40526 22.2578 9.13001 22.0639L10.7995 21.6172C11.0879 21.54 11.3934 21.5843 11.6606 21.7174C12.6663 22.2183 13.8002 22.5 15 22.5C19.1421 22.5 22.5 19.1421 22.5 15C22.5 14.151 22.3589 13.3349 22.0989 12.5739C21.5679 12.9224 20.9326 13.125 20.25 13.125C18.386 13.125 16.875 11.614 16.875 9.75C16.875 9.0674 17.0777 8.43213 17.426 7.90107Z" fill="white"/>
<path opacity="0.5" d="M12 15H12.0067M14.9933 15H15M17.9933 15H18" stroke="white" stroke-width="2" stroke-linecap="round" stroke-linejoin="round"/>
</svg>
