<svg width="32" height="32" viewBox="0 0 32 32" fill="none" xmlns="http://www.w3.org/2000/svg">
<g id="Group 1000006164">
<path id="Vector" d="M16 31.125C24.3532 31.125 31.125 24.3532 31.125 16C31.125 7.64669 24.3532 0.875 16 0.875C7.64669 0.875 0.875 7.64669 0.875 16C0.875 18.4195 1.44313 20.7063 2.45323 22.7344C2.72167 23.2733 2.81102 23.8894 2.65539 24.4709L1.75453 27.8379C1.36346 29.2994 2.7006 30.6365 4.16219 30.2455L7.52908 29.3446C8.11069 29.189 8.72671 29.2784 9.26564 29.5467C11.2937 30.5569 13.5805 31.125 16 31.125Z" stroke="white" stroke-width="1.5"/>
<path id="Vector_2" opacity="0.5" d="M9.94922 16H9.96283M15.9856 16H15.9992M22.0356 16H22.0492" stroke="white" stroke-width="3" stroke-linecap="round" stroke-linejoin="round"/>
</g>
</svg>
