<svg width="124" height="34" viewBox="0 0 124 34" fill="none" xmlns="http://www.w3.org/2000/svg">
<path d="M39.316 22V12.2H40.814L46.96 19.746H46.218V12.2H48.024V22H46.526L40.38 14.454H41.122V22H39.316ZM50.482 22V14.524H52.232V22H50.482ZM51.364 13.292C51.0373 13.292 50.7667 13.1893 50.552 12.984C50.3467 12.7787 50.244 12.5313 50.244 12.242C50.244 11.9433 50.3467 11.696 50.552 11.5C50.7667 11.2947 51.0373 11.192 51.364 11.192C51.6907 11.192 51.9567 11.29 52.162 11.486C52.3767 11.6727 52.484 11.9107 52.484 12.2C52.484 12.508 52.3813 12.7693 52.176 12.984C51.9707 13.1893 51.7 13.292 51.364 13.292ZM57.9169 24.814C57.2262 24.814 56.5495 24.7207 55.8869 24.534C55.2335 24.3567 54.6969 24.0953 54.2769 23.75L55.0609 22.434C55.3875 22.7047 55.7982 22.9193 56.2929 23.078C56.7969 23.246 57.3055 23.33 57.8189 23.33C58.6402 23.33 59.2422 23.1387 59.6249 22.756C60.0075 22.3827 60.1989 21.818 60.1989 21.062V19.732L60.3389 18.038L60.2829 16.344V14.524H61.9489V20.866C61.9489 22.2193 61.6035 23.2133 60.9129 23.848C60.2222 24.492 59.2235 24.814 57.9169 24.814ZM57.6929 21.664C56.9835 21.664 56.3395 21.5147 55.7609 21.216C55.1915 20.908 54.7389 20.4833 54.4029 19.942C54.0762 19.4007 53.9129 18.766 53.9129 18.038C53.9129 17.3193 54.0762 16.6893 54.4029 16.148C54.7389 15.6067 55.1915 15.1867 55.7609 14.888C56.3395 14.5893 56.9835 14.44 57.6929 14.44C58.3275 14.44 58.8969 14.566 59.4009 14.818C59.9049 15.07 60.3062 15.462 60.6049 15.994C60.9129 16.526 61.0669 17.2073 61.0669 18.038C61.0669 18.8687 60.9129 19.5547 60.6049 20.096C60.3062 20.628 59.9049 21.0247 59.4009 21.286C58.8969 21.538 58.3275 21.664 57.6929 21.664ZM57.9589 20.18C58.3975 20.18 58.7895 20.0913 59.1349 19.914C59.4802 19.7273 59.7462 19.4753 59.9329 19.158C60.1289 18.8313 60.2269 18.458 60.2269 18.038C60.2269 17.618 60.1289 17.2493 59.9329 16.932C59.7462 16.6053 59.4802 16.358 59.1349 16.19C58.7895 16.0127 58.3975 15.924 57.9589 15.924C57.5202 15.924 57.1235 16.0127 56.7689 16.19C56.4235 16.358 56.1529 16.6053 55.9569 16.932C55.7702 17.2493 55.6769 17.618 55.6769 18.038C55.6769 18.458 55.7702 18.8313 55.9569 19.158C56.1529 19.4753 56.4235 19.7273 56.7689 19.914C57.1235 20.0913 57.5202 20.18 57.9589 20.18ZM68.4916 14.44C69.0889 14.44 69.6209 14.5567 70.0876 14.79C70.5636 15.0233 70.9369 15.3827 71.2076 15.868C71.4782 16.344 71.6136 16.96 71.6136 17.716V22H69.8636V17.94C69.8636 17.2773 69.7049 16.7827 69.3876 16.456C69.0796 16.1293 68.6456 15.966 68.0856 15.966C67.6749 15.966 67.3109 16.05 66.9936 16.218C66.6762 16.386 66.4289 16.638 66.2516 16.974C66.0836 17.3007 65.9996 17.716 65.9996 18.22V22H64.2496V11.612H65.9996V16.54L65.6216 15.924C65.8829 15.448 66.2609 15.084 66.7556 14.832C67.2596 14.5707 67.8382 14.44 68.4916 14.44ZM76.6475 22.098C75.8262 22.098 75.1915 21.888 74.7435 21.468C74.2955 21.0387 74.0715 20.4087 74.0715 19.578V12.872H75.8215V19.536C75.8215 19.8907 75.9102 20.166 76.0875 20.362C76.2742 20.558 76.5309 20.656 76.8575 20.656C77.2495 20.656 77.5762 20.5533 77.8375 20.348L78.3275 21.594C78.1222 21.762 77.8702 21.888 77.5715 21.972C77.2729 22.056 76.9649 22.098 76.6475 22.098ZM72.8395 15.98V14.58H77.8235V15.98H72.8395ZM83.8043 22V12.2H85.3023L89.5863 19.354H88.8023L93.0163 12.2H94.5143L94.5283 22H92.8063L92.7923 14.902H93.1563L89.5723 20.88H88.7603L85.1203 14.902H85.5403V22H83.8043ZM100.367 22.098C99.602 22.098 98.9207 21.9347 98.3234 21.608C97.726 21.272 97.2547 20.8147 96.9094 20.236C96.564 19.6573 96.3914 18.9993 96.3914 18.262C96.3914 17.5153 96.564 16.8573 96.9094 16.288C97.2547 15.7093 97.726 15.2567 98.3234 14.93C98.9207 14.6033 99.602 14.44 100.367 14.44C101.142 14.44 101.828 14.6033 102.425 14.93C103.032 15.2567 103.503 15.7047 103.839 16.274C104.185 16.8433 104.357 17.506 104.357 18.262C104.357 18.9993 104.185 19.6573 103.839 20.236C103.503 20.8147 103.032 21.272 102.425 21.608C101.828 21.9347 101.142 22.098 100.367 22.098ZM100.367 20.6C100.797 20.6 101.179 20.5067 101.515 20.32C101.851 20.1333 102.113 19.8627 102.299 19.508C102.495 19.1533 102.593 18.738 102.593 18.262C102.593 17.7767 102.495 17.3613 102.299 17.016C102.113 16.6613 101.851 16.3907 101.515 16.204C101.179 16.0173 100.801 15.924 100.381 15.924C99.952 15.924 99.5694 16.0173 99.2334 16.204C98.9067 16.3907 98.6454 16.6613 98.4494 17.016C98.2534 17.3613 98.1554 17.7767 98.1554 18.262C98.1554 18.738 98.2534 19.1533 98.4494 19.508C98.6454 19.8627 98.9067 20.1333 99.2334 20.32C99.5694 20.5067 99.9474 20.6 100.367 20.6ZM109.195 22.098C108.476 22.098 107.827 21.9393 107.249 21.622C106.679 21.2953 106.231 20.8473 105.905 20.278C105.578 19.7087 105.415 19.0367 105.415 18.262C105.415 17.4873 105.578 16.8153 105.905 16.246C106.231 15.6767 106.679 15.2333 107.249 14.916C107.827 14.5987 108.476 14.44 109.195 14.44C109.82 14.44 110.38 14.58 110.875 14.86C111.369 15.1307 111.761 15.546 112.051 16.106C112.34 16.666 112.485 17.3847 112.485 18.262C112.485 19.13 112.345 19.8487 112.065 20.418C111.785 20.978 111.397 21.398 110.903 21.678C110.408 21.958 109.839 22.098 109.195 22.098ZM109.405 20.6C109.825 20.6 110.198 20.5067 110.525 20.32C110.861 20.1333 111.127 19.8627 111.323 19.508C111.528 19.1533 111.631 18.738 111.631 18.262C111.631 17.7767 111.528 17.3613 111.323 17.016C111.127 16.6613 110.861 16.3907 110.525 16.204C110.198 16.0173 109.825 15.924 109.405 15.924C108.985 15.924 108.607 16.0173 108.271 16.204C107.944 16.3907 107.678 16.6613 107.473 17.016C107.277 17.3613 107.179 17.7767 107.179 18.262C107.179 18.738 107.277 19.1533 107.473 19.508C107.678 19.8627 107.944 20.1333 108.271 20.32C108.607 20.5067 108.985 20.6 109.405 20.6ZM111.673 22V20.236L111.743 18.248L111.603 16.26V11.612H113.339V22H111.673ZM119.156 22.098C118.325 22.098 117.597 21.9347 116.972 21.608C116.356 21.272 115.875 20.8147 115.53 20.236C115.194 19.6573 115.026 18.9993 115.026 18.262C115.026 17.5153 115.189 16.8573 115.516 16.288C115.852 15.7093 116.309 15.2567 116.888 14.93C117.476 14.6033 118.143 14.44 118.89 14.44C119.618 14.44 120.267 14.5987 120.836 14.916C121.405 15.2333 121.853 15.6813 122.18 16.26C122.507 16.8387 122.67 17.52 122.67 18.304C122.67 18.3787 122.665 18.4627 122.656 18.556C122.656 18.6493 122.651 18.738 122.642 18.822H116.412V17.66H121.718L121.032 18.024C121.041 17.5947 120.953 17.2167 120.766 16.89C120.579 16.5633 120.323 16.3067 119.996 16.12C119.679 15.9333 119.31 15.84 118.89 15.84C118.461 15.84 118.083 15.9333 117.756 16.12C117.439 16.3067 117.187 16.568 117 16.904C116.823 17.2307 116.734 17.618 116.734 18.066V18.346C116.734 18.794 116.837 19.1907 117.042 19.536C117.247 19.8813 117.537 20.1473 117.91 20.334C118.283 20.5207 118.713 20.614 119.198 20.614C119.618 20.614 119.996 20.5487 120.332 20.418C120.668 20.2873 120.967 20.082 121.228 19.802L122.166 20.88C121.83 21.272 121.405 21.5753 120.892 21.79C120.388 21.9953 119.809 22.098 119.156 22.098Z" fill="white"/>
<g filter="url(#filter0_i_288_2331)">
<rect width="34" height="34" rx="17" fill="white"/>
</g>
<path fill-rule="evenodd" clip-rule="evenodd" d="M24.1159 8.69141C23.8573 8.0332 22.9274 8.0332 22.6688 8.69141L22.3304 9.55265L21.4728 9.89214C20.817 10.1517 20.817 11.0815 21.4728 11.3411L22.3304 11.6806L22.6688 12.5419C22.9274 13.2001 23.8573 13.2001 24.1159 12.5419L24.4543 11.6806L25.3119 11.3411C25.9677 11.0815 25.9677 10.1517 25.3119 9.89214L24.4543 9.55265L24.1159 8.69141ZM23.3923 9.01209L23.7203 9.84662C23.7991 10.0471 23.9574 10.2063 24.1581 10.2858L24.9939 10.6166L24.1581 10.9475C23.9574 11.0269 23.7991 11.1861 23.7203 11.3866L23.3923 12.2212L23.0644 11.3866C22.9856 11.1861 22.8273 11.0269 22.6266 10.9475L21.7908 10.6166L22.6266 10.2858C22.8273 10.2063 22.9856 10.0471 23.0644 9.84662L23.3923 9.01209ZM21.058 13.2952C20.7993 12.637 19.8696 12.637 19.6109 13.2952L19.4887 13.6062L19.1794 13.7287C18.5235 13.9883 18.5235 14.9181 19.1794 15.1776L19.4887 15.3001L19.6109 15.6111C19.8696 16.2693 20.7993 16.2693 21.058 15.6111L21.1801 15.3001L21.4895 15.1776C22.1453 14.9181 22.1453 13.9883 21.4895 13.7287L21.1801 13.6062L21.058 13.2952ZM20.3344 13.6159L20.4461 13.9002C20.525 14.1007 20.6833 14.2599 20.8839 14.3393L21.1715 14.4532L20.8839 14.567C20.6833 14.6464 20.525 14.8056 20.4461 15.0061L20.3344 15.2904L20.2228 15.0061C20.1439 14.8056 19.9856 14.6464 19.7849 14.567L19.4974 14.4532L19.7849 14.3393C19.9856 14.2599 20.1439 14.1007 20.2228 13.9002L20.3344 13.6159Z" fill="#1C274C"/>
<path fill-rule="evenodd" clip-rule="evenodd" d="M16.7231 9.22682C13.0489 9.61477 10.186 12.7231 10.186 16.5C10.186 20.5394 13.4606 23.814 17.5 23.814C21.2769 23.814 24.3852 20.9511 24.7732 17.2769C23.7241 18.6087 22.096 19.4651 20.2674 19.4651C17.1014 19.4651 14.5349 16.8986 14.5349 13.7326C14.5349 11.904 15.3913 10.2759 16.7231 9.22682ZM9 16.5C9 11.8056 12.8056 8 17.5 8C18.0666 8 18.3503 8.45169 18.3989 8.81147C18.4457 9.15757 18.3177 9.59772 17.9199 9.83811C16.6007 10.6352 15.7209 12.0814 15.7209 13.7326C15.7209 16.2435 17.7565 18.2791 20.2674 18.2791C21.9186 18.2791 23.3648 17.3993 24.1619 16.0801C24.4022 15.6823 24.8424 15.5543 25.1885 15.6011C25.5483 15.6497 26 15.9334 26 16.5C26 21.1945 22.1945 25 17.5 25C12.8056 25 9 21.1945 9 16.5Z" fill="#1C274C"/>
<defs>
<filter id="filter0_i_288_2331" x="0" y="0" width="34.6" height="34" filterUnits="userSpaceOnUse" color-interpolation-filters="sRGB">
<feFlood flood-opacity="0" result="BackgroundImageFix"/>
<feBlend mode="normal" in="SourceGraphic" in2="BackgroundImageFix" result="shape"/>
<feColorMatrix in="SourceAlpha" type="matrix" values="0 0 0 0 0 0 0 0 0 0 0 0 0 0 0 0 0 0 127 0" result="hardAlpha"/>
<feOffset dx="1.3"/>
<feGaussianBlur stdDeviation="0.3"/>
<feComposite in2="hardAlpha" operator="arithmetic" k2="-1" k3="1"/>
<feColorMatrix type="matrix" values="0 0 0 0 0 0 0 0 0 0 0 0 0 0 0 0 0 0 0.25 0"/>
<feBlend mode="normal" in2="shape" result="effect1_innerShadow_288_2331"/>
</filter>
</defs>
</svg>
