<svg width="50" height="50" viewBox="0 0 50 50" fill="none" xmlns="http://www.w3.org/2000/svg">
<g filter="url(#filter0_ii_0_793)">
<circle cx="25" cy="25" r="25" fill="#1F143D"/>
</g>
<g filter="url(#filter1_f_0_793)">
<path d="M21.6141 32.7647C20.7954 32.7647 18.2448 32.7647 16.3551 32.7647C15.3482 32.7647 14.6946 31.6603 15.1449 30.7216L16.3017 28.31C16.6778 27.5259 16.8736 26.6622 16.8736 25.7855C16.8736 24.6989 16.8736 23.0848 16.8736 21.4706C16.8736 18.6471 18.228 13 25.0001 13C31.7721 13 33.1265 18.6471 33.1265 21.4706C33.1265 23.0848 33.1265 24.6989 33.1265 25.7855C33.1265 26.6622 33.3224 27.5259 33.6985 28.31L34.8553 30.7216C35.3055 31.6603 34.6506 32.7647 33.6439 32.7647H28.3861M21.6141 32.7647C21.6141 35.5882 22.9685 37 25.0001 37C27.0317 37 28.3861 35.5882 28.3861 32.7647M21.6141 32.7647C23.7298 32.7647 28.3861 32.7647 28.3861 32.7647" stroke="#2169B4" stroke-linejoin="round"/>
</g>
<g filter="url(#filter2_f_0_793)">
<path d="M21.6141 28.7647C20.7954 28.7647 18.2448 28.7647 16.3551 28.7647C15.3482 28.7647 14.6946 27.6603 15.1449 26.7216L16.3017 24.31C16.6778 23.5259 16.8736 22.6622 16.8736 21.7855C16.8736 20.6989 16.8736 19.0848 16.8736 17.4706C16.8736 14.6471 18.228 9 25.0001 9C31.7721 9 33.1265 14.6471 33.1265 17.4706C33.1265 19.0848 33.1265 20.6989 33.1265 21.7855C33.1265 22.6622 33.3224 23.5259 33.6985 24.31L34.8553 26.7216C35.3055 27.6603 34.6506 28.7647 33.6439 28.7647H28.3861M21.6141 28.7647C21.6141 31.5882 22.9685 33 25.0001 33C27.0317 33 28.3861 31.5882 28.3861 28.7647M21.6141 28.7647C23.7298 28.7647 28.3861 28.7647 28.3861 28.7647" stroke="#2169B4" stroke-linejoin="round"/>
</g>
<g filter="url(#filter3_f_0_793)">
<path d="M21.6141 36.7647C20.7954 36.7647 18.2448 36.7647 16.3551 36.7647C15.3482 36.7647 14.6946 35.6603 15.1449 34.7216L16.3017 32.31C16.6778 31.5259 16.8736 30.6622 16.8736 29.7855C16.8736 28.6989 16.8736 27.0848 16.8736 25.4706C16.8736 22.6471 18.228 17 25.0001 17C31.7721 17 33.1265 22.6471 33.1265 25.4706C33.1265 27.0848 33.1265 28.6989 33.1265 29.7855C33.1265 30.6622 33.3224 31.5259 33.6985 32.31L34.8553 34.7216C35.3055 35.6603 34.6506 36.7647 33.6439 36.7647H28.3861M21.6141 36.7647C21.6141 39.5882 22.9685 41 25.0001 41C27.0317 41 28.3861 39.5882 28.3861 36.7647M21.6141 36.7647C23.7298 36.7647 28.3861 36.7647 28.3861 36.7647" stroke="#2169B4" stroke-linejoin="round"/>
</g>
<g filter="url(#filter4_f_0_793)">
<path d="M21.6141 32.7647C20.7954 32.7647 18.2448 32.7647 16.3551 32.7647C15.3482 32.7647 14.6946 31.6603 15.1449 30.7216L16.3017 28.31C16.6778 27.5259 16.8736 26.6622 16.8736 25.7855C16.8736 24.6989 16.8736 23.0848 16.8736 21.4706C16.8736 18.6471 18.228 13 25.0001 13C31.7721 13 33.1265 18.6471 33.1265 21.4706C33.1265 23.0848 33.1265 24.6989 33.1265 25.7855C33.1265 26.6622 33.3224 27.5259 33.6985 28.31L34.8553 30.7216C35.3055 31.6603 34.6506 32.7647 33.6439 32.7647H28.3861M21.6141 32.7647C21.6141 35.5882 22.9685 37 25.0001 37C27.0317 37 28.3861 35.5882 28.3861 32.7647M21.6141 32.7647C23.7298 32.7647 28.3861 32.7647 28.3861 32.7647" stroke="#2169B4" stroke-linejoin="round"/>
</g>
<g filter="url(#filter5_f_0_793)">
<path d="M25.6141 32.7647C24.7954 32.7647 22.2448 32.7647 20.3551 32.7647C19.3482 32.7647 18.6946 31.6603 19.1449 30.7216L20.3017 28.31C20.6778 27.5259 20.8736 26.6622 20.8736 25.7855C20.8736 24.6989 20.8736 23.0848 20.8736 21.4706C20.8736 18.6471 22.228 13 29.0001 13C35.7721 13 37.1265 18.6471 37.1265 21.4706C37.1265 23.0848 37.1265 24.6989 37.1265 25.7855C37.1265 26.6622 37.3224 27.5259 37.6985 28.31L38.8553 30.7216C39.3055 31.6603 38.6506 32.7647 37.6439 32.7647H32.3861M25.6141 32.7647C25.6141 35.5882 26.9685 37 29.0001 37C31.0317 37 32.3861 35.5882 32.3861 32.7647M25.6141 32.7647C27.7298 32.7647 32.3861 32.7647 32.3861 32.7647" stroke="#2169B4" stroke-linejoin="round"/>
</g>
<g filter="url(#filter6_f_0_793)">
<path d="M21.6141 32.7647C20.7954 32.7647 18.2448 32.7647 16.3551 32.7647C15.3482 32.7647 14.6946 31.6603 15.1449 30.7216L16.3017 28.31C16.6778 27.5259 16.8736 26.6622 16.8736 25.7855C16.8736 24.6989 16.8736 23.0848 16.8736 21.4706C16.8736 18.6471 18.228 13 25.0001 13C31.7721 13 33.1265 18.6471 33.1265 21.4706C33.1265 23.0848 33.1265 24.6989 33.1265 25.7855C33.1265 26.6622 33.3224 27.5259 33.6985 28.31L34.8553 30.7216C35.3055 31.6603 34.6506 32.7647 33.6439 32.7647H28.3861M21.6141 32.7647C21.6141 35.5882 22.9685 37 25.0001 37C27.0317 37 28.3861 35.5882 28.3861 32.7647M21.6141 32.7647C23.7298 32.7647 28.3861 32.7647 28.3861 32.7647" stroke="#2169B4" stroke-linejoin="round"/>
</g>
<g filter="url(#filter7_f_0_793)">
<path d="M21.6141 32.7647C20.7954 32.7647 18.2448 32.7647 16.3551 32.7647C15.3482 32.7647 14.6946 31.6603 15.1449 30.7216L16.3017 28.31C16.6778 27.5259 16.8736 26.6622 16.8736 25.7855C16.8736 24.6989 16.8736 23.0848 16.8736 21.4706C16.8736 18.6471 18.228 13 25.0001 13C31.7721 13 33.1265 18.6471 33.1265 21.4706C33.1265 23.0848 33.1265 24.6989 33.1265 25.7855C33.1265 26.6622 33.3224 27.5259 33.6985 28.31L34.8553 30.7216C35.3055 31.6603 34.6506 32.7647 33.6439 32.7647H28.3861M21.6141 32.7647C21.6141 35.5882 22.9685 37 25.0001 37C27.0317 37 28.3861 35.5882 28.3861 32.7647M21.6141 32.7647C23.7298 32.7647 28.3861 32.7647 28.3861 32.7647" stroke="#2169B4" stroke-linejoin="round"/>
</g>
<g filter="url(#filter8_f_0_793)">
<path d="M21.6141 32.7647C20.7954 32.7647 18.2448 32.7647 16.3551 32.7647C15.3482 32.7647 14.6946 31.6603 15.1449 30.7216L16.3017 28.31C16.6778 27.5259 16.8736 26.6622 16.8736 25.7855C16.8736 24.6989 16.8736 23.0848 16.8736 21.4706C16.8736 18.6471 18.228 13 25.0001 13C31.7721 13 33.1265 18.6471 33.1265 21.4706C33.1265 23.0848 33.1265 24.6989 33.1265 25.7855C33.1265 26.6622 33.3224 27.5259 33.6985 28.31L34.8553 30.7216C35.3055 31.6603 34.6506 32.7647 33.6439 32.7647H28.3861M21.6141 32.7647C21.6141 35.5882 22.9685 37 25.0001 37C27.0317 37 28.3861 35.5882 28.3861 32.7647M21.6141 32.7647C23.7298 32.7647 28.3861 32.7647 28.3861 32.7647" stroke="#2169B4" stroke-linejoin="round"/>
</g>
<g filter="url(#filter9_f_0_793)">
<path d="M21.6141 32.7647C20.7954 32.7647 18.2448 32.7647 16.3551 32.7647C15.3482 32.7647 14.6946 31.6603 15.1449 30.7216L16.3017 28.31C16.6778 27.5259 16.8736 26.6622 16.8736 25.7855C16.8736 24.6989 16.8736 23.0848 16.8736 21.4706C16.8736 18.6471 18.228 13 25.0001 13C31.7721 13 33.1265 18.6471 33.1265 21.4706C33.1265 23.0848 33.1265 24.6989 33.1265 25.7855C33.1265 26.6622 33.3224 27.5259 33.6985 28.31L34.8553 30.7216C35.3055 31.6603 34.6506 32.7647 33.6439 32.7647H28.3861M21.6141 32.7647C21.6141 35.5882 22.9685 37 25.0001 37C27.0317 37 28.3861 35.5882 28.3861 32.7647M21.6141 32.7647C23.7298 32.7647 28.3861 32.7647 28.3861 32.7647" stroke="#2169B4" stroke-linejoin="round"/>
</g>
<g filter="url(#filter10_f_0_793)">
<path d="M21.6141 32.7647C20.7954 32.7647 18.2448 32.7647 16.3551 32.7647C15.3482 32.7647 14.6946 31.6603 15.1449 30.7216L16.3017 28.31C16.6778 27.5259 16.8736 26.6622 16.8736 25.7855C16.8736 24.6989 16.8736 23.0848 16.8736 21.4706C16.8736 18.6471 18.228 13 25.0001 13C31.7721 13 33.1265 18.6471 33.1265 21.4706C33.1265 23.0848 33.1265 24.6989 33.1265 25.7855C33.1265 26.6622 33.3224 27.5259 33.6985 28.31L34.8553 30.7216C35.3055 31.6603 34.6506 32.7647 33.6439 32.7647H28.3861M21.6141 32.7647C21.6141 35.5882 22.9685 37 25.0001 37C27.0317 37 28.3861 35.5882 28.3861 32.7647M21.6141 32.7647C23.7298 32.7647 28.3861 32.7647 28.3861 32.7647" stroke="#2169B4" stroke-linejoin="round"/>
</g>
<g filter="url(#filter11_f_0_793)">
<path d="M17.6141 32.7647C16.7954 32.7647 14.2448 32.7647 12.3551 32.7647C11.3482 32.7647 10.6946 31.6603 11.1449 30.7216L12.3017 28.31C12.6778 27.5259 12.8736 26.6622 12.8736 25.7855C12.8736 24.6989 12.8736 23.0848 12.8736 21.4706C12.8736 18.6471 14.228 13 21.0001 13C27.7721 13 29.1265 18.6471 29.1265 21.4706C29.1265 23.0848 29.1265 24.6989 29.1265 25.7855C29.1265 26.6622 29.3224 27.5259 29.6985 28.31L30.8553 30.7216C31.3055 31.6603 30.6506 32.7647 29.6439 32.7647H24.3861M17.6141 32.7647C17.6141 35.5882 18.9685 37 21.0001 37C23.0317 37 24.3861 35.5882 24.3861 32.7647M17.6141 32.7647C19.7298 32.7647 24.3861 32.7647 24.3861 32.7647" stroke="#2169B4" stroke-linejoin="round"/>
</g>
<path d="M21.6141 32.7647C20.7954 32.7647 18.2448 32.7647 16.3551 32.7647C15.3482 32.7647 14.6946 31.6603 15.1449 30.7216L16.3017 28.31C16.6778 27.5259 16.8736 26.6622 16.8736 25.7855C16.8736 24.6989 16.8736 23.0848 16.8736 21.4706C16.8736 18.6471 18.228 13 25.0001 13C31.7721 13 33.1265 18.6471 33.1265 21.4706C33.1265 23.0848 33.1265 24.6989 33.1265 25.7855C33.1265 26.6622 33.3224 27.5259 33.6985 28.31L34.8553 30.7216C35.3055 31.6603 34.6506 32.7647 33.6439 32.7647H28.3861M21.6141 32.7647C21.6141 35.5882 22.9685 37 25.0001 37C27.0317 37 28.3861 35.5882 28.3861 32.7647M21.6141 32.7647C23.7298 32.7647 28.3861 32.7647 28.3861 32.7647" stroke="#FAFAFA" stroke-linejoin="round"/>
<path d="M21.6141 32.7647C20.7954 32.7647 18.2448 32.7647 16.3551 32.7647C15.3482 32.7647 14.6946 31.6603 15.1449 30.7216L16.3017 28.31C16.6778 27.5259 16.8736 26.6622 16.8736 25.7855C16.8736 24.6989 16.8736 23.0848 16.8736 21.4706C16.8736 18.6471 18.228 13 25.0001 13C31.7721 13 33.1265 18.6471 33.1265 21.4706C33.1265 23.0848 33.1265 24.6989 33.1265 25.7855C33.1265 26.6622 33.3224 27.5259 33.6985 28.31L34.8553 30.7216C35.3055 31.6603 34.6506 32.7647 33.6439 32.7647H28.3861M21.6141 32.7647C21.6141 35.5882 22.9685 37 25.0001 37C27.0317 37 28.3861 35.5882 28.3861 32.7647M21.6141 32.7647C23.7298 32.7647 28.3861 32.7647 28.3861 32.7647" stroke="#D0ECFA" stroke-linejoin="round"/>
<defs>
<filter id="filter0_ii_0_793" x="-2" y="-4" width="54" height="58" filterUnits="userSpaceOnUse" color-interpolation-filters="sRGB">
<feFlood flood-opacity="0" result="BackgroundImageFix"/>
<feBlend mode="normal" in="SourceGraphic" in2="BackgroundImageFix" result="shape"/>
<feColorMatrix in="SourceAlpha" type="matrix" values="0 0 0 0 0 0 0 0 0 0 0 0 0 0 0 0 0 0 127 0" result="hardAlpha"/>
<feOffset dx="2" dy="4"/>
<feGaussianBlur stdDeviation="2"/>
<feComposite in2="hardAlpha" operator="arithmetic" k2="-1" k3="1"/>
<feColorMatrix type="matrix" values="0 0 0 0 0.17875 0 0 0 0 0 0 0 0 0 0.476667 0 0 0 0.25 0"/>
<feBlend mode="normal" in2="shape" result="effect1_innerShadow_0_793"/>
<feColorMatrix in="SourceAlpha" type="matrix" values="0 0 0 0 0 0 0 0 0 0 0 0 0 0 0 0 0 0 127 0" result="hardAlpha"/>
<feOffset dx="-2" dy="-4"/>
<feGaussianBlur stdDeviation="2"/>
<feComposite in2="hardAlpha" operator="arithmetic" k2="-1" k3="1"/>
<feColorMatrix type="matrix" values="0 0 0 0 0.317647 0 0 0 0 0.137255 0 0 0 0 0.623529 0 0 0 0.25 0"/>
<feBlend mode="normal" in2="effect1_innerShadow_0_793" result="effect2_innerShadow_0_793"/>
</filter>
<filter id="filter1_f_0_793" x="10.5015" y="8.5" width="28.9969" height="33" filterUnits="userSpaceOnUse" color-interpolation-filters="sRGB">
<feFlood flood-opacity="0" result="BackgroundImageFix"/>
<feBlend mode="normal" in="SourceGraphic" in2="BackgroundImageFix" result="shape"/>
<feGaussianBlur stdDeviation="2" result="effect1_foregroundBlur_0_793"/>
</filter>
<filter id="filter2_f_0_793" x="10.5015" y="4.5" width="28.9969" height="33" filterUnits="userSpaceOnUse" color-interpolation-filters="sRGB">
<feFlood flood-opacity="0" result="BackgroundImageFix"/>
<feBlend mode="normal" in="SourceGraphic" in2="BackgroundImageFix" result="shape"/>
<feGaussianBlur stdDeviation="2" result="effect1_foregroundBlur_0_793"/>
</filter>
<filter id="filter3_f_0_793" x="10.5015" y="12.5" width="28.9969" height="33" filterUnits="userSpaceOnUse" color-interpolation-filters="sRGB">
<feFlood flood-opacity="0" result="BackgroundImageFix"/>
<feBlend mode="normal" in="SourceGraphic" in2="BackgroundImageFix" result="shape"/>
<feGaussianBlur stdDeviation="2" result="effect1_foregroundBlur_0_793"/>
</filter>
<filter id="filter4_f_0_793" x="10.5015" y="8.5" width="28.9969" height="33" filterUnits="userSpaceOnUse" color-interpolation-filters="sRGB">
<feFlood flood-opacity="0" result="BackgroundImageFix"/>
<feBlend mode="normal" in="SourceGraphic" in2="BackgroundImageFix" result="shape"/>
<feGaussianBlur stdDeviation="2" result="effect1_foregroundBlur_0_793"/>
</filter>
<filter id="filter5_f_0_793" x="14.5015" y="8.5" width="28.9969" height="33" filterUnits="userSpaceOnUse" color-interpolation-filters="sRGB">
<feFlood flood-opacity="0" result="BackgroundImageFix"/>
<feBlend mode="normal" in="SourceGraphic" in2="BackgroundImageFix" result="shape"/>
<feGaussianBlur stdDeviation="2" result="effect1_foregroundBlur_0_793"/>
</filter>
<filter id="filter6_f_0_793" x="10.5015" y="8.5" width="28.9969" height="33" filterUnits="userSpaceOnUse" color-interpolation-filters="sRGB">
<feFlood flood-opacity="0" result="BackgroundImageFix"/>
<feBlend mode="normal" in="SourceGraphic" in2="BackgroundImageFix" result="shape"/>
<feGaussianBlur stdDeviation="2" result="effect1_foregroundBlur_0_793"/>
</filter>
<filter id="filter7_f_0_793" x="10.5015" y="8.5" width="28.9969" height="33" filterUnits="userSpaceOnUse" color-interpolation-filters="sRGB">
<feFlood flood-opacity="0" result="BackgroundImageFix"/>
<feBlend mode="normal" in="SourceGraphic" in2="BackgroundImageFix" result="shape"/>
<feGaussianBlur stdDeviation="2" result="effect1_foregroundBlur_0_793"/>
</filter>
<filter id="filter8_f_0_793" x="10.5015" y="8.5" width="28.9969" height="33" filterUnits="userSpaceOnUse" color-interpolation-filters="sRGB">
<feFlood flood-opacity="0" result="BackgroundImageFix"/>
<feBlend mode="normal" in="SourceGraphic" in2="BackgroundImageFix" result="shape"/>
<feGaussianBlur stdDeviation="2" result="effect1_foregroundBlur_0_793"/>
</filter>
<filter id="filter9_f_0_793" x="10.5015" y="8.5" width="28.9969" height="33" filterUnits="userSpaceOnUse" color-interpolation-filters="sRGB">
<feFlood flood-opacity="0" result="BackgroundImageFix"/>
<feBlend mode="normal" in="SourceGraphic" in2="BackgroundImageFix" result="shape"/>
<feGaussianBlur stdDeviation="2" result="effect1_foregroundBlur_0_793"/>
</filter>
<filter id="filter10_f_0_793" x="10.5015" y="8.5" width="28.9969" height="33" filterUnits="userSpaceOnUse" color-interpolation-filters="sRGB">
<feFlood flood-opacity="0" result="BackgroundImageFix"/>
<feBlend mode="normal" in="SourceGraphic" in2="BackgroundImageFix" result="shape"/>
<feGaussianBlur stdDeviation="2" result="effect1_foregroundBlur_0_793"/>
</filter>
<filter id="filter11_f_0_793" x="6.50153" y="8.5" width="28.9969" height="33" filterUnits="userSpaceOnUse" color-interpolation-filters="sRGB">
<feFlood flood-opacity="0" result="BackgroundImageFix"/>
<feBlend mode="normal" in="SourceGraphic" in2="BackgroundImageFix" result="shape"/>
<feGaussianBlur stdDeviation="2" result="effect1_foregroundBlur_0_793"/>
</filter>
</defs>
</svg>
