<svg width="41" height="41" viewBox="0 0 41 41" fill="none" xmlns="http://www.w3.org/2000/svg">
<g filter="url(#filter0_f_4022_6323)">
<path d="M19.1111 12.1667C22.9464 12.1667 26.0556 15.2758 26.0556 19.1111M26.9706 26.9651L33 33M30.2222 19.1111C30.2222 25.2476 25.2476 30.2222 19.1111 30.2222C12.9746 30.2222 8 25.2476 8 19.1111C8 12.9746 12.9746 8 19.1111 8C25.2476 8 30.2222 12.9746 30.2222 19.1111Z" stroke="#2169B4" stroke-linecap="round" stroke-linejoin="round"/>
</g>
<g filter="url(#filter1_f_4022_6323)">
<path d="M19.1111 12.1667C22.9464 12.1667 26.0556 15.2758 26.0556 19.1111M26.9706 26.9651L33 33M30.2222 19.1111C30.2222 25.2476 25.2476 30.2222 19.1111 30.2222C12.9746 30.2222 8 25.2476 8 19.1111C8 12.9746 12.9746 8 19.1111 8C25.2476 8 30.2222 12.9746 30.2222 19.1111Z" stroke="#2169B4" stroke-linecap="round" stroke-linejoin="round"/>
</g>
<g filter="url(#filter2_f_4022_6323)">
<path d="M19.1111 12.1667C22.9464 12.1667 26.0556 15.2758 26.0556 19.1111M26.9706 26.9651L33 33M30.2222 19.1111C30.2222 25.2476 25.2476 30.2222 19.1111 30.2222C12.9746 30.2222 8 25.2476 8 19.1111C8 12.9746 12.9746 8 19.1111 8C25.2476 8 30.2222 12.9746 30.2222 19.1111Z" stroke="#2169B4" stroke-linecap="round" stroke-linejoin="round"/>
</g>
<g filter="url(#filter3_f_4022_6323)">
<path d="M19.1111 12.1667C22.9464 12.1667 26.0556 15.2758 26.0556 19.1111M26.9706 26.9651L33 33M30.2222 19.1111C30.2222 25.2476 25.2476 30.2222 19.1111 30.2222C12.9746 30.2222 8 25.2476 8 19.1111C8 12.9746 12.9746 8 19.1111 8C25.2476 8 30.2222 12.9746 30.2222 19.1111Z" stroke="#2169B4" stroke-linecap="round" stroke-linejoin="round"/>
</g>
<g filter="url(#filter4_f_4022_6323)">
<path d="M19.1111 12.1667C22.9464 12.1667 26.0556 15.2758 26.0556 19.1111M26.9706 26.9651L33 33M30.2222 19.1111C30.2222 25.2476 25.2476 30.2222 19.1111 30.2222C12.9746 30.2222 8 25.2476 8 19.1111C8 12.9746 12.9746 8 19.1111 8C25.2476 8 30.2222 12.9746 30.2222 19.1111Z" stroke="#2169B4" stroke-linecap="round" stroke-linejoin="round"/>
</g>
<g filter="url(#filter5_f_4022_6323)">
<path d="M18.7404 14.1108C21.2973 14.1108 23.37 16.1835 23.37 18.7404M23.98 23.9764L27.9997 27.9997M26.1478 18.7404C26.1478 22.8314 22.8314 26.1478 18.7404 26.1478C14.6494 26.1478 11.333 22.8314 11.333 18.7404C11.333 14.6494 14.6494 11.333 18.7404 11.333C22.8314 11.333 26.1478 14.6494 26.1478 18.7404Z" stroke="#2169B4" stroke-linecap="round" stroke-linejoin="round"/>
</g>
<g filter="url(#filter6_f_4022_6323)">
<path d="M18.7404 14.1108C21.2973 14.1108 23.37 16.1835 23.37 18.7404M23.98 23.9764L27.9997 27.9997M26.1478 18.7404C26.1478 22.8314 22.8314 26.1478 18.7404 26.1478C14.6494 26.1478 11.333 22.8314 11.333 18.7404C11.333 14.6494 14.6494 11.333 18.7404 11.333C22.8314 11.333 26.1478 14.6494 26.1478 18.7404Z" stroke="#2169B4" stroke-linecap="round" stroke-linejoin="round"/>
</g>
<g filter="url(#filter7_f_4022_6323)">
<path d="M18.7404 14.1108C21.2973 14.1108 23.37 16.1835 23.37 18.7404M23.98 23.9764L27.9997 27.9997M26.1478 18.7404C26.1478 22.8314 22.8314 26.1478 18.7404 26.1478C14.6494 26.1478 11.333 22.8314 11.333 18.7404C11.333 14.6494 14.6494 11.333 18.7404 11.333C22.8314 11.333 26.1478 14.6494 26.1478 18.7404Z" stroke="#2169B4" stroke-linecap="round" stroke-linejoin="round"/>
</g>
<g filter="url(#filter8_f_4022_6323)">
<path d="M18.7404 14.1108C21.2973 14.1108 23.37 16.1835 23.37 18.7404M23.98 23.9764L27.9997 27.9997M26.1478 18.7404C26.1478 22.8314 22.8314 26.1478 18.7404 26.1478C14.6494 26.1478 11.333 22.8314 11.333 18.7404C11.333 14.6494 14.6494 11.333 18.7404 11.333C22.8314 11.333 26.1478 14.6494 26.1478 18.7404Z" stroke="#2169B4" stroke-linecap="round" stroke-linejoin="round"/>
</g>
<g filter="url(#filter9_f_4022_6323)">
<path d="M18.7404 14.1108C21.2973 14.1108 23.37 16.1835 23.37 18.7404M23.98 23.9764L27.9997 27.9997M26.1478 18.7404C26.1478 22.8314 22.8314 26.1478 18.7404 26.1478C14.6494 26.1478 11.333 22.8314 11.333 18.7404C11.333 14.6494 14.6494 11.333 18.7404 11.333C22.8314 11.333 26.1478 14.6494 26.1478 18.7404Z" stroke="#2169B4" stroke-linecap="round" stroke-linejoin="round"/>
</g>
<path d="M18.9263 13.1392C22.1223 13.1392 24.7133 15.7302 24.7133 18.9263M25.4758 25.4713L30.5003 30.5003M28.1855 18.9263C28.1855 24.04 24.04 28.1855 18.9263 28.1855C13.8125 28.1855 9.66699 24.04 9.66699 18.9263C9.66699 13.8125 13.8125 9.66699 18.9263 9.66699C24.04 9.66699 28.1855 13.8125 28.1855 18.9263Z" stroke="white" stroke-linecap="round" stroke-linejoin="round"/>
<path d="M18.9263 13.1392C22.1223 13.1392 24.7133 15.7302 24.7133 18.9263M25.4758 25.4713L30.5003 30.5003M28.1855 18.9263C28.1855 24.04 24.04 28.1855 18.9263 28.1855C13.8125 28.1855 9.66699 24.04 9.66699 18.9263C9.66699 13.8125 13.8125 9.66699 18.9263 9.66699C24.04 9.66699 28.1855 13.8125 28.1855 18.9263Z" stroke="#D0ECFA" stroke-linecap="round" stroke-linejoin="round"/>
<defs>
<filter id="filter0_f_4022_6323" x="0.0999999" y="0.0999999" width="40.8" height="40.8" filterUnits="userSpaceOnUse" color-interpolation-filters="sRGB">
<feFlood flood-opacity="0" result="BackgroundImageFix"/>
<feBlend mode="normal" in="SourceGraphic" in2="BackgroundImageFix" result="shape"/>
<feGaussianBlur stdDeviation="3.7" result="effect1_foregroundBlur_4022_6323"/>
</filter>
<filter id="filter1_f_4022_6323" x="0.0999999" y="0.0999999" width="40.8" height="40.8" filterUnits="userSpaceOnUse" color-interpolation-filters="sRGB">
<feFlood flood-opacity="0" result="BackgroundImageFix"/>
<feBlend mode="normal" in="SourceGraphic" in2="BackgroundImageFix" result="shape"/>
<feGaussianBlur stdDeviation="3.7" result="effect1_foregroundBlur_4022_6323"/>
</filter>
<filter id="filter2_f_4022_6323" x="0.0999999" y="0.0999999" width="40.8" height="40.8" filterUnits="userSpaceOnUse" color-interpolation-filters="sRGB">
<feFlood flood-opacity="0" result="BackgroundImageFix"/>
<feBlend mode="normal" in="SourceGraphic" in2="BackgroundImageFix" result="shape"/>
<feGaussianBlur stdDeviation="3.7" result="effect1_foregroundBlur_4022_6323"/>
</filter>
<filter id="filter3_f_4022_6323" x="0.0999999" y="0.0999999" width="40.8" height="40.8" filterUnits="userSpaceOnUse" color-interpolation-filters="sRGB">
<feFlood flood-opacity="0" result="BackgroundImageFix"/>
<feBlend mode="normal" in="SourceGraphic" in2="BackgroundImageFix" result="shape"/>
<feGaussianBlur stdDeviation="3.7" result="effect1_foregroundBlur_4022_6323"/>
</filter>
<filter id="filter4_f_4022_6323" x="0.0999999" y="0.0999999" width="40.8" height="40.8" filterUnits="userSpaceOnUse" color-interpolation-filters="sRGB">
<feFlood flood-opacity="0" result="BackgroundImageFix"/>
<feBlend mode="normal" in="SourceGraphic" in2="BackgroundImageFix" result="shape"/>
<feGaussianBlur stdDeviation="3.7" result="effect1_foregroundBlur_4022_6323"/>
</filter>
<filter id="filter5_f_4022_6323" x="3.43301" y="3.43301" width="32.467" height="32.467" filterUnits="userSpaceOnUse" color-interpolation-filters="sRGB">
<feFlood flood-opacity="0" result="BackgroundImageFix"/>
<feBlend mode="normal" in="SourceGraphic" in2="BackgroundImageFix" result="shape"/>
<feGaussianBlur stdDeviation="3.7" result="effect1_foregroundBlur_4022_6323"/>
</filter>
<filter id="filter6_f_4022_6323" x="3.43301" y="3.43301" width="32.467" height="32.467" filterUnits="userSpaceOnUse" color-interpolation-filters="sRGB">
<feFlood flood-opacity="0" result="BackgroundImageFix"/>
<feBlend mode="normal" in="SourceGraphic" in2="BackgroundImageFix" result="shape"/>
<feGaussianBlur stdDeviation="3.7" result="effect1_foregroundBlur_4022_6323"/>
</filter>
<filter id="filter7_f_4022_6323" x="3.43301" y="3.43301" width="32.467" height="32.467" filterUnits="userSpaceOnUse" color-interpolation-filters="sRGB">
<feFlood flood-opacity="0" result="BackgroundImageFix"/>
<feBlend mode="normal" in="SourceGraphic" in2="BackgroundImageFix" result="shape"/>
<feGaussianBlur stdDeviation="3.7" result="effect1_foregroundBlur_4022_6323"/>
</filter>
<filter id="filter8_f_4022_6323" x="3.43301" y="3.43301" width="32.467" height="32.467" filterUnits="userSpaceOnUse" color-interpolation-filters="sRGB">
<feFlood flood-opacity="0" result="BackgroundImageFix"/>
<feBlend mode="normal" in="SourceGraphic" in2="BackgroundImageFix" result="shape"/>
<feGaussianBlur stdDeviation="3.7" result="effect1_foregroundBlur_4022_6323"/>
</filter>
<filter id="filter9_f_4022_6323" x="3.43301" y="3.43301" width="32.467" height="32.467" filterUnits="userSpaceOnUse" color-interpolation-filters="sRGB">
<feFlood flood-opacity="0" result="BackgroundImageFix"/>
<feBlend mode="normal" in="SourceGraphic" in2="BackgroundImageFix" result="shape"/>
<feGaussianBlur stdDeviation="3.7" result="effect1_foregroundBlur_4022_6323"/>
</filter>
</defs>
</svg>
