<svg width="26" height="26" viewBox="0 0 26 26" fill="none" xmlns="http://www.w3.org/2000/svg">
<path d="M13 26C20.1797 26 26 20.1797 26 13C26 5.8203 20.1797 0 13 0C5.8203 0 0 5.8203 0 13C0 20.1797 5.8203 26 13 26Z" fill="url(#paint0_linear_1047_28827)"/>
<path fill-rule="evenodd" clip-rule="evenodd" d="M5.8724 12.8581C9.659 11.1977 12.1902 10.1245 13.4659 9.59797C17.0702 8.09953 17.8194 7.83629 18.3054 7.81604C18.4067 7.81604 18.6497 7.83629 18.8116 7.95778C18.9331 8.05903 18.9736 8.20078 18.9939 8.30202C19.0141 8.40327 19.0344 8.62601 19.0141 8.80825C18.8116 10.8534 17.9814 15.855 17.5359 18.1431C17.3537 19.1151 16.9892 19.4391 16.645 19.4796C15.8958 19.5403 15.3085 18.9734 14.5796 18.5076C13.4456 17.7584 12.7976 17.2927 11.6839 16.5637C10.4082 15.7132 11.2384 15.2475 11.9674 14.4983C12.1497 14.2958 15.4908 11.2787 15.5515 10.9952C15.5515 10.9547 15.5718 10.8332 15.4908 10.7724C15.4098 10.7117 15.3085 10.7319 15.2275 10.7522C15.106 10.7724 13.2836 11.9874 9.74 14.3768C9.21352 14.7413 8.74779 14.9033 8.32255 14.9033C7.85682 14.9033 6.96585 14.64 6.29763 14.4173C5.48766 14.154 4.83969 14.0123 4.90043 13.5668C4.94093 13.3441 5.26492 13.1011 5.8724 12.8581Z" fill="white"/>
<defs>
<linearGradient id="paint0_linear_1047_28827" x1="0" y1="12.9906" x2="25.9812" y2="12.9906" gradientUnits="userSpaceOnUse">
<stop stop-color="#2AABEE"/>
<stop offset="1" stop-color="#229ED9"/>
</linearGradient>
</defs>
</svg>
