<svg width="34" height="35" viewBox="0 0 34 35" fill="none" xmlns="http://www.w3.org/2000/svg">
<g filter="url(#filter0_f_4022_6310)">
<path d="M5 30.5C5 24.2714 9.5 18.5 16.5 19C22.8513 19 29 21 29 30.5M23.5714 11.4444C23.5714 15.0036 20.6292 17.8889 17 17.8889C13.3707 17.8889 10.4286 15.0036 10.4286 11.4444C10.4286 7.88527 13.3707 5 17 5C20.6292 5 23.5714 7.88527 23.5714 11.4444Z" stroke="#2169B4" stroke-linecap="round" stroke-linejoin="round"/>
</g>
<g filter="url(#filter1_f_4022_6310)">
<path d="M5 30.5C5 24.2714 9.5 18.5 16.5 19C22.8513 19 29 21 29 30.5M23.5714 11.4444C23.5714 15.0036 20.6292 17.8889 17 17.8889C13.3707 17.8889 10.4286 15.0036 10.4286 11.4444C10.4286 7.88527 13.3707 5 17 5C20.6292 5 23.5714 7.88527 23.5714 11.4444Z" stroke="#2169B4" stroke-linecap="round" stroke-linejoin="round"/>
</g>
<g filter="url(#filter2_f_4022_6310)">
<path d="M5 30.5C5 24.2714 9.5 18.5 16.5 19C22.8513 19 29 21 29 30.5M23.5714 11.4444C23.5714 15.0036 20.6292 17.8889 17 17.8889C13.3707 17.8889 10.4286 15.0036 10.4286 11.4444C10.4286 7.88527 13.3707 5 17 5C20.6292 5 23.5714 7.88527 23.5714 11.4444Z" stroke="#2169B4" stroke-linecap="round" stroke-linejoin="round"/>
</g>
<g filter="url(#filter3_f_4022_6310)">
<path d="M5 30.5C5 24.2714 9.5 18.5 16.5 19C22.8513 19 29 21 29 30.5M23.5714 11.4444C23.5714 15.0036 20.6292 17.8889 17 17.8889C13.3707 17.8889 10.4286 15.0036 10.4286 11.4444C10.4286 7.88527 13.3707 5 17 5C20.6292 5 23.5714 7.88527 23.5714 11.4444Z" stroke="#2169B4" stroke-linecap="round" stroke-linejoin="round"/>
</g>
<g filter="url(#filter4_f_4022_6310)">
<path d="M10.5 30C11.5 26.134 13.4102 23.366 17 23.366C20.5899 23.366 23.5 26.5 23.5 30.366M20.7143 11.5C20.7143 13.7091 19.0513 15.5 17 15.5C14.9487 15.5 13.2857 13.7091 13.2857 11.5C13.2857 9.29086 14.9487 7.5 17 7.5C19.0513 7.5 20.7143 9.29086 20.7143 11.5Z" stroke="#2169B4" stroke-linecap="round" stroke-linejoin="round"/>
</g>
<g filter="url(#filter5_f_4022_6310)">
<path d="M10.5 30C11.5 26.134 13.4102 23.366 17 23.366C20.5899 23.366 23.5 26.5 23.5 30.366M20.7143 11.5C20.7143 13.7091 19.0513 15.5 17 15.5C14.9487 15.5 13.2857 13.7091 13.2857 11.5C13.2857 9.29086 14.9487 7.5 17 7.5C19.0513 7.5 20.7143 9.29086 20.7143 11.5Z" stroke="#2169B4" stroke-linecap="round" stroke-linejoin="round"/>
</g>
<g filter="url(#filter6_f_4022_6310)">
<path d="M10.5 30C11.5 26.134 13.4102 23.366 17 23.366C20.5899 23.366 23.5 26.5 23.5 30.366M20.7143 11.5C20.7143 13.7091 19.0513 15.5 17 15.5C14.9487 15.5 13.2857 13.7091 13.2857 11.5C13.2857 9.29086 14.9487 7.5 17 7.5C19.0513 7.5 20.7143 9.29086 20.7143 11.5Z" stroke="#2169B4" stroke-linecap="round" stroke-linejoin="round"/>
</g>
<g filter="url(#filter7_f_4022_6310)">
<path d="M10.5 30C11.5 26.134 13.4102 23.366 17 23.366C20.5899 23.366 23.5 26.5 23.5 30.366M20.7143 11.5C20.7143 13.7091 19.0513 15.5 17 15.5C14.9487 15.5 13.2857 13.7091 13.2857 11.5C13.2857 9.29086 14.9487 7.5 17 7.5C19.0513 7.5 20.7143 9.29086 20.7143 11.5Z" stroke="#2169B4" stroke-linecap="round" stroke-linejoin="round"/>
</g>
<path d="M7.5 30C7.5 24.8453 11.7533 20.6667 17 20.6667C22.2467 20.6667 26.5 24.8453 26.5 30M22.4286 11.3333C22.4286 14.2789 19.9981 16.6667 17 16.6667C14.0019 16.6667 11.5714 14.2789 11.5714 11.3333C11.5714 8.38781 14.0019 6 17 6C19.9981 6 22.4286 8.38781 22.4286 11.3333Z" stroke="white" stroke-linecap="round" stroke-linejoin="round"/>
<path d="M7.5 30C7.5 24.8453 11.7533 20.6667 17 20.6667C22.2467 20.6667 26.5 24.8453 26.5 30M22.4286 11.3333C22.4286 14.2789 19.9981 16.6667 17 16.6667C14.0019 16.6667 11.5714 14.2789 11.5714 11.3333C11.5714 8.38781 14.0019 6 17 6C19.9981 6 22.4286 8.38781 22.4286 11.3333Z" stroke="#D0ECFA" stroke-linecap="round" stroke-linejoin="round"/>
<defs>
<filter id="filter0_f_4022_6310" x="0.5" y="0.5" width="33" height="34.5" filterUnits="userSpaceOnUse" color-interpolation-filters="sRGB">
<feFlood flood-opacity="0" result="BackgroundImageFix"/>
<feBlend mode="normal" in="SourceGraphic" in2="BackgroundImageFix" result="shape"/>
<feGaussianBlur stdDeviation="2" result="effect1_foregroundBlur_4022_6310"/>
</filter>
<filter id="filter1_f_4022_6310" x="0.5" y="0.5" width="33" height="34.5" filterUnits="userSpaceOnUse" color-interpolation-filters="sRGB">
<feFlood flood-opacity="0" result="BackgroundImageFix"/>
<feBlend mode="normal" in="SourceGraphic" in2="BackgroundImageFix" result="shape"/>
<feGaussianBlur stdDeviation="2" result="effect1_foregroundBlur_4022_6310"/>
</filter>
<filter id="filter2_f_4022_6310" x="0.5" y="0.5" width="33" height="34.5" filterUnits="userSpaceOnUse" color-interpolation-filters="sRGB">
<feFlood flood-opacity="0" result="BackgroundImageFix"/>
<feBlend mode="normal" in="SourceGraphic" in2="BackgroundImageFix" result="shape"/>
<feGaussianBlur stdDeviation="2" result="effect1_foregroundBlur_4022_6310"/>
</filter>
<filter id="filter3_f_4022_6310" x="0.5" y="0.5" width="33" height="34.5" filterUnits="userSpaceOnUse" color-interpolation-filters="sRGB">
<feFlood flood-opacity="0" result="BackgroundImageFix"/>
<feBlend mode="normal" in="SourceGraphic" in2="BackgroundImageFix" result="shape"/>
<feGaussianBlur stdDeviation="2" result="effect1_foregroundBlur_4022_6310"/>
</filter>
<filter id="filter4_f_4022_6310" x="6" y="3" width="22" height="31.8662" filterUnits="userSpaceOnUse" color-interpolation-filters="sRGB">
<feFlood flood-opacity="0" result="BackgroundImageFix"/>
<feBlend mode="normal" in="SourceGraphic" in2="BackgroundImageFix" result="shape"/>
<feGaussianBlur stdDeviation="2" result="effect1_foregroundBlur_4022_6310"/>
</filter>
<filter id="filter5_f_4022_6310" x="6" y="3" width="22" height="31.8662" filterUnits="userSpaceOnUse" color-interpolation-filters="sRGB">
<feFlood flood-opacity="0" result="BackgroundImageFix"/>
<feBlend mode="normal" in="SourceGraphic" in2="BackgroundImageFix" result="shape"/>
<feGaussianBlur stdDeviation="2" result="effect1_foregroundBlur_4022_6310"/>
</filter>
<filter id="filter6_f_4022_6310" x="6" y="3" width="22" height="31.8662" filterUnits="userSpaceOnUse" color-interpolation-filters="sRGB">
<feFlood flood-opacity="0" result="BackgroundImageFix"/>
<feBlend mode="normal" in="SourceGraphic" in2="BackgroundImageFix" result="shape"/>
<feGaussianBlur stdDeviation="2" result="effect1_foregroundBlur_4022_6310"/>
</filter>
<filter id="filter7_f_4022_6310" x="6" y="3" width="22" height="31.8662" filterUnits="userSpaceOnUse" color-interpolation-filters="sRGB">
<feFlood flood-opacity="0" result="BackgroundImageFix"/>
<feBlend mode="normal" in="SourceGraphic" in2="BackgroundImageFix" result="shape"/>
<feGaussianBlur stdDeviation="2" result="effect1_foregroundBlur_4022_6310"/>
</filter>
</defs>
</svg>
