<svg width="41" height="41" viewBox="0 0 41 41" fill="none" xmlns="http://www.w3.org/2000/svg">
<path d="M40.4961 20.248C40.4961 31.4307 31.4307 40.4961 20.248 40.4961C9.06536 40.4961 0 31.4307 0 20.248C0 9.06536 9.06536 0 20.248 0C31.4307 0 40.4961 9.06536 40.4961 20.248Z" fill="#E72C55"/>
<path fill-rule="evenodd" clip-rule="evenodd" d="M20 16.25C19.0054 16.25 18.0516 16.6451 17.3483 17.3483C16.6451 18.0516 16.25 19.0054 16.25 20C16.25 20.9946 16.6451 21.9484 17.3483 22.6517C18.0516 23.3549 19.0054 23.75 20 23.75C20.9946 23.75 21.9484 23.3549 22.6517 22.6517C23.3549 21.9484 23.75 20.9946 23.75 20C23.75 19.0054 23.3549 18.0516 22.6517 17.3483C21.9484 16.6451 20.9946 16.25 20 16.25ZM17.75 20C17.75 19.4033 17.9871 18.831 18.409 18.409C18.831 17.9871 19.4033 17.75 20 17.75C20.5967 17.75 21.169 17.9871 21.591 18.409C22.0129 18.831 22.25 19.4033 22.25 20C22.25 20.5967 22.0129 21.169 21.591 21.591C21.169 22.0129 20.5967 22.25 20 22.25C19.4033 22.25 18.831 22.0129 18.409 21.591C17.9871 21.169 17.75 20.5967 17.75 20Z" fill="white"/>
<path fill-rule="evenodd" clip-rule="evenodd" d="M20 11.25C15.486 11.25 12.445 13.954 10.68 16.247L10.649 16.288C10.249 16.807 9.882 17.284 9.633 17.848C9.366 18.453 9.25 19.112 9.25 20C9.25 20.888 9.366 21.547 9.633 22.152C9.883 22.716 10.25 23.194 10.649 23.712L10.681 23.753C12.445 26.046 15.486 28.75 20 28.75C24.514 28.75 27.555 26.046 29.32 23.753L29.351 23.712C29.751 23.194 30.118 22.716 30.367 22.152C30.634 21.547 30.75 20.888 30.75 20C30.75 19.112 30.634 18.453 30.367 17.848C30.117 17.284 29.75 16.807 29.351 16.288L29.319 16.247C27.555 13.954 24.514 11.25 20 11.25ZM11.87 17.162C13.498 15.045 16.15 12.75 20 12.75C23.85 12.75 26.501 15.045 28.13 17.162C28.57 17.732 28.826 18.072 28.995 18.454C29.153 18.812 29.25 19.249 29.25 20C29.25 20.751 29.153 21.188 28.995 21.546C28.826 21.928 28.569 22.268 28.131 22.838C26.5 24.955 23.85 27.25 20 27.25C16.15 27.25 13.499 24.955 11.87 22.838C11.43 22.268 11.174 21.928 11.005 21.546C10.847 21.188 10.75 20.751 10.75 20C10.75 19.249 10.847 18.812 11.005 18.454C11.174 18.072 11.432 17.732 11.87 17.162Z" fill="white"/>
</svg>
